<ttFont>
    <TTGlyph name=".notdef" xMin="123" yMin="0" xMax="861" yMax="861">
      <contour>
        <pt x="123" y="0" on="1"/>
        <pt x="123" y="861" on="1"/>
        <pt x="861" y="861" on="1"/>
        <pt x="861" y="0" on="1"/>
        <pt x="123" y="0" on="1"/>
      </contour>
      <contour>
        <pt x="184" y="61" on="1"/>
        <pt x="799" y="61" on="1"/>
        <pt x="799" y="799" on="1"/>
        <pt x="184" y="799" on="1"/>
        <pt x="184" y="61" on="1"/>
      </contour>
    </TTGlyph>
    <TTGlyph name="afii301" xMin="-197" yMin="-363" xMax="268" yMax="861">
      <contour>
        <pt x="0" y="-363" on="1"/>
        <pt x="0" y="811" on="1"/>
        <pt x="-197" y="811" on="1"/>
        <pt x="-197" y="861" on="1"/>
        <pt x="268" y="861" on="1"/>
        <pt x="268" y="811" on="1"/>
        <pt x="49" y="811" on="1"/>
        <pt x="49" y="-363" on="1"/>
        <pt x="0" y="-363" on="1"/>
      </contour>
    </TTGlyph>
    <TTGlyph name="afii61664" xMin="0" yMin="-363" xMax="50" yMax="861">
      <contour>
        <pt x="1" y="-363" on="1"/>
        <pt x="0" y="861" on="1"/>
        <pt x="49" y="861" on="1"/>
        <pt x="50" y="-363" on="1"/>
        <pt x="1" y="-363" on="1"/>
      </contour>
    </TTGlyph>
    <TTGlyph name="ampersand" xMin="92" yMin="-14" xMax="711" yMax="659">
      <contour>
        <pt x="278" y="-1" on="1"/>
        <pt x="201" y="-1" on="0"/>
        <pt x="92" y="93" on="0"/>
        <pt x="92" y="161" on="1"/>
        <pt x="92" y="218" on="0"/>
        <pt x="178" y="333" on="0"/>
        <pt x="253" y="376" on="1"/>
        <pt x="231" y="414" on="0"/>
        <pt x="209" y="481" on="0"/>
        <pt x="209" y="506" on="1"/>
        <pt x="209" y="569" on="0"/>
        <pt x="305" y="659" on="0"/>
        <pt x="374" y="659" on="1"/>
        <pt x="421" y="659" on="0"/>
        <pt x="487" y="588" on="0"/>
        <pt x="487" y="537" on="1"/>
        <pt x="487" y="492" on="0"/>
        <pt x="400" y="397" on="0"/>
        <pt x="327" y="363" on="1"/>
        <pt x="344" y="335" on="0"/>
        <pt x="435" y="173" on="0"/>
        <pt x="456" y="149" on="1"/>
        <pt x="514" y="207" on="0"/>
        <pt x="575" y="333" on="0"/>
        <pt x="575" y="393" on="1"/>
        <pt x="633" y="393" on="1"/>
        <pt x="616" y="296" on="0"/>
        <pt x="542" y="146" on="0"/>
        <pt x="490" y="103" on="1"/>
        <pt x="513" y="70" on="0"/>
        <pt x="564" y="33" on="0"/>
        <pt x="585" y="33" on="1"/>
        <pt x="608" y="33" on="0"/>
        <pt x="656" y="68" on="0"/>
        <pt x="674" y="98" on="1"/>
        <pt x="711" y="68" on="1"/>
        <pt x="689" y="30" on="0"/>
        <pt x="622" y="-14" on="0"/>
        <pt x="585" y="-14" on="1"/>
        <pt x="549" y="-14" on="0"/>
        <pt x="479" y="32" on="0"/>
        <pt x="451" y="71" on="1"/>
        <pt x="417" y="37" on="0"/>
        <pt x="326" y="-1" on="0"/>
        <pt x="278" y="-1" on="1"/>
      </contour>
      <contour>
        <pt x="280" y="49" on="1"/>
        <pt x="313" y="49" on="0"/>
        <pt x="388" y="82" on="0"/>
        <pt x="425" y="113" on="1"/>
        <pt x="404" y="138" on="0"/>
        <pt x="338" y="243" on="0"/>
        <pt x="284" y="338" on="1"/>
        <pt x="221" y="302" on="0"/>
        <pt x="150" y="208" on="0"/>
        <pt x="150" y="161" on="1"/>
        <pt x="150" y="114" on="0"/>
        <pt x="226" y="49" on="0"/>
        <pt x="280" y="49" on="1"/>
      </contour>
      <contour>
        <pt x="304" y="395" on="1"/>
        <pt x="364" y="423" on="0"/>
        <pt x="436" y="500" on="0"/>
        <pt x="436" y="537" on="1"/>
        <pt x="436" y="569" on="0"/>
        <pt x="397" y="613" on="0"/>
        <pt x="370" y="613" on="1"/>
        <pt x="325" y="613" on="0"/>
        <pt x="259" y="551" on="0"/>
        <pt x="259" y="506" on="1"/>
        <pt x="259" y="483" on="0"/>
        <pt x="282" y="425" on="0"/>
        <pt x="304" y="395" on="1"/>
      </contour>
    </TTGlyph>
    <TTGlyph name="asciicircum" xMin="92" yMin="565" xMax="486" yMax="861">
      <contour>
        <pt x="92" y="565" on="1"/>
        <pt x="92" y="649" on="1"/>
        <pt x="289" y="861" on="1"/>
        <pt x="486" y="639" on="1"/>
        <pt x="486" y="565" on="1"/>
        <pt x="289" y="777" on="1"/>
        <pt x="92" y="565" on="1"/>
      </contour>
    </TTGlyph>
    <TTGlyph name="asciitilde" xMin="92" yMin="227" xMax="701" yMax="356">
      <contour>
        <pt x="92" y="270" on="1"/>
        <pt x="126" y="311" on="0"/>
        <pt x="220" y="356" on="0"/>
        <pt x="270" y="356" on="1"/>
        <pt x="313" y="356" on="0"/>
        <pt x="473" y="295" on="0"/>
        <pt x="516" y="295" on="1"/>
        <pt x="566" y="295" on="0"/>
        <pt x="648" y="325" on="0"/>
        <pt x="670" y="350" on="1"/>
        <pt x="701" y="307" on="1"/>
        <pt x="671" y="271" on="0"/>
        <pt x="574" y="234" on="0"/>
        <pt x="516" y="234" on="1"/>
        <pt x="473" y="234" on="0"/>
        <pt x="313" y="295" on="0"/>
        <pt x="270" y="295" on="1"/>
        <pt x="229" y="295" on="0"/>
        <pt x="156" y="259" on="0"/>
        <pt x="129" y="227" on="1"/>
        <pt x="92" y="270" on="1"/>
      </contour>
    </TTGlyph>
    <TTGlyph name="asterisk" xMin="104" yMin="293" xMax="562" yMax="807">
      <contour>
        <pt x="273" y="752" on="1"/>
        <pt x="273" y="775" on="0"/>
        <pt x="310" y="806" on="0"/>
        <pt x="334" y="806" on="1"/>
        <pt x="356" y="806" on="0"/>
        <pt x="391" y="772" on="0"/>
        <pt x="391" y="752" on="1"/>
        <pt x="391" y="730" on="0"/>
        <pt x="362" y="645" on="0"/>
        <pt x="334" y="584" on="1"/>
        <pt x="303" y="651" on="0"/>
        <pt x="273" y="730" on="0"/>
        <pt x="273" y="752" on="1"/>
      </contour>
      <contour>
        <pt x="130" y="601" on="1"/>
        <pt x="110" y="612" on="0"/>
        <pt x="99" y="657" on="0"/>
        <pt x="122" y="695" on="0"/>
        <pt x="169" y="711" on="0"/>
        <pt x="185" y="702" on="1"/>
        <pt x="206" y="690" on="0"/>
        <pt x="266" y="622" on="0"/>
        <pt x="304" y="567" on="1"/>
        <pt x="235" y="574" on="0"/>
        <pt x="150" y="589" on="0"/>
        <pt x="130" y="601" on="1"/>
      </contour>
      <contour>
        <pt x="185" y="400" on="1"/>
        <pt x="166" y="389" on="0"/>
        <pt x="123" y="404" on="0"/>
        <pt x="110" y="424" on="1"/>
        <pt x="100" y="442" on="0"/>
        <pt x="113" y="490" on="0"/>
        <pt x="130" y="499" on="1"/>
        <pt x="150" y="511" on="0"/>
        <pt x="238" y="528" on="0"/>
        <pt x="304" y="534" on="1"/>
        <pt x="266" y="479" on="0"/>
        <pt x="206" y="412" on="0"/>
        <pt x="185" y="400" on="1"/>
      </contour>
      <contour>
        <pt x="391" y="350" on="1"/>
        <pt x="391" y="327" on="0"/>
        <pt x="358" y="294" on="0"/>
        <pt x="334" y="294" on="1"/>
        <pt x="312" y="294" on="0"/>
        <pt x="273" y="329" on="0"/>
        <pt x="273" y="371" on="0"/>
        <pt x="303" y="451" on="0"/>
        <pt x="334" y="517" on="1"/>
        <pt x="362" y="456" on="0"/>
        <pt x="391" y="371" on="0"/>
        <pt x="391" y="350" on="1"/>
      </contour>
      <contour>
        <pt x="539" y="499" on="1"/>
        <pt x="558" y="490" on="0"/>
        <pt x="566" y="444" on="0"/>
        <pt x="555" y="424" on="1"/>
        <pt x="545" y="405" on="0"/>
        <pt x="497" y="390" on="0"/>
        <pt x="481" y="400" on="1"/>
        <pt x="461" y="412" on="0"/>
        <pt x="400" y="479" on="0"/>
        <pt x="362" y="534" on="1"/>
        <pt x="431" y="528" on="0"/>
        <pt x="520" y="511" on="0"/>
        <pt x="539" y="499" on="1"/>
      </contour>
      <contour>
        <pt x="481" y="702" on="1"/>
        <pt x="499" y="711" on="0"/>
        <pt x="542" y="698" on="0"/>
        <pt x="555" y="676" on="1"/>
        <pt x="565" y="658" on="0"/>
        <pt x="557" y="610" on="0"/>
        <pt x="539" y="601" on="1"/>
        <pt x="520" y="589" on="0"/>
        <pt x="434" y="574" on="0"/>
        <pt x="362" y="567" on="1"/>
        <pt x="400" y="622" on="0"/>
        <pt x="461" y="690" on="0"/>
        <pt x="481" y="702" on="1"/>
      </contour>
    </TTGlyph>
    <TTGlyph name="at" xMin="92" yMin="-230" xMax="943" yMax="672">
      <contour>
        <pt x="527" y="-230" on="1"/>
        <pt x="346" y="-230" on="0"/>
        <pt x="92" y="33" on="0"/>
        <pt x="92" y="219" on="1"/>
        <pt x="92" y="407" on="0"/>
        <pt x="350" y="672" on="0"/>
        <pt x="534" y="672" on="1"/>
        <pt x="704" y="672" on="0"/>
        <pt x="943" y="428" on="0"/>
        <pt x="943" y="254" on="1"/>
        <pt x="943" y="147" on="0"/>
        <pt x="832" y="-5" on="0"/>
        <pt x="754" y="-5" on="1"/>
        <pt x="715" y="-5" on="0"/>
        <pt x="654" y="25" on="0"/>
        <pt x="645" y="49" on="1"/>
        <pt x="620" y="24" on="0"/>
        <pt x="557" y="-2" on="0"/>
        <pt x="522" y="-2" on="1"/>
        <pt x="438" y="-2" on="0"/>
        <pt x="321" y="124" on="0"/>
        <pt x="321" y="213" on="1"/>
        <pt x="321" y="308" on="0"/>
        <pt x="439" y="443" on="0"/>
        <pt x="522" y="443" on="1"/>
        <pt x="548" y="443" on="0"/>
        <pt x="600" y="423" on="0"/>
        <pt x="622" y="404" on="1"/>
        <pt x="622" y="431" on="1"/>
        <pt x="680" y="431" on="1"/>
        <pt x="680" y="102" on="1"/>
        <pt x="680" y="76" on="0"/>
        <pt x="724" y="39" on="0"/>
        <pt x="755" y="39" on="1"/>
        <pt x="810" y="39" on="0"/>
        <pt x="888" y="166" on="0"/>
        <pt x="888" y="254" on="1"/>
        <pt x="888" y="408" on="0"/>
        <pt x="680" y="626" on="0"/>
        <pt x="534" y="626" on="1"/>
        <pt x="377" y="626" on="0"/>
        <pt x="152" y="387" on="0"/>
        <pt x="152" y="219" on="1"/>
        <pt x="152" y="56" on="0"/>
        <pt x="370" y="-177" on="0"/>
        <pt x="524" y="-177" on="1"/>
        <pt x="631" y="-177" on="0"/>
        <pt x="809" y="-93" on="0"/>
        <pt x="861" y="-20" on="1"/>
        <pt x="896" y="-50" on="1"/>
        <pt x="837" y="-135" on="0"/>
        <pt x="642" y="-230" on="0"/>
        <pt x="527" y="-230" on="1"/>
      </contour>
      <contour>
        <pt x="524" y="55" on="1"/>
        <pt x="551" y="55" on="0"/>
        <pt x="602" y="81" on="0"/>
        <pt x="622" y="104" on="1"/>
        <pt x="622" y="348" on="1"/>
        <pt x="610" y="369" on="0"/>
        <pt x="559" y="393" on="0"/>
        <pt x="529" y="393" on="1"/>
        <pt x="466" y="393" on="0"/>
        <pt x="379" y="286" on="0"/>
        <pt x="379" y="210" on="1"/>
        <pt x="379" y="146" on="0"/>
        <pt x="463" y="55" on="0"/>
        <pt x="524" y="55" on="1"/>
      </contour>
    </TTGlyph>
    <TTGlyph name="backslash" xMin="92" yMin="-184" xMax="638" yMax="704">
      <contour>
        <pt x="638" y="-148" on="1"/>
        <pt x="584" y="-184" on="1"/>
        <pt x="92" y="668" on="1"/>
        <pt x="146" y="704" on="1"/>
        <pt x="638" y="-148" on="1"/>
      </contour>
    </TTGlyph>
    <TTGlyph name="bar" xMin="92" yMin="-74" xMax="166" yMax="565">
      <contour>
        <pt x="92" y="-74" on="1"/>
        <pt x="92" y="565" on="1"/>
        <pt x="166" y="565" on="1"/>
        <pt x="166" y="-74" on="1"/>
        <pt x="92" y="-74" on="1"/>
      </contour>
    </TTGlyph>
    <TTGlyph name="braceleft" xMin="92" yMin="-252" xMax="461" yMax="670">
      <contour>
        <pt x="92" y="227" on="1"/>
        <pt x="142" y="227" on="0"/>
        <pt x="215" y="288" on="0"/>
        <pt x="215" y="329" on="1"/>
        <pt x="215" y="449" on="1"/>
        <pt x="215" y="541" on="0"/>
        <pt x="359" y="670" on="0"/>
        <pt x="461" y="670" on="1"/>
        <pt x="461" y="638" on="1"/>
        <pt x="385" y="638" on="0"/>
        <pt x="277" y="527" on="0"/>
        <pt x="277" y="449" on="1"/>
        <pt x="277" y="347" on="1"/>
        <pt x="277" y="290" on="0"/>
        <pt x="204" y="209" on="0"/>
        <pt x="154" y="209" on="1"/>
        <pt x="204" y="209" on="0"/>
        <pt x="277" y="128" on="0"/>
        <pt x="277" y="71" on="1"/>
        <pt x="277" y="-31" on="1"/>
        <pt x="277" y="-110" on="0"/>
        <pt x="385" y="-220" on="0"/>
        <pt x="461" y="-220" on="1"/>
        <pt x="461" y="-252" on="1"/>
        <pt x="359" y="-252" on="0"/>
        <pt x="215" y="-123" on="0"/>
        <pt x="215" y="-31" on="1"/>
        <pt x="215" y="89" on="1"/>
        <pt x="215" y="131" on="0"/>
        <pt x="143" y="191" on="0"/>
        <pt x="92" y="191" on="1"/>
        <pt x="92" y="227" on="1"/>
      </contour>
    </TTGlyph>
    <TTGlyph name="braceright" xMin="92" yMin="-252" xMax="461" yMax="670">
      <contour>
        <pt x="461" y="227" on="1"/>
        <pt x="461" y="191" on="1"/>
        <pt x="411" y="191" on="0"/>
        <pt x="338" y="130" on="0"/>
        <pt x="338" y="89" on="1"/>
        <pt x="338" y="-31" on="1"/>
        <pt x="338" y="-123" on="0"/>
        <pt x="194" y="-252" on="0"/>
        <pt x="92" y="-252" on="1"/>
        <pt x="92" y="-220" on="1"/>
        <pt x="168" y="-220" on="0"/>
        <pt x="277" y="-109" on="0"/>
        <pt x="277" y="-31" on="1"/>
        <pt x="277" y="71" on="1"/>
        <pt x="277" y="128" on="0"/>
        <pt x="349" y="209" on="0"/>
        <pt x="400" y="209" on="1"/>
        <pt x="350" y="209" on="0"/>
        <pt x="277" y="290" on="0"/>
        <pt x="277" y="347" on="1"/>
        <pt x="277" y="449" on="1"/>
        <pt x="277" y="528" on="0"/>
        <pt x="168" y="638" on="0"/>
        <pt x="92" y="638" on="1"/>
        <pt x="92" y="670" on="1"/>
        <pt x="194" y="670" on="0"/>
        <pt x="338" y="541" on="0"/>
        <pt x="338" y="449" on="1"/>
        <pt x="338" y="329" on="1"/>
        <pt x="338" y="287" on="0"/>
        <pt x="411" y="227" on="0"/>
        <pt x="461" y="227" on="1"/>
      </contour>
    </TTGlyph>
    <TTGlyph name="bracketleft" xMin="92" yMin="-182" xMax="393" yMax="656">
      <contour>
        <pt x="92" y="-182" on="1"/>
        <pt x="92" y="656" on="1"/>
        <pt x="393" y="656" on="1"/>
        <pt x="393" y="607" on="1"/>
        <pt x="159" y="607" on="1"/>
        <pt x="159" y="-130" on="1"/>
        <pt x="393" y="-130" on="1"/>
        <pt x="393" y="-182" on="1"/>
        <pt x="92" y="-182" on="1"/>
      </contour>
    </TTGlyph>
    <TTGlyph name="bracketright" xMin="92" yMin="-207" xMax="393" yMax="632">
      <contour>
        <pt x="92" y="-207" on="1"/>
        <pt x="92" y="-155" on="1"/>
        <pt x="333" y="-155" on="1"/>
        <pt x="333" y="583" on="1"/>
        <pt x="92" y="583" on="1"/>
        <pt x="92" y="632" on="1"/>
        <pt x="393" y="632" on="1"/>
        <pt x="393" y="-207" on="1"/>
        <pt x="92" y="-207" on="1"/>
      </contour>
    </TTGlyph>
    <TTGlyph name="cent" xMin="63" yMin="-104" xMax="519" yMax="669">
      <contour>
        <pt x="63" y="277" on="1"/>
        <pt x="63" y="402" on="0"/>
        <pt x="189" y="553" on="0"/>
        <pt x="294" y="553" on="1"/>
        <pt x="315" y="553" on="0"/>
        <pt x="352" y="549" on="0"/>
        <pt x="366" y="546" on="1"/>
        <pt x="417" y="669" on="1"/>
        <pt x="472" y="669" on="1"/>
        <pt x="416" y="524" on="1"/>
        <pt x="459" y="494" on="0"/>
        <pt x="511" y="414" on="0"/>
        <pt x="515" y="371" on="1"/>
        <pt x="452" y="371" on="1"/>
        <pt x="450" y="396" on="0"/>
        <pt x="420" y="449" on="0"/>
        <pt x="396" y="473" on="1"/>
        <pt x="236" y="59" on="1"/>
        <pt x="252" y="54" on="0"/>
        <pt x="282" y="49" on="0"/>
        <pt x="294" y="49" on="1"/>
        <pt x="364" y="49" on="0"/>
        <pt x="454" y="125" on="0"/>
        <pt x="460" y="189" on="1"/>
        <pt x="519" y="189" on="1"/>
        <pt x="512" y="102" on="0"/>
        <pt x="388" y="-2" on="0"/>
        <pt x="294" y="-2" on="1"/>
        <pt x="274" y="-2" on="0"/>
        <pt x="236" y="4" on="0"/>
        <pt x="216" y="9" on="1"/>
        <pt x="172" y="-104" on="1"/>
        <pt x="117" y="-104" on="1"/>
        <pt x="170" y="31" on="1"/>
        <pt x="120" y="68" on="0"/>
        <pt x="63" y="198" on="0"/>
        <pt x="63" y="277" on="1"/>
      </contour>
      <contour>
        <pt x="350" y="494" on="1"/>
        <pt x="330" y="498" on="0"/>
        <pt x="302" y="503" on="0"/>
        <pt x="294" y="503" on="1"/>
        <pt x="215" y="503" on="0"/>
        <pt x="122" y="379" on="0"/>
        <pt x="122" y="277" on="1"/>
        <pt x="122" y="220" on="0"/>
        <pt x="156" y="120" on="0"/>
        <pt x="188" y="84" on="1"/>
        <pt x="350" y="494" on="1"/>
      </contour>
    </TTGlyph>
    <TTGlyph name="colon" xMin="92" yMin="-12" xMax="191" yMax="467">
      <contour>
        <pt x="92" y="418" on="1"/>
        <pt x="92" y="439" on="0"/>
        <pt x="120" y="467" on="0"/>
        <pt x="141" y="467" on="1"/>
        <pt x="162" y="467" on="0"/>
        <pt x="191" y="439" on="0"/>
        <pt x="191" y="418" on="1"/>
        <pt x="191" y="397" on="0"/>
        <pt x="162" y="369" on="0"/>
        <pt x="141" y="369" on="1"/>
        <pt x="120" y="369" on="0"/>
        <pt x="92" y="397" on="0"/>
        <pt x="92" y="418" on="1"/>
      </contour>
      <contour>
        <pt x="92" y="37" on="1"/>
        <pt x="92" y="58" on="0"/>
        <pt x="120" y="86" on="0"/>
        <pt x="141" y="86" on="1"/>
        <pt x="162" y="86" on="0"/>
        <pt x="191" y="58" on="0"/>
        <pt x="191" y="37" on="1"/>
        <pt x="191" y="16" on="0"/>
        <pt x="162" y="-12" on="0"/>
        <pt x="141" y="-12" on="1"/>
        <pt x="120" y="-12" on="0"/>
        <pt x="92" y="16" on="0"/>
        <pt x="92" y="37" on="1"/>
      </contour>
    </TTGlyph>
    <TTGlyph name="comma" xMin="92" yMin="-123" xMax="191" yMax="86">
      <contour>
        <pt x="92" y="37" on="1"/>
        <pt x="92" y="58" on="0"/>
        <pt x="120" y="86" on="0"/>
        <pt x="141" y="86" on="1"/>
        <pt x="162" y="86" on="0"/>
        <pt x="191" y="36" on="0"/>
        <pt x="191" y="0" on="1"/>
        <pt x="191" y="-45" on="0"/>
        <pt x="135" y="-116" on="0"/>
        <pt x="92" y="-123" on="1"/>
        <pt x="92" y="-86" on="1"/>
        <pt x="115" y="-72" on="0"/>
        <pt x="141" y="-27" on="0"/>
        <pt x="141" y="0" on="1"/>
        <pt x="120" y="0" on="0"/>
        <pt x="92" y="22" on="0"/>
        <pt x="92" y="37" on="1"/>
      </contour>
    </TTGlyph>
    <TTGlyph name="divide" xMin="92" yMin="37" xMax="498" yMax="455">
      <contour>
        <pt x="246" y="86" on="1"/>
        <pt x="246" y="107" on="0"/>
        <pt x="274" y="135" on="0"/>
        <pt x="295" y="135" on="1"/>
        <pt x="316" y="135" on="0"/>
        <pt x="344" y="107" on="0"/>
        <pt x="344" y="86" on="1"/>
        <pt x="344" y="65" on="0"/>
        <pt x="316" y="37" on="0"/>
        <pt x="295" y="37" on="1"/>
        <pt x="274" y="37" on="0"/>
        <pt x="246" y="65" on="0"/>
        <pt x="246" y="86" on="1"/>
      </contour>
      <contour>
        <pt x="92" y="221" on="1"/>
        <pt x="92" y="270" on="1"/>
        <pt x="498" y="270" on="1"/>
        <pt x="498" y="221" on="1"/>
        <pt x="92" y="221" on="1"/>
      </contour>
      <contour>
        <pt x="246" y="406" on="1"/>
        <pt x="246" y="427" on="0"/>
        <pt x="274" y="455" on="0"/>
        <pt x="295" y="455" on="1"/>
        <pt x="316" y="455" on="0"/>
        <pt x="344" y="427" on="0"/>
        <pt x="344" y="406" on="1"/>
        <pt x="344" y="385" on="0"/>
        <pt x="316" y="356" on="0"/>
        <pt x="295" y="356" on="1"/>
        <pt x="274" y="356" on="0"/>
        <pt x="246" y="385" on="0"/>
        <pt x="246" y="406" on="1"/>
      </contour>
    </TTGlyph>
    <TTGlyph name="dollar" xMin="92" yMin="-57" xMax="477" yMax="666">
      <contour>
        <pt x="243" y="-57" on="1"/>
        <pt x="243" y="5" on="1"/>
        <pt x="209" y="5" on="0"/>
        <pt x="130" y="45" on="0"/>
        <pt x="92" y="84" on="1"/>
        <pt x="132" y="138" on="1"/>
        <pt x="153" y="108" on="0"/>
        <pt x="210" y="66" on="0"/>
        <pt x="243" y="58" on="1"/>
        <pt x="243" y="315" on="1"/>
        <pt x="174" y="347" on="0"/>
        <pt x="92" y="439" on="0"/>
        <pt x="92" y="483" on="1"/>
        <pt x="92" y="541" on="0"/>
        <pt x="181" y="623" on="0"/>
        <pt x="243" y="623" on="1"/>
        <pt x="243" y="666" on="1"/>
        <pt x="295" y="666" on="1"/>
        <pt x="295" y="623" on="1"/>
        <pt x="337" y="619" on="0"/>
        <pt x="409" y="584" on="0"/>
        <pt x="434" y="554" on="1"/>
        <pt x="402" y="510" on="1"/>
        <pt x="386" y="536" on="0"/>
        <pt x="328" y="564" on="0"/>
        <pt x="295" y="564" on="1"/>
        <pt x="295" y="365" on="1"/>
        <pt x="379" y="326" on="0"/>
        <pt x="477" y="209" on="0"/>
        <pt x="477" y="150" on="1"/>
        <pt x="477" y="90" on="0"/>
        <pt x="370" y="4" on="0"/>
        <pt x="295" y="4" on="1"/>
        <pt x="295" y="-57" on="1"/>
        <pt x="243" y="-57" on="1"/>
      </contour>
      <contour>
        <pt x="295" y="57" on="1"/>
        <pt x="343" y="53" on="0"/>
        <pt x="413" y="109" on="0"/>
        <pt x="413" y="151" on="1"/>
        <pt x="413" y="188" on="0"/>
        <pt x="350" y="266" on="0"/>
        <pt x="295" y="297" on="1"/>
        <pt x="295" y="57" on="1"/>
      </contour>
      <contour>
        <pt x="243" y="376" on="1"/>
        <pt x="243" y="565" on="1"/>
        <pt x="204" y="558" on="0"/>
        <pt x="154" y="513" on="0"/>
        <pt x="154" y="484" on="1"/>
        <pt x="154" y="453" on="0"/>
        <pt x="203" y="396" on="0"/>
        <pt x="243" y="376" on="1"/>
      </contour>
    </TTGlyph>
    <TTGlyph name="eight" xMin="61" yMin="-12" xMax="553" yMax="774">
      <contour>
        <pt x="61" y="209" on="1"/>
        <pt x="61" y="275" on="0"/>
        <pt x="135" y="384" on="0"/>
        <pt x="197" y="406" on="1"/>
        <pt x="152" y="432" on="0"/>
        <pt x="98" y="518" on="0"/>
        <pt x="98" y="565" on="1"/>
        <pt x="98" y="651" on="0"/>
        <pt x="221" y="774" on="0"/>
        <pt x="307" y="774" on="1"/>
        <pt x="393" y="774" on="0"/>
        <pt x="516" y="652" on="0"/>
        <pt x="516" y="565" on="1"/>
        <pt x="516" y="517" on="0"/>
        <pt x="463" y="431" on="0"/>
        <pt x="418" y="406" on="1"/>
        <pt x="479" y="384" on="0"/>
        <pt x="553" y="275" on="0"/>
        <pt x="553" y="209" on="1"/>
        <pt x="553" y="117" on="0"/>
        <pt x="409" y="-12" on="0"/>
        <pt x="307" y="-12" on="1"/>
        <pt x="205" y="-12" on="0"/>
        <pt x="61" y="117" on="0"/>
        <pt x="61" y="209" on="1"/>
      </contour>
      <contour>
        <pt x="123" y="209" on="1"/>
        <pt x="123" y="138" on="0"/>
        <pt x="231" y="37" on="0"/>
        <pt x="307" y="37" on="1"/>
        <pt x="383" y="37" on="0"/>
        <pt x="492" y="138" on="0"/>
        <pt x="492" y="209" on="1"/>
        <pt x="492" y="280" on="0"/>
        <pt x="384" y="381" on="0"/>
        <pt x="307" y="381" on="1"/>
        <pt x="231" y="381" on="0"/>
        <pt x="123" y="280" on="0"/>
        <pt x="123" y="209" on="1"/>
      </contour>
      <contour>
        <pt x="160" y="565" on="1"/>
        <pt x="160" y="508" on="0"/>
        <pt x="246" y="430" on="0"/>
        <pt x="307" y="430" on="1"/>
        <pt x="368" y="430" on="0"/>
        <pt x="455" y="509" on="0"/>
        <pt x="455" y="565" on="1"/>
        <pt x="455" y="631" on="0"/>
        <pt x="369" y="725" on="0"/>
        <pt x="307" y="725" on="1"/>
        <pt x="246" y="725" on="0"/>
        <pt x="160" y="632" on="0"/>
        <pt x="160" y="565" on="1"/>
      </contour>
    </TTGlyph>
    <TTGlyph name="ellipsis" xMin="92" yMin="0" xMax="883" yMax="61">
      <contour>
        <pt x="207" y="61" on="1"/>
        <pt x="207" y="0" on="1"/>
        <pt x="92" y="0" on="1"/>
        <pt x="92" y="61" on="1"/>
        <pt x="207" y="61" on="1"/>
      </contour>
      <contour>
        <pt x="545" y="61" on="1"/>
        <pt x="545" y="0" on="1"/>
        <pt x="430" y="0" on="1"/>
        <pt x="430" y="61" on="1"/>
        <pt x="545" y="61" on="1"/>
      </contour>
      <contour>
        <pt x="883" y="61" on="1"/>
        <pt x="883" y="0" on="1"/>
        <pt x="768" y="0" on="1"/>
        <pt x="768" y="61" on="1"/>
        <pt x="883" y="61" on="1"/>
      </contour>
    </TTGlyph>
    <TTGlyph name="emdash" xMin="0" yMin="246" xMax="1229" yMax="295">
      <contour>
        <pt x="0" y="246" on="1"/>
        <pt x="0" y="295" on="1"/>
        <pt x="1229" y="295" on="1"/>
        <pt x="1229" y="246" on="1"/>
        <pt x="0" y="246" on="1"/>
      </contour>
    </TTGlyph>
    <TTGlyph name="endash" xMin="0" yMin="246" xMax="553" yMax="295">
      <contour>
        <pt x="0" y="246" on="1"/>
        <pt x="0" y="295" on="1"/>
        <pt x="553" y="295" on="1"/>
        <pt x="553" y="246" on="1"/>
        <pt x="0" y="246" on="1"/>
      </contour>
    </TTGlyph>
    <TTGlyph name="equal" xMin="92" yMin="123" xMax="400" yMax="369">
      <contour>
        <pt x="92" y="369" on="1"/>
        <pt x="400" y="369" on="1"/>
        <pt x="400" y="320" on="1"/>
        <pt x="92" y="320" on="1"/>
        <pt x="92" y="369" on="1"/>
      </contour>
      <contour>
        <pt x="92" y="123" on="1"/>
        <pt x="92" y="172" on="1"/>
        <pt x="400" y="172" on="1"/>
        <pt x="400" y="123" on="1"/>
        <pt x="92" y="123" on="1"/>
      </contour>
    </TTGlyph>
    <TTGlyph name="exclam" xMin="92" yMin="-37" xMax="191" yMax="652">
      <contour>
        <pt x="92" y="12" on="1"/>
        <pt x="92" y="33" on="0"/>
        <pt x="120" y="61" on="0"/>
        <pt x="141" y="61" on="1"/>
        <pt x="162" y="61" on="0"/>
        <pt x="191" y="33" on="0"/>
        <pt x="191" y="12" on="1"/>
        <pt x="191" y="-9" on="0"/>
        <pt x="162" y="-37" on="0"/>
        <pt x="141" y="-37" on="1"/>
        <pt x="120" y="-37" on="0"/>
        <pt x="92" y="-9" on="0"/>
        <pt x="92" y="12" on="1"/>
      </contour>
      <contour>
        <pt x="92" y="578" on="1"/>
        <pt x="92" y="609" on="0"/>
        <pt x="120" y="652" on="0"/>
        <pt x="141" y="652" on="1"/>
        <pt x="162" y="652" on="0"/>
        <pt x="191" y="608" on="0"/>
        <pt x="191" y="578" on="1"/>
        <pt x="191" y="498" on="0"/>
        <pt x="154" y="178" on="0"/>
        <pt x="154" y="98" on="1"/>
        <pt x="129" y="98" on="1"/>
        <pt x="129" y="178" on="0"/>
        <pt x="92" y="498" on="0"/>
        <pt x="92" y="578" on="1"/>
      </contour>
    </TTGlyph>
    <TTGlyph name="five" xMin="74" yMin="-12" xMax="541" yMax="762">
      <contour>
        <pt x="74" y="148" on="1"/>
        <pt x="123" y="172" on="1"/>
        <pt x="145" y="111" on="0"/>
        <pt x="240" y="37" on="0"/>
        <pt x="295" y="37" on="1"/>
        <pt x="371" y="37" on="0"/>
        <pt x="479" y="160" on="0"/>
        <pt x="479" y="246" on="1"/>
        <pt x="479" y="332" on="0"/>
        <pt x="371" y="455" on="0"/>
        <pt x="295" y="455" on="1"/>
        <pt x="250" y="455" on="0"/>
        <pt x="160" y="407" on="0"/>
        <pt x="123" y="363" on="1"/>
        <pt x="74" y="381" on="1"/>
        <pt x="135" y="762" on="1"/>
        <pt x="529" y="762" on="1"/>
        <pt x="529" y="713" on="1"/>
        <pt x="184" y="713" on="1"/>
        <pt x="148" y="455" on="1"/>
        <pt x="184" y="485" on="0"/>
        <pt x="259" y="516" on="0"/>
        <pt x="295" y="516" on="1"/>
        <pt x="397" y="516" on="0"/>
        <pt x="541" y="358" on="0"/>
        <pt x="541" y="246" on="1"/>
        <pt x="541" y="139" on="0"/>
        <pt x="397" y="-12" on="0"/>
        <pt x="295" y="-12" on="1"/>
        <pt x="221" y="-12" on="0"/>
        <pt x="100" y="75" on="0"/>
        <pt x="74" y="148" on="1"/>
      </contour>
    </TTGlyph>
    <TTGlyph name="four" xMin="61" yMin="0" xMax="553" yMax="762">
      <contour>
        <pt x="61" y="172" on="1"/>
        <pt x="61" y="209" on="1"/>
        <pt x="381" y="762" on="1"/>
        <pt x="430" y="762" on="1"/>
        <pt x="430" y="221" on="1"/>
        <pt x="553" y="221" on="1"/>
        <pt x="553" y="172" on="1"/>
        <pt x="430" y="172" on="1"/>
        <pt x="430" y="49" on="1"/>
        <pt x="492" y="49" on="1"/>
        <pt x="492" y="0" on="1"/>
        <pt x="307" y="0" on="1"/>
        <pt x="307" y="49" on="1"/>
        <pt x="369" y="49" on="1"/>
        <pt x="369" y="172" on="1"/>
        <pt x="61" y="172" on="1"/>
      </contour>
      <contour>
        <pt x="135" y="221" on="1"/>
        <pt x="369" y="221" on="1"/>
        <pt x="369" y="627" on="1"/>
        <pt x="135" y="221" on="1"/>
      </contour>
    </TTGlyph>
    <TTGlyph name="glyph175" xMin="92" yMin="0" xMax="633" yMax="492">
      <contour>
        <pt x="92" y="0" on="1"/>
        <pt x="92" y="492" on="1"/>
        <pt x="633" y="492" on="1"/>
        <pt x="633" y="0" on="1"/>
        <pt x="92" y="0" on="1"/>
      </contour>
      <contour>
        <pt x="141" y="49" on="1"/>
        <pt x="584" y="49" on="1"/>
        <pt x="584" y="443" on="1"/>
        <pt x="141" y="443" on="1"/>
        <pt x="141" y="49" on="1"/>
      </contour>
    </TTGlyph>
    <TTGlyph name="glyph194" xMin="92" yMin="0" xMax="633" yMax="492">
      <contour>
        <pt x="92" y="0" on="1"/>
        <pt x="92" y="492" on="1"/>
        <pt x="633" y="492" on="1"/>
        <pt x="633" y="0" on="1"/>
        <pt x="92" y="0" on="1"/>
      </contour>
      <contour>
        <pt x="141" y="49" on="1"/>
        <pt x="584" y="49" on="1"/>
        <pt x="584" y="443" on="1"/>
        <pt x="141" y="443" on="1"/>
        <pt x="141" y="49" on="1"/>
      </contour>
    </TTGlyph>
    <TTGlyph name="grave" xMin="93" yMin="590" xMax="284" yMax="856">
      <contour>
        <pt x="284" y="608" on="1"/>
        <pt x="248" y="590" on="1"/>
        <pt x="101" y="784" on="1"/>
        <pt x="90" y="801" on="0"/>
        <pt x="97" y="842" on="0"/>
        <pt x="113" y="853" on="1"/>
        <pt x="131" y="865" on="0"/>
        <pt x="179" y="847" on="0"/>
        <pt x="192" y="821" on="1"/>
        <pt x="284" y="608" on="1"/>
      </contour>
    </TTGlyph>
    <TTGlyph name="greater" xMin="92" yMin="-74" xMax="585" yMax="520">
      <contour>
        <pt x="93" y="6" on="1"/>
        <pt x="511" y="219" on="1"/>
        <pt x="93" y="434" on="1"/>
        <pt x="93" y="520" on="1"/>
        <pt x="585" y="262" on="1"/>
        <pt x="585" y="170" on="1"/>
        <pt x="92" y="-74" on="1"/>
        <pt x="93" y="6" on="1"/>
      </contour>
    </TTGlyph>
    <TTGlyph name="hyphen" xMin="92" yMin="246" xMax="400" yMax="295">
      <contour>
        <pt x="92" y="246" on="1"/>
        <pt x="92" y="295" on="1"/>
        <pt x="400" y="295" on="1"/>
        <pt x="400" y="246" on="1"/>
        <pt x="92" y="246" on="1"/>
      </contour>
    </TTGlyph>
    <TTGlyph name="less" xMin="92" yMin="-74" xMax="585" yMax="520">
      <contour>
        <pt x="584" y="6" on="1"/>
        <pt x="585" y="-74" on="1"/>
        <pt x="92" y="170" on="1"/>
        <pt x="92" y="262" on="1"/>
        <pt x="584" y="520" on="1"/>
        <pt x="584" y="434" on="1"/>
        <pt x="166" y="219" on="1"/>
        <pt x="584" y="6" on="1"/>
      </contour>
    </TTGlyph>
    <TTGlyph name="minus" xMin="92" yMin="246" xMax="400" yMax="295">
      <contour>
        <pt x="92" y="246" on="1"/>
        <pt x="92" y="295" on="1"/>
        <pt x="400" y="295" on="1"/>
        <pt x="400" y="246" on="1"/>
        <pt x="92" y="246" on="1"/>
      </contour>
    </TTGlyph>
    <TTGlyph name="multiply" xMin="92" yMin="73" xMax="440" yMax="420">
      <contour>
        <pt x="135" y="73" on="1"/>
        <pt x="92" y="116" on="1"/>
        <pt x="223" y="246" on="1"/>
        <pt x="92" y="376" on="1"/>
        <pt x="135" y="420" on="1"/>
        <pt x="266" y="290" on="1"/>
        <pt x="396" y="420" on="1"/>
        <pt x="440" y="376" on="1"/>
        <pt x="310" y="246" on="1"/>
        <pt x="440" y="116" on="1"/>
        <pt x="396" y="73" on="1"/>
        <pt x="266" y="203" on="1"/>
        <pt x="135" y="73" on="1"/>
      </contour>
    </TTGlyph>
    <TTGlyph name="nine" xMin="68" yMin="-12" xMax="547" yMax="774">
      <contour>
        <pt x="68" y="516" on="1"/>
        <pt x="68" y="623" on="0"/>
        <pt x="197" y="774" on="0"/>
        <pt x="289" y="774" on="1"/>
        <pt x="396" y="774" on="0"/>
        <pt x="547" y="545" on="0"/>
        <pt x="547" y="381" on="1"/>
        <pt x="547" y="218" on="0"/>
        <pt x="388" y="-12" on="0"/>
        <pt x="277" y="-12" on="1"/>
        <pt x="209" y="-12" on="0"/>
        <pt x="93" y="75" on="0"/>
        <pt x="68" y="148" on="1"/>
        <pt x="117" y="172" on="1"/>
        <pt x="139" y="111" on="0"/>
        <pt x="226" y="37" on="0"/>
        <pt x="277" y="37" on="1"/>
        <pt x="363" y="37" on="0"/>
        <pt x="486" y="238" on="0"/>
        <pt x="486" y="381" on="1"/>
        <pt x="456" y="329" on="0"/>
        <pt x="356" y="270" on="0"/>
        <pt x="301" y="270" on="1"/>
        <pt x="204" y="270" on="0"/>
        <pt x="68" y="414" on="0"/>
        <pt x="68" y="516" on="1"/>
      </contour>
      <contour>
        <pt x="129" y="516" on="1"/>
        <pt x="129" y="435" on="0"/>
        <pt x="230" y="320" on="0"/>
        <pt x="301" y="320" on="1"/>
        <pt x="348" y="320" on="0"/>
        <pt x="444" y="392" on="0"/>
        <pt x="479" y="455" on="1"/>
        <pt x="469" y="569" on="0"/>
        <pt x="360" y="725" on="0"/>
        <pt x="289" y="725" on="1"/>
        <pt x="223" y="725" on="0"/>
        <pt x="129" y="602" on="0"/>
        <pt x="129" y="516" on="1"/>
      </contour>
    </TTGlyph>
    <TTGlyph name="numbersign" xMin="92" yMin="-25" xMax="875" yMax="836">
      <contour>
        <pt x="182" y="-25" on="1"/>
        <pt x="218" y="141" on="1"/>
        <pt x="92" y="141" on="1"/>
        <pt x="102" y="215" on="1"/>
        <pt x="235" y="215" on="1"/>
        <pt x="311" y="547" on="1"/>
        <pt x="128" y="547" on="1"/>
        <pt x="138" y="621" on="1"/>
        <pt x="328" y="621" on="1"/>
        <pt x="379" y="836" on="1"/>
        <pt x="452" y="836" on="1"/>
        <pt x="402" y="621" on="1"/>
        <pt x="648" y="621" on="1"/>
        <pt x="698" y="836" on="1"/>
        <pt x="772" y="836" on="1"/>
        <pt x="722" y="621" on="1"/>
        <pt x="875" y="621" on="1"/>
        <pt x="865" y="547" on="1"/>
        <pt x="704" y="547" on="1"/>
        <pt x="628" y="215" on="1"/>
        <pt x="840" y="215" on="1"/>
        <pt x="830" y="141" on="1"/>
        <pt x="611" y="141" on="1"/>
        <pt x="575" y="-25" on="1"/>
        <pt x="502" y="-25" on="1"/>
        <pt x="537" y="141" on="1"/>
        <pt x="291" y="141" on="1"/>
        <pt x="256" y="-25" on="1"/>
        <pt x="182" y="-25" on="1"/>
      </contour>
      <contour>
        <pt x="385" y="547" on="1"/>
        <pt x="309" y="215" on="1"/>
        <pt x="554" y="215" on="1"/>
        <pt x="631" y="547" on="1"/>
        <pt x="385" y="547" on="1"/>
      </contour>
    </TTGlyph>
    <TTGlyph name="one" xMin="104" yMin="0" xMax="510" yMax="774">
      <contour>
        <pt x="104" y="0" on="1"/>
        <pt x="104" y="49" on="1"/>
        <pt x="277" y="49" on="1"/>
        <pt x="277" y="652" on="1"/>
        <pt x="241" y="622" on="0"/>
        <pt x="152" y="590" on="0"/>
        <pt x="104" y="590" on="1"/>
        <pt x="104" y="639" on="1"/>
        <pt x="165" y="639" on="0"/>
        <pt x="267" y="713" on="0"/>
        <pt x="289" y="774" on="1"/>
        <pt x="338" y="774" on="1"/>
        <pt x="338" y="49" on="1"/>
        <pt x="510" y="49" on="1"/>
        <pt x="510" y="0" on="1"/>
        <pt x="104" y="0" on="1"/>
      </contour>
    </TTGlyph>
    <TTGlyph name="parenleft" xMin="92" yMin="-270" xMax="338" yMax="762">
      <contour>
        <pt x="92" y="246" on="1"/>
        <pt x="92" y="400" on="0"/>
        <pt x="194" y="668" on="0"/>
        <pt x="289" y="762" on="1"/>
        <pt x="338" y="738" on="1"/>
        <pt x="249" y="649" on="0"/>
        <pt x="154" y="393" on="0"/>
        <pt x="154" y="246" on="1"/>
        <pt x="154" y="98" on="0"/>
        <pt x="250" y="-157" on="0"/>
        <pt x="338" y="-246" on="1"/>
        <pt x="289" y="-270" on="1"/>
        <pt x="194" y="-175" on="0"/>
        <pt x="92" y="92" on="0"/>
        <pt x="92" y="246" on="1"/>
      </contour>
    </TTGlyph>
    <TTGlyph name="parenright" xMin="92" yMin="-270" xMax="338" yMax="762">
      <contour>
        <pt x="92" y="-246" on="1"/>
        <pt x="187" y="-151" on="0"/>
        <pt x="289" y="104" on="0"/>
        <pt x="289" y="246" on="1"/>
        <pt x="289" y="387" on="0"/>
        <pt x="187" y="643" on="0"/>
        <pt x="92" y="738" on="1"/>
        <pt x="141" y="762" on="1"/>
        <pt x="236" y="667" on="0"/>
        <pt x="338" y="400" on="0"/>
        <pt x="338" y="246" on="1"/>
        <pt x="338" y="92" on="0"/>
        <pt x="236" y="-176" on="0"/>
        <pt x="141" y="-270" on="1"/>
        <pt x="92" y="-246" on="1"/>
      </contour>
    </TTGlyph>
    <TTGlyph name="percent" xMin="92" yMin="0" xMax="707" yMax="738">
      <contour>
        <pt x="92" y="0" on="1"/>
        <pt x="658" y="738" on="1"/>
        <pt x="707" y="738" on="1"/>
        <pt x="141" y="0" on="1"/>
        <pt x="92" y="0" on="1"/>
      </contour>
      <contour>
        <pt x="92" y="492" on="1"/>
        <pt x="92" y="615" on="1"/>
        <pt x="92" y="665" on="0"/>
        <pt x="165" y="738" on="0"/>
        <pt x="215" y="738" on="1"/>
        <pt x="277" y="738" on="1"/>
        <pt x="327" y="738" on="0"/>
        <pt x="400" y="665" on="0"/>
        <pt x="400" y="615" on="1"/>
        <pt x="400" y="492" on="1"/>
        <pt x="400" y="442" on="0"/>
        <pt x="327" y="369" on="0"/>
        <pt x="277" y="369" on="1"/>
        <pt x="215" y="369" on="1"/>
        <pt x="165" y="369" on="0"/>
        <pt x="92" y="441" on="0"/>
        <pt x="92" y="492" on="1"/>
      </contour>
      <contour>
        <pt x="154" y="492" on="1"/>
        <pt x="154" y="461" on="0"/>
        <pt x="189" y="418" on="0"/>
        <pt x="215" y="418" on="1"/>
        <pt x="277" y="418" on="1"/>
        <pt x="303" y="418" on="0"/>
        <pt x="338" y="461" on="0"/>
        <pt x="338" y="492" on="1"/>
        <pt x="338" y="615" on="1"/>
        <pt x="338" y="646" on="0"/>
        <pt x="302" y="688" on="0"/>
        <pt x="277" y="688" on="1"/>
        <pt x="215" y="688" on="1"/>
        <pt x="189" y="688" on="0"/>
        <pt x="154" y="645" on="0"/>
        <pt x="154" y="615" on="1"/>
        <pt x="154" y="492" on="1"/>
      </contour>
      <contour>
        <pt x="400" y="123" on="1"/>
        <pt x="400" y="246" on="1"/>
        <pt x="400" y="296" on="0"/>
        <pt x="472" y="369" on="0"/>
        <pt x="522" y="369" on="1"/>
        <pt x="584" y="369" on="1"/>
        <pt x="634" y="369" on="0"/>
        <pt x="707" y="296" on="0"/>
        <pt x="707" y="246" on="1"/>
        <pt x="707" y="123" on="1"/>
        <pt x="707" y="73" on="0"/>
        <pt x="634" y="0" on="0"/>
        <pt x="584" y="0" on="1"/>
        <pt x="522" y="0" on="1"/>
        <pt x="472" y="0" on="0"/>
        <pt x="400" y="73" on="0"/>
        <pt x="400" y="123" on="1"/>
      </contour>
      <contour>
        <pt x="461" y="123" on="1"/>
        <pt x="461" y="92" on="0"/>
        <pt x="497" y="49" on="0"/>
        <pt x="522" y="49" on="1"/>
        <pt x="584" y="49" on="1"/>
        <pt x="610" y="49" on="0"/>
        <pt x="645" y="92" on="0"/>
        <pt x="645" y="123" on="1"/>
        <pt x="645" y="246" on="1"/>
        <pt x="645" y="277" on="0"/>
        <pt x="610" y="320" on="0"/>
        <pt x="584" y="320" on="1"/>
        <pt x="522" y="320" on="1"/>
        <pt x="496" y="320" on="0"/>
        <pt x="461" y="277" on="0"/>
        <pt x="461" y="246" on="1"/>
        <pt x="461" y="123" on="1"/>
      </contour>
    </TTGlyph>
    <TTGlyph name="period" xMin="92" yMin="-12" xMax="191" yMax="86">
      <contour>
        <pt x="92" y="37" on="1"/>
        <pt x="92" y="58" on="0"/>
        <pt x="120" y="86" on="0"/>
        <pt x="141" y="86" on="1"/>
        <pt x="162" y="86" on="0"/>
        <pt x="191" y="58" on="0"/>
        <pt x="191" y="37" on="1"/>
        <pt x="191" y="16" on="0"/>
        <pt x="162" y="-12" on="0"/>
        <pt x="141" y="-12" on="1"/>
        <pt x="120" y="-12" on="0"/>
        <pt x="92" y="16" on="0"/>
        <pt x="92" y="37" on="1"/>
      </contour>
    </TTGlyph>
    <TTGlyph name="plus" xMin="92" yMin="61" xMax="522" yMax="430">
      <contour>
        <pt x="92" y="221" on="1"/>
        <pt x="92" y="270" on="1"/>
        <pt x="277" y="270" on="1"/>
        <pt x="277" y="430" on="1"/>
        <pt x="338" y="430" on="1"/>
        <pt x="338" y="270" on="1"/>
        <pt x="522" y="270" on="1"/>
        <pt x="522" y="221" on="1"/>
        <pt x="338" y="221" on="1"/>
        <pt x="338" y="61" on="1"/>
        <pt x="277" y="61" on="1"/>
        <pt x="277" y="221" on="1"/>
        <pt x="92" y="221" on="1"/>
      </contour>
    </TTGlyph>
    <TTGlyph name="question" xMin="92" yMin="-37" xMax="522" yMax="676">
      <contour>
        <pt x="252" y="12" on="1"/>
        <pt x="252" y="33" on="0"/>
        <pt x="280" y="61" on="0"/>
        <pt x="301" y="61" on="1"/>
        <pt x="322" y="61" on="0"/>
        <pt x="350" y="33" on="0"/>
        <pt x="350" y="12" on="1"/>
        <pt x="350" y="-9" on="0"/>
        <pt x="322" y="-37" on="0"/>
        <pt x="301" y="-37" on="1"/>
        <pt x="280" y="-37" on="0"/>
        <pt x="252" y="-9" on="0"/>
        <pt x="252" y="12" on="1"/>
      </contour>
      <contour>
        <pt x="92" y="455" on="1"/>
        <pt x="92" y="547" on="0"/>
        <pt x="215" y="676" on="0"/>
        <pt x="301" y="676" on="1"/>
        <pt x="393" y="676" on="0"/>
        <pt x="522" y="547" on="0"/>
        <pt x="522" y="455" on="1"/>
        <pt x="522" y="390" on="0"/>
        <pt x="462" y="289" on="0"/>
        <pt x="412" y="270" on="1"/>
        <pt x="376" y="256" on="0"/>
        <pt x="332" y="183" on="0"/>
        <pt x="332" y="135" on="1"/>
        <pt x="332" y="98" on="1"/>
        <pt x="270" y="98" on="1"/>
        <pt x="270" y="135" on="1"/>
        <pt x="270" y="198" on="0"/>
        <pt x="321" y="293" on="0"/>
        <pt x="363" y="307" on="1"/>
        <pt x="407" y="323" on="0"/>
        <pt x="461" y="404" on="0"/>
        <pt x="461" y="455" on="1"/>
        <pt x="461" y="526" on="0"/>
        <pt x="368" y="627" on="0"/>
        <pt x="301" y="627" on="1"/>
        <pt x="240" y="627" on="0"/>
        <pt x="154" y="526" on="0"/>
        <pt x="154" y="455" on="1"/>
        <pt x="92" y="455" on="1"/>
      </contour>
    </TTGlyph>
    <TTGlyph name="quotedbl" xMin="92" yMin="615" xMax="326" yMax="861">
      <contour>
        <pt x="92" y="615" on="1"/>
        <pt x="92" y="861" on="1"/>
        <pt x="172" y="861" on="1"/>
        <pt x="172" y="615" on="1"/>
        <pt x="92" y="615" on="1"/>
      </contour>
      <contour>
        <pt x="252" y="615" on="1"/>
        <pt x="252" y="861" on="1"/>
        <pt x="326" y="861" on="1"/>
        <pt x="326" y="615" on="1"/>
        <pt x="252" y="615" on="1"/>
      </contour>
    </TTGlyph>
    <TTGlyph name="quotedblleft" xMin="92" yMin="443" xMax="363" yMax="676">
      <contour>
        <pt x="92" y="516" on="1"/>
        <pt x="92" y="568" on="0"/>
        <pt x="139" y="653" on="0"/>
        <pt x="178" y="676" on="1"/>
        <pt x="197" y="645" on="1"/>
        <pt x="171" y="630" on="0"/>
        <pt x="141" y="574" on="0"/>
        <pt x="141" y="541" on="1"/>
        <pt x="162" y="541" on="0"/>
        <pt x="191" y="513" on="0"/>
        <pt x="191" y="492" on="1"/>
        <pt x="191" y="471" on="0"/>
        <pt x="165" y="443" on="0"/>
        <pt x="148" y="443" on="1"/>
        <pt x="125" y="443" on="0"/>
        <pt x="92" y="486" on="0"/>
        <pt x="92" y="516" on="1"/>
      </contour>
      <contour>
        <pt x="258" y="516" on="1"/>
        <pt x="258" y="568" on="0"/>
        <pt x="305" y="653" on="0"/>
        <pt x="344" y="676" on="1"/>
        <pt x="363" y="645" on="1"/>
        <pt x="337" y="630" on="0"/>
        <pt x="307" y="574" on="0"/>
        <pt x="307" y="541" on="1"/>
        <pt x="328" y="541" on="0"/>
        <pt x="356" y="513" on="0"/>
        <pt x="356" y="492" on="1"/>
        <pt x="356" y="471" on="0"/>
        <pt x="331" y="443" on="0"/>
        <pt x="313" y="443" on="1"/>
        <pt x="290" y="443" on="0"/>
        <pt x="258" y="486" on="0"/>
        <pt x="258" y="516" on="1"/>
      </contour>
    </TTGlyph>
    <TTGlyph name="quotedblright" xMin="92" yMin="443" xMax="344" yMax="664">
      <contour>
        <pt x="92" y="615" on="1"/>
        <pt x="92" y="636" on="0"/>
        <pt x="120" y="664" on="0"/>
        <pt x="141" y="664" on="1"/>
        <pt x="162" y="664" on="0"/>
        <pt x="191" y="613" on="0"/>
        <pt x="191" y="578" on="1"/>
        <pt x="191" y="539" on="0"/>
        <pt x="144" y="466" on="0"/>
        <pt x="104" y="443" on="1"/>
        <pt x="92" y="467" on="1"/>
        <pt x="115" y="481" on="0"/>
        <pt x="141" y="534" on="0"/>
        <pt x="141" y="565" on="1"/>
        <pt x="120" y="565" on="0"/>
        <pt x="92" y="594" on="0"/>
        <pt x="92" y="615" on="1"/>
      </contour>
      <contour>
        <pt x="246" y="615" on="1"/>
        <pt x="246" y="636" on="0"/>
        <pt x="274" y="664" on="0"/>
        <pt x="295" y="664" on="1"/>
        <pt x="316" y="664" on="0"/>
        <pt x="344" y="613" on="0"/>
        <pt x="344" y="578" on="1"/>
        <pt x="344" y="539" on="0"/>
        <pt x="297" y="466" on="0"/>
        <pt x="258" y="443" on="1"/>
        <pt x="246" y="467" on="1"/>
        <pt x="269" y="481" on="0"/>
        <pt x="295" y="534" on="0"/>
        <pt x="295" y="565" on="1"/>
        <pt x="274" y="565" on="0"/>
        <pt x="246" y="594" on="0"/>
        <pt x="246" y="615" on="1"/>
      </contour>
    </TTGlyph>
    <TTGlyph name="quoteleft" xMin="92" yMin="443" xMax="197" yMax="676">
      <contour>
        <pt x="92" y="516" on="1"/>
        <pt x="92" y="568" on="0"/>
        <pt x="139" y="653" on="0"/>
        <pt x="178" y="676" on="1"/>
        <pt x="197" y="645" on="1"/>
        <pt x="171" y="630" on="0"/>
        <pt x="141" y="574" on="0"/>
        <pt x="141" y="541" on="1"/>
        <pt x="162" y="541" on="0"/>
        <pt x="191" y="513" on="0"/>
        <pt x="191" y="492" on="1"/>
        <pt x="191" y="471" on="0"/>
        <pt x="165" y="443" on="0"/>
        <pt x="148" y="443" on="1"/>
        <pt x="125" y="443" on="0"/>
        <pt x="92" y="486" on="0"/>
        <pt x="92" y="516" on="1"/>
      </contour>
    </TTGlyph>
    <TTGlyph name="quoteright" xMin="92" yMin="443" xMax="191" yMax="664">
      <contour>
        <pt x="92" y="615" on="1"/>
        <pt x="92" y="636" on="0"/>
        <pt x="120" y="664" on="0"/>
        <pt x="141" y="664" on="1"/>
        <pt x="162" y="664" on="0"/>
        <pt x="191" y="613" on="0"/>
        <pt x="191" y="578" on="1"/>
        <pt x="191" y="539" on="0"/>
        <pt x="144" y="466" on="0"/>
        <pt x="104" y="443" on="1"/>
        <pt x="92" y="467" on="1"/>
        <pt x="115" y="481" on="0"/>
        <pt x="141" y="534" on="0"/>
        <pt x="141" y="565" on="1"/>
        <pt x="120" y="565" on="0"/>
        <pt x="92" y="594" on="0"/>
        <pt x="92" y="615" on="1"/>
      </contour>
    </TTGlyph>
    <TTGlyph name="quotesingle" xMin="92" yMin="615" xMax="172" yMax="861">
      <contour>
        <pt x="92" y="615" on="1"/>
        <pt x="92" y="861" on="1"/>
        <pt x="172" y="861" on="1"/>
        <pt x="172" y="615" on="1"/>
        <pt x="92" y="615" on="1"/>
      </contour>
    </TTGlyph>
    <TTGlyph name="semicolon" xMin="92" yMin="-123" xMax="191" yMax="467">
      <contour>
        <pt x="92" y="418" on="1"/>
        <pt x="92" y="439" on="0"/>
        <pt x="120" y="467" on="0"/>
        <pt x="141" y="467" on="1"/>
        <pt x="162" y="467" on="0"/>
        <pt x="191" y="439" on="0"/>
        <pt x="191" y="418" on="1"/>
        <pt x="191" y="397" on="0"/>
        <pt x="162" y="369" on="0"/>
        <pt x="141" y="369" on="1"/>
        <pt x="120" y="369" on="0"/>
        <pt x="92" y="397" on="0"/>
        <pt x="92" y="418" on="1"/>
      </contour>
      <contour>
        <pt x="92" y="37" on="1"/>
        <pt x="92" y="58" on="0"/>
        <pt x="120" y="86" on="0"/>
        <pt x="141" y="86" on="1"/>
        <pt x="162" y="86" on="0"/>
        <pt x="191" y="36" on="0"/>
        <pt x="191" y="0" on="1"/>
        <pt x="191" y="-45" on="0"/>
        <pt x="135" y="-116" on="0"/>
        <pt x="92" y="-123" on="1"/>
        <pt x="92" y="-86" on="1"/>
        <pt x="115" y="-72" on="0"/>
        <pt x="141" y="-27" on="0"/>
        <pt x="141" y="0" on="1"/>
        <pt x="120" y="0" on="0"/>
        <pt x="92" y="22" on="0"/>
        <pt x="92" y="37" on="1"/>
      </contour>
    </TTGlyph>
    <TTGlyph name="seven" xMin="82" yMin="0" xMax="531" yMax="762">
      <contour>
        <pt x="82" y="615" on="1"/>
        <pt x="82" y="762" on="1"/>
        <pt x="500" y="762" on="1"/>
        <pt x="531" y="701" on="1"/>
        <pt x="353" y="320" on="1"/>
        <pt x="322" y="267" on="0"/>
        <pt x="291" y="104" on="0"/>
        <pt x="291" y="0" on="1"/>
        <pt x="230" y="0" on="1"/>
        <pt x="230" y="107" on="0"/>
        <pt x="268" y="282" on="0"/>
        <pt x="304" y="344" on="1"/>
        <pt x="470" y="713" on="1"/>
        <pt x="144" y="713" on="1"/>
        <pt x="144" y="615" on="1"/>
        <pt x="82" y="615" on="1"/>
      </contour>
    </TTGlyph>
    <TTGlyph name="six" xMin="68" yMin="-12" xMax="547" yMax="774">
      <contour>
        <pt x="68" y="393" on="1"/>
        <pt x="68" y="550" on="0"/>
        <pt x="223" y="774" on="0"/>
        <pt x="332" y="774" on="1"/>
        <pt x="402" y="774" on="0"/>
        <pt x="521" y="687" on="0"/>
        <pt x="547" y="615" on="1"/>
        <pt x="498" y="596" on="1"/>
        <pt x="483" y="653" on="0"/>
        <pt x="390" y="725" on="0"/>
        <pt x="332" y="725" on="1"/>
        <pt x="248" y="725" on="0"/>
        <pt x="129" y="531" on="0"/>
        <pt x="129" y="393" on="1"/>
        <pt x="159" y="445" on="0"/>
        <pt x="258" y="504" on="0"/>
        <pt x="313" y="504" on="1"/>
        <pt x="410" y="504" on="0"/>
        <pt x="547" y="353" on="0"/>
        <pt x="547" y="246" on="1"/>
        <pt x="547" y="139" on="0"/>
        <pt x="411" y="-12" on="0"/>
        <pt x="313" y="-12" on="1"/>
        <pt x="201" y="-12" on="0"/>
        <pt x="68" y="209" on="0"/>
        <pt x="68" y="393" on="1"/>
      </contour>
      <contour>
        <pt x="129" y="320" on="1"/>
        <pt x="129" y="203" on="0"/>
        <pt x="237" y="37" on="0"/>
        <pt x="313" y="37" on="1"/>
        <pt x="384" y="37" on="0"/>
        <pt x="486" y="160" on="0"/>
        <pt x="486" y="246" on="1"/>
        <pt x="486" y="332" on="0"/>
        <pt x="385" y="455" on="0"/>
        <pt x="313" y="455" on="1"/>
        <pt x="264" y="455" on="0"/>
        <pt x="165" y="382" on="0"/>
        <pt x="129" y="320" on="1"/>
      </contour>
    </TTGlyph>
    <TTGlyph name="slash" xMin="92" yMin="-123" xMax="400" yMax="799">
      <contour>
        <pt x="92" y="-123" on="1"/>
        <pt x="338" y="799" on="1"/>
        <pt x="400" y="799" on="1"/>
        <pt x="154" y="-123" on="1"/>
        <pt x="92" y="-123" on="1"/>
      </contour>
    </TTGlyph>
    <TTGlyph name="three" xMin="61" yMin="-12" xMax="553" yMax="762">
      <contour>
        <pt x="61" y="234" on="1"/>
        <pt x="123" y="234" on="1"/>
        <pt x="137" y="154" on="0"/>
        <pt x="241" y="49" on="0"/>
        <pt x="307" y="49" on="1"/>
        <pt x="383" y="49" on="0"/>
        <pt x="492" y="157" on="0"/>
        <pt x="492" y="234" on="1"/>
        <pt x="492" y="305" on="0"/>
        <pt x="384" y="406" on="0"/>
        <pt x="307" y="406" on="1"/>
        <pt x="246" y="406" on="1"/>
        <pt x="246" y="443" on="1"/>
        <pt x="455" y="713" on="1"/>
        <pt x="61" y="713" on="1"/>
        <pt x="61" y="762" on="1"/>
        <pt x="504" y="762" on="1"/>
        <pt x="529" y="725" on="1"/>
        <pt x="332" y="455" on="1"/>
        <pt x="424" y="455" on="0"/>
        <pt x="553" y="326" on="0"/>
        <pt x="553" y="234" on="1"/>
        <pt x="553" y="132" on="0"/>
        <pt x="409" y="-12" on="0"/>
        <pt x="307" y="-12" on="1"/>
        <pt x="212" y="-12" on="0"/>
        <pt x="70" y="129" on="0"/>
        <pt x="61" y="234" on="1"/>
      </contour>
    </TTGlyph>
    <TTGlyph name="two" xMin="68" yMin="0" xMax="547" yMax="787">
      <contour>
        <pt x="68" y="0" on="1"/>
        <pt x="68" y="49" on="1"/>
        <pt x="68" y="123" on="0"/>
        <pt x="193" y="282" on="0"/>
        <pt x="301" y="344" on="1"/>
        <pt x="381" y="391" on="0"/>
        <pt x="473" y="519" on="0"/>
        <pt x="473" y="584" on="1"/>
        <pt x="473" y="648" on="0"/>
        <pt x="372" y="738" on="0"/>
        <pt x="301" y="738" on="1"/>
        <pt x="230" y="738" on="0"/>
        <pt x="129" y="629" on="0"/>
        <pt x="129" y="553" on="1"/>
        <pt x="129" y="532" on="0"/>
        <pt x="141" y="488" on="0"/>
        <pt x="154" y="467" on="1"/>
        <pt x="104" y="443" on="1"/>
        <pt x="86" y="475" on="0"/>
        <pt x="68" y="530" on="0"/>
        <pt x="68" y="553" on="1"/>
        <pt x="68" y="650" on="0"/>
        <pt x="204" y="787" on="0"/>
        <pt x="301" y="787" on="1"/>
        <pt x="398" y="787" on="0"/>
        <pt x="535" y="668" on="0"/>
        <pt x="535" y="584" on="1"/>
        <pt x="535" y="507" on="0"/>
        <pt x="409" y="345" on="0"/>
        <pt x="301" y="283" on="1"/>
        <pt x="221" y="236" on="0"/>
        <pt x="129" y="112" on="0"/>
        <pt x="129" y="49" on="1"/>
        <pt x="547" y="49" on="1"/>
        <pt x="547" y="0" on="1"/>
        <pt x="68" y="0" on="1"/>
      </contour>
    </TTGlyph>
    <TTGlyph name="u0B83" xMin="33" yMin="-12" xMax="771" yMax="799">
      <contour>
        <pt x="279" y="676" on="1"/>
        <pt x="279" y="726" on="0"/>
        <pt x="352" y="799" on="0"/>
        <pt x="402" y="799" on="1"/>
        <pt x="452" y="799" on="0"/>
        <pt x="525" y="727" on="0"/>
        <pt x="525" y="676" on="1"/>
        <pt x="525" y="626" on="0"/>
        <pt x="452" y="553" on="0"/>
        <pt x="402" y="553" on="1"/>
        <pt x="352" y="553" on="0"/>
        <pt x="279" y="626" on="0"/>
        <pt x="279" y="676" on="1"/>
      </contour>
      <contour>
        <pt x="328" y="676" on="1"/>
        <pt x="328" y="645" on="0"/>
        <pt x="371" y="602" on="0"/>
        <pt x="402" y="602" on="1"/>
        <pt x="433" y="602" on="0"/>
        <pt x="476" y="645" on="0"/>
        <pt x="476" y="676" on="1"/>
        <pt x="476" y="707" on="0"/>
        <pt x="433" y="750" on="0"/>
        <pt x="402" y="750" on="1"/>
        <pt x="371" y="750" on="0"/>
        <pt x="328" y="707" on="0"/>
        <pt x="328" y="676" on="1"/>
      </contour>
      <contour>
        <pt x="33" y="111" on="1"/>
        <pt x="33" y="161" on="0"/>
        <pt x="106" y="234" on="0"/>
        <pt x="156" y="234" on="1"/>
        <pt x="206" y="234" on="0"/>
        <pt x="279" y="161" on="0"/>
        <pt x="279" y="111" on="1"/>
        <pt x="279" y="61" on="0"/>
        <pt x="207" y="-12" on="0"/>
        <pt x="156" y="-12" on="1"/>
        <pt x="106" y="-12" on="0"/>
        <pt x="33" y="60" on="0"/>
        <pt x="33" y="111" on="1"/>
      </contour>
      <contour>
        <pt x="82" y="111" on="1"/>
        <pt x="82" y="80" on="0"/>
        <pt x="125" y="37" on="0"/>
        <pt x="156" y="37" on="1"/>
        <pt x="187" y="37" on="0"/>
        <pt x="230" y="80" on="0"/>
        <pt x="230" y="111" on="1"/>
        <pt x="230" y="142" on="0"/>
        <pt x="187" y="184" on="0"/>
        <pt x="156" y="184" on="1"/>
        <pt x="125" y="184" on="0"/>
        <pt x="82" y="141" on="0"/>
        <pt x="82" y="111" on="1"/>
      </contour>
      <contour>
        <pt x="525" y="111" on="1"/>
        <pt x="525" y="161" on="0"/>
        <pt x="597" y="234" on="0"/>
        <pt x="648" y="234" on="1"/>
        <pt x="698" y="234" on="0"/>
        <pt x="771" y="161" on="0"/>
        <pt x="771" y="111" on="1"/>
        <pt x="771" y="61" on="0"/>
        <pt x="698" y="-12" on="0"/>
        <pt x="648" y="-12" on="1"/>
        <pt x="598" y="-12" on="0"/>
        <pt x="525" y="60" on="0"/>
        <pt x="525" y="111" on="1"/>
      </contour>
      <contour>
        <pt x="574" y="111" on="1"/>
        <pt x="574" y="80" on="0"/>
        <pt x="617" y="37" on="0"/>
        <pt x="648" y="37" on="1"/>
        <pt x="679" y="37" on="0"/>
        <pt x="722" y="80" on="0"/>
        <pt x="722" y="111" on="1"/>
        <pt x="722" y="142" on="0"/>
        <pt x="679" y="184" on="0"/>
        <pt x="648" y="184" on="1"/>
        <pt x="617" y="184" on="0"/>
        <pt x="574" y="141" on="0"/>
        <pt x="574" y="111" on="1"/>
      </contour>
    </TTGlyph>
    <TTGlyph name="u0B85" xMin="26" yMin="-123" xMax="1046" yMax="504">
      <contour>
        <pt x="26" y="111" on="1"/>
        <pt x="26" y="142" on="0"/>
        <pt x="76" y="184" on="0"/>
        <pt x="112" y="184" on="1"/>
        <pt x="813" y="184" on="1"/>
        <pt x="819" y="201" on="0"/>
        <pt x="825" y="238" on="0"/>
        <pt x="825" y="258" on="1"/>
        <pt x="825" y="329" on="0"/>
        <pt x="724" y="441" on="0"/>
        <pt x="647" y="455" on="1"/>
        <pt x="668" y="438" on="0"/>
        <pt x="690" y="386" on="0"/>
        <pt x="690" y="356" on="1"/>
        <pt x="690" y="306" on="0"/>
        <pt x="611" y="234" on="0"/>
        <pt x="554" y="234" on="1"/>
        <pt x="504" y="234" on="0"/>
        <pt x="431" y="312" on="0"/>
        <pt x="431" y="369" on="1"/>
        <pt x="431" y="426" on="0"/>
        <pt x="532" y="504" on="0"/>
        <pt x="604" y="504" on="1"/>
        <pt x="721" y="504" on="0"/>
        <pt x="886" y="360" on="0"/>
        <pt x="886" y="258" on="1"/>
        <pt x="886" y="238" on="0"/>
        <pt x="880" y="202" on="0"/>
        <pt x="874" y="184" on="1"/>
        <pt x="985" y="184" on="1"/>
        <pt x="985" y="492" on="1"/>
        <pt x="1046" y="492" on="1"/>
        <pt x="1046" y="-123" on="1"/>
        <pt x="985" y="-123" on="1"/>
        <pt x="985" y="135" on="1"/>
        <pt x="862" y="135" on="1"/>
        <pt x="825" y="35" on="0"/>
        <pt x="606" y="-86" on="0"/>
        <pt x="462" y="-86" on="1"/>
        <pt x="367" y="-86" on="0"/>
        <pt x="183" y="-36" on="0"/>
        <pt x="100" y="12" on="1"/>
        <pt x="66" y="32" on="0"/>
        <pt x="26" y="85" on="0"/>
        <pt x="26" y="111" on="1"/>
      </contour>
      <contour>
        <pt x="481" y="356" on="1"/>
        <pt x="481" y="325" on="0"/>
        <pt x="527" y="283" on="0"/>
        <pt x="561" y="283" on="1"/>
        <pt x="594" y="283" on="0"/>
        <pt x="640" y="326" on="0"/>
        <pt x="640" y="356" on="1"/>
        <pt x="640" y="392" on="0"/>
        <pt x="594" y="443" on="0"/>
        <pt x="561" y="443" on="1"/>
        <pt x="528" y="443" on="0"/>
        <pt x="481" y="392" on="0"/>
        <pt x="481" y="356" on="1"/>
      </contour>
      <contour>
        <pt x="87" y="111" on="1"/>
        <pt x="87" y="105" on="0"/>
        <pt x="100" y="86" on="0"/>
        <pt x="112" y="74" on="1"/>
        <pt x="165" y="21" on="0"/>
        <pt x="344" y="-37" on="0"/>
        <pt x="456" y="-37" on="1"/>
        <pt x="583" y="-37" on="0"/>
        <pt x="772" y="58" on="0"/>
        <pt x="800" y="135" on="1"/>
        <pt x="112" y="135" on="1"/>
        <pt x="102" y="135" on="0"/>
        <pt x="87" y="120" on="0"/>
        <pt x="87" y="111" on="1"/>
      </contour>
    </TTGlyph>
    <TTGlyph name="u0B86" xMin="26" yMin="-295" xMax="1280" yMax="504">
      <contour>
        <pt x="26" y="123" on="1"/>
        <pt x="26" y="149" on="0"/>
        <pt x="69" y="184" on="0"/>
        <pt x="100" y="184" on="1"/>
        <pt x="813" y="184" on="1"/>
        <pt x="819" y="201" on="0"/>
        <pt x="825" y="238" on="0"/>
        <pt x="825" y="258" on="1"/>
        <pt x="825" y="329" on="0"/>
        <pt x="724" y="441" on="0"/>
        <pt x="647" y="455" on="1"/>
        <pt x="667" y="440" on="0"/>
        <pt x="690" y="388" on="0"/>
        <pt x="690" y="356" on="1"/>
        <pt x="690" y="306" on="0"/>
        <pt x="611" y="234" on="0"/>
        <pt x="554" y="234" on="1"/>
        <pt x="504" y="234" on="0"/>
        <pt x="431" y="312" on="0"/>
        <pt x="431" y="369" on="1"/>
        <pt x="431" y="426" on="0"/>
        <pt x="532" y="504" on="0"/>
        <pt x="604" y="504" on="1"/>
        <pt x="721" y="504" on="0"/>
        <pt x="886" y="360" on="0"/>
        <pt x="886" y="258" on="1"/>
        <pt x="886" y="238" on="0"/>
        <pt x="880" y="202" on="0"/>
        <pt x="874" y="184" on="1"/>
        <pt x="985" y="184" on="1"/>
        <pt x="985" y="492" on="1"/>
        <pt x="1046" y="492" on="1"/>
        <pt x="1046" y="74" on="1"/>
        <pt x="1066" y="97" on="0"/>
        <pt x="1124" y="123" on="0"/>
        <pt x="1157" y="123" on="1"/>
        <pt x="1207" y="123" on="0"/>
        <pt x="1280" y="44" on="0"/>
        <pt x="1280" y="-12" on="1"/>
        <pt x="1280" y="-129" on="0"/>
        <pt x="1042" y="-295" on="0"/>
        <pt x="874" y="-295" on="1"/>
        <pt x="777" y="-295" on="0"/>
        <pt x="640" y="-226" on="0"/>
        <pt x="640" y="-178" on="1"/>
        <pt x="640" y="-137" on="0"/>
        <pt x="727" y="-80" on="0"/>
        <pt x="788" y="-80" on="1"/>
        <pt x="826" y="-80" on="0"/>
        <pt x="897" y="-98" on="0"/>
        <pt x="929" y="-117" on="1"/>
        <pt x="892" y="-160" on="1"/>
        <pt x="866" y="-145" on="0"/>
        <pt x="813" y="-129" on="0"/>
        <pt x="788" y="-129" on="1"/>
        <pt x="752" y="-129" on="0"/>
        <pt x="702" y="-155" on="0"/>
        <pt x="702" y="-172" on="1"/>
        <pt x="702" y="-203" on="0"/>
        <pt x="810" y="-246" on="0"/>
        <pt x="886" y="-246" on="1"/>
        <pt x="1024" y="-246" on="0"/>
        <pt x="1218" y="-109" on="0"/>
        <pt x="1218" y="-12" on="1"/>
        <pt x="1218" y="21" on="0"/>
        <pt x="1175" y="68" on="0"/>
        <pt x="1144" y="68" on="1"/>
        <pt x="1113" y="68" on="0"/>
        <pt x="1060" y="21" on="0"/>
        <pt x="1046" y="-18" on="1"/>
        <pt x="1046" y="-160" on="1"/>
        <pt x="985" y="-160" on="1"/>
        <pt x="985" y="135" on="1"/>
        <pt x="862" y="135" on="1"/>
        <pt x="825" y="35" on="0"/>
        <pt x="606" y="-86" on="0"/>
        <pt x="462" y="-86" on="1"/>
        <pt x="367" y="-86" on="0"/>
        <pt x="183" y="-36" on="0"/>
        <pt x="100" y="12" on="1"/>
        <pt x="66" y="32" on="0"/>
        <pt x="26" y="91" on="0"/>
        <pt x="26" y="123" on="1"/>
      </contour>
      <contour>
        <pt x="481" y="356" on="1"/>
        <pt x="481" y="325" on="0"/>
        <pt x="527" y="283" on="0"/>
        <pt x="561" y="283" on="1"/>
        <pt x="594" y="283" on="0"/>
        <pt x="640" y="326" on="0"/>
        <pt x="640" y="356" on="1"/>
        <pt x="640" y="392" on="0"/>
        <pt x="594" y="443" on="0"/>
        <pt x="561" y="443" on="1"/>
        <pt x="528" y="443" on="0"/>
        <pt x="481" y="392" on="0"/>
        <pt x="481" y="356" on="1"/>
      </contour>
      <contour>
        <pt x="87" y="111" on="1"/>
        <pt x="87" y="105" on="0"/>
        <pt x="100" y="86" on="0"/>
        <pt x="112" y="74" on="1"/>
        <pt x="165" y="21" on="0"/>
        <pt x="344" y="-37" on="0"/>
        <pt x="456" y="-37" on="1"/>
        <pt x="583" y="-37" on="0"/>
        <pt x="772" y="58" on="0"/>
        <pt x="800" y="135" on="1"/>
        <pt x="112" y="135" on="1"/>
        <pt x="102" y="135" on="0"/>
        <pt x="87" y="120" on="0"/>
        <pt x="87" y="111" on="1"/>
      </contour>
    </TTGlyph>
    <TTGlyph name="u0B87" xMin="7" yMin="-307" xMax="905" yMax="799">
      <contour>
        <pt x="327" y="332" on="1"/>
        <pt x="327" y="296" on="0"/>
        <pt x="370" y="246" on="0"/>
        <pt x="401" y="246" on="1"/>
        <pt x="432" y="246" on="0"/>
        <pt x="475" y="296" on="0"/>
        <pt x="475" y="332" on="1"/>
        <pt x="475" y="368" on="0"/>
        <pt x="431" y="418" on="0"/>
        <pt x="401" y="418" on="1"/>
        <pt x="370" y="418" on="0"/>
        <pt x="327" y="368" on="0"/>
        <pt x="327" y="332" on="1"/>
      </contour>
      <contour>
        <pt x="7" y="-172" on="1"/>
        <pt x="7" y="-113" on="0"/>
        <pt x="87" y="-7" on="0"/>
        <pt x="155" y="25" on="1"/>
        <pt x="113" y="99" on="0"/>
        <pt x="69" y="261" on="0"/>
        <pt x="69" y="344" on="1"/>
        <pt x="69" y="532" on="0"/>
        <pt x="328" y="799" on="0"/>
        <pt x="511" y="799" on="1"/>
        <pt x="674" y="799" on="0"/>
        <pt x="905" y="554" on="0"/>
        <pt x="905" y="381" on="1"/>
        <pt x="905" y="0" on="1"/>
        <pt x="843" y="0" on="1"/>
        <pt x="843" y="381" on="1"/>
        <pt x="843" y="533" on="0"/>
        <pt x="649" y="750" on="0"/>
        <pt x="511" y="750" on="1"/>
        <pt x="354" y="750" on="0"/>
        <pt x="130" y="513" on="0"/>
        <pt x="130" y="344" on="1"/>
        <pt x="130" y="268" on="0"/>
        <pt x="168" y="124" on="0"/>
        <pt x="204" y="61" on="1"/>
        <pt x="257" y="92" on="0"/>
        <pt x="393" y="123" on="0"/>
        <pt x="475" y="123" on="1"/>
        <pt x="508" y="123" on="0"/>
        <pt x="577" y="111" on="0"/>
        <pt x="610" y="98" on="1"/>
        <pt x="619" y="132" on="0"/>
        <pt x="628" y="213" on="0"/>
        <pt x="628" y="258" on="1"/>
        <pt x="628" y="339" on="0"/>
        <pt x="538" y="455" on="0"/>
        <pt x="475" y="455" on="1"/>
        <pt x="438" y="455" on="1"/>
        <pt x="477" y="441" on="0"/>
        <pt x="524" y="374" on="0"/>
        <pt x="524" y="332" on="1"/>
        <pt x="524" y="275" on="0"/>
        <pt x="451" y="197" on="0"/>
        <pt x="401" y="197" on="1"/>
        <pt x="351" y="197" on="0"/>
        <pt x="278" y="275" on="0"/>
        <pt x="278" y="332" on="1"/>
        <pt x="278" y="403" on="0"/>
        <pt x="393" y="504" on="0"/>
        <pt x="475" y="504" on="1"/>
        <pt x="561" y="504" on="0"/>
        <pt x="683" y="360" on="0"/>
        <pt x="683" y="258" on="1"/>
        <pt x="683" y="206" on="0"/>
        <pt x="671" y="119" on="0"/>
        <pt x="659" y="86" on="1"/>
        <pt x="736" y="58" on="0"/>
        <pt x="831" y="-77" on="0"/>
        <pt x="831" y="-160" on="1"/>
        <pt x="831" y="-221" on="0"/>
        <pt x="730" y="-307" on="0"/>
        <pt x="659" y="-307" on="1"/>
        <pt x="590" y="-307" on="0"/>
        <pt x="462" y="-263" on="0"/>
        <pt x="413" y="-221" on="1"/>
        <pt x="364" y="-263" on="0"/>
        <pt x="224" y="-307" on="0"/>
        <pt x="143" y="-307" on="1"/>
        <pt x="86" y="-307" on="0"/>
        <pt x="7" y="-229" on="0"/>
        <pt x="7" y="-172" on="1"/>
      </contour>
      <contour>
        <pt x="69" y="-172" on="1"/>
        <pt x="69" y="-208" on="0"/>
        <pt x="112" y="-258" on="0"/>
        <pt x="143" y="-258" on="1"/>
        <pt x="201" y="-258" on="0"/>
        <pt x="311" y="-224" on="0"/>
        <pt x="358" y="-191" on="1"/>
        <pt x="295" y="-147" on="0"/>
        <pt x="205" y="-57" on="0"/>
        <pt x="179" y="-12" on="1"/>
        <pt x="129" y="-38" on="0"/>
        <pt x="69" y="-124" on="0"/>
        <pt x="69" y="-172" on="1"/>
      </contour>
      <contour>
        <pt x="241" y="12" on="1"/>
        <pt x="269" y="-37" on="0"/>
        <pt x="356" y="-122" on="0"/>
        <pt x="413" y="-154" on="1"/>
        <pt x="477" y="-109" on="0"/>
        <pt x="565" y="-5" on="0"/>
        <pt x="585" y="49" on="1"/>
        <pt x="552" y="61" on="0"/>
        <pt x="495" y="74" on="0"/>
        <pt x="475" y="74" on="1"/>
        <pt x="412" y="74" on="0"/>
        <pt x="294" y="43" on="0"/>
        <pt x="241" y="12" on="1"/>
      </contour>
      <contour>
        <pt x="462" y="-191" on="1"/>
        <pt x="520" y="-224" on="0"/>
        <pt x="620" y="-258" on="0"/>
        <pt x="659" y="-258" on="1"/>
        <pt x="704" y="-258" on="0"/>
        <pt x="770" y="-200" on="0"/>
        <pt x="770" y="-160" on="1"/>
        <pt x="770" y="-94" on="0"/>
        <pt x="696" y="15" on="0"/>
        <pt x="634" y="37" on="1"/>
        <pt x="608" y="-33" on="0"/>
        <pt x="521" y="-150" on="0"/>
        <pt x="462" y="-191" on="1"/>
      </contour>
    </TTGlyph>
    <TTGlyph name="u0B88" xMin="92" yMin="0" xMax="707" yMax="492">
      <contour>
        <pt x="92" y="492" on="1"/>
        <pt x="707" y="492" on="1"/>
        <pt x="707" y="443" on="1"/>
        <pt x="486" y="443" on="1"/>
        <pt x="486" y="0" on="1"/>
        <pt x="424" y="0" on="1"/>
        <pt x="424" y="443" on="1"/>
        <pt x="154" y="443" on="1"/>
        <pt x="154" y="0" on="1"/>
        <pt x="92" y="0" on="1"/>
        <pt x="92" y="492" on="1"/>
      </contour>
      <contour>
        <pt x="572" y="246" on="1"/>
        <pt x="572" y="267" on="0"/>
        <pt x="600" y="295" on="0"/>
        <pt x="621" y="295" on="1"/>
        <pt x="642" y="295" on="0"/>
        <pt x="670" y="267" on="0"/>
        <pt x="670" y="246" on="1"/>
        <pt x="670" y="225" on="0"/>
        <pt x="642" y="197" on="0"/>
        <pt x="621" y="197" on="1"/>
        <pt x="600" y="197" on="0"/>
        <pt x="572" y="225" on="0"/>
        <pt x="572" y="246" on="1"/>
      </contour>
      <contour>
        <pt x="240" y="246" on="1"/>
        <pt x="240" y="267" on="0"/>
        <pt x="268" y="295" on="0"/>
        <pt x="289" y="295" on="1"/>
        <pt x="310" y="295" on="0"/>
        <pt x="338" y="267" on="0"/>
        <pt x="338" y="246" on="1"/>
        <pt x="338" y="225" on="0"/>
        <pt x="310" y="197" on="0"/>
        <pt x="289" y="197" on="1"/>
        <pt x="268" y="197" on="0"/>
        <pt x="240" y="225" on="0"/>
        <pt x="240" y="246" on="1"/>
      </contour>
    </TTGlyph>
    <TTGlyph name="u0B89" xMin="59" yMin="0" xMax="920" yMax="504">
      <contour>
        <pt x="108" y="344" on="1"/>
        <pt x="108" y="318" on="0"/>
        <pt x="144" y="283" on="0"/>
        <pt x="170" y="283" on="1"/>
        <pt x="196" y="283" on="0"/>
        <pt x="231" y="318" on="0"/>
        <pt x="231" y="344" on="1"/>
        <pt x="231" y="375" on="0"/>
        <pt x="195" y="418" on="0"/>
        <pt x="170" y="418" on="1"/>
        <pt x="144" y="418" on="0"/>
        <pt x="108" y="375" on="0"/>
        <pt x="108" y="344" on="1"/>
      </contour>
      <contour>
        <pt x="59" y="356" on="1"/>
        <pt x="59" y="417" on="0"/>
        <pt x="182" y="504" on="0"/>
        <pt x="268" y="504" on="1"/>
        <pt x="370" y="504" on="0"/>
        <pt x="514" y="388" on="0"/>
        <pt x="514" y="307" on="1"/>
        <pt x="514" y="231" on="0"/>
        <pt x="391" y="123" on="0"/>
        <pt x="305" y="123" on="1"/>
        <pt x="170" y="123" on="1"/>
        <pt x="149" y="123" on="0"/>
        <pt x="120" y="101" on="0"/>
        <pt x="120" y="86" on="1"/>
        <pt x="120" y="71" on="0"/>
        <pt x="149" y="49" on="0"/>
        <pt x="170" y="49" on="1"/>
        <pt x="920" y="49" on="1"/>
        <pt x="920" y="0" on="1"/>
        <pt x="170" y="0" on="1"/>
        <pt x="125" y="0" on="0"/>
        <pt x="59" y="50" on="0"/>
        <pt x="59" y="86" on="1"/>
        <pt x="59" y="122" on="0"/>
        <pt x="124" y="172" on="0"/>
        <pt x="170" y="172" on="1"/>
        <pt x="305" y="172" on="1"/>
        <pt x="366" y="172" on="0"/>
        <pt x="452" y="251" on="0"/>
        <pt x="452" y="307" on="1"/>
        <pt x="452" y="368" on="0"/>
        <pt x="344" y="455" on="0"/>
        <pt x="268" y="455" on="1"/>
        <pt x="194" y="455" on="1"/>
        <pt x="233" y="441" on="0"/>
        <pt x="280" y="380" on="0"/>
        <pt x="280" y="344" on="1"/>
        <pt x="280" y="299" on="0"/>
        <pt x="215" y="234" on="0"/>
        <pt x="170" y="234" on="1"/>
        <pt x="125" y="234" on="0"/>
        <pt x="59" y="306" on="0"/>
        <pt x="59" y="356" on="1"/>
      </contour>
    </TTGlyph>
    <TTGlyph name="u0B8A" xMin="59" yMin="0" xMax="1276" yMax="504">
      <contour>
        <pt x="108" y="344" on="1"/>
        <pt x="108" y="318" on="0"/>
        <pt x="144" y="283" on="0"/>
        <pt x="170" y="283" on="1"/>
        <pt x="196" y="283" on="0"/>
        <pt x="231" y="318" on="0"/>
        <pt x="231" y="344" on="1"/>
        <pt x="231" y="375" on="0"/>
        <pt x="195" y="418" on="0"/>
        <pt x="170" y="418" on="1"/>
        <pt x="144" y="418" on="0"/>
        <pt x="108" y="375" on="0"/>
        <pt x="108" y="344" on="1"/>
      </contour>
      <contour>
        <pt x="661" y="209" on="1"/>
        <pt x="661" y="183" on="0"/>
        <pt x="704" y="148" on="0"/>
        <pt x="735" y="148" on="1"/>
        <pt x="761" y="148" on="0"/>
        <pt x="797" y="183" on="0"/>
        <pt x="797" y="209" on="1"/>
        <pt x="797" y="235" on="0"/>
        <pt x="761" y="270" on="0"/>
        <pt x="735" y="270" on="1"/>
        <pt x="704" y="270" on="0"/>
        <pt x="661" y="235" on="0"/>
        <pt x="661" y="209" on="1"/>
      </contour>
      <contour>
        <pt x="59" y="356" on="1"/>
        <pt x="59" y="417" on="0"/>
        <pt x="182" y="504" on="0"/>
        <pt x="268" y="504" on="1"/>
        <pt x="370" y="504" on="0"/>
        <pt x="514" y="388" on="0"/>
        <pt x="514" y="307" on="1"/>
        <pt x="514" y="231" on="0"/>
        <pt x="391" y="123" on="0"/>
        <pt x="305" y="123" on="1"/>
        <pt x="170" y="123" on="1"/>
        <pt x="149" y="123" on="0"/>
        <pt x="120" y="101" on="0"/>
        <pt x="120" y="86" on="1"/>
        <pt x="120" y="71" on="0"/>
        <pt x="149" y="49" on="0"/>
        <pt x="170" y="49" on="1"/>
        <pt x="1239" y="49" on="1"/>
        <pt x="1239" y="0" on="1"/>
        <pt x="170" y="0" on="1"/>
        <pt x="125" y="0" on="0"/>
        <pt x="59" y="50" on="0"/>
        <pt x="59" y="86" on="1"/>
        <pt x="59" y="122" on="0"/>
        <pt x="124" y="172" on="0"/>
        <pt x="170" y="172" on="1"/>
        <pt x="305" y="172" on="1"/>
        <pt x="366" y="172" on="0"/>
        <pt x="452" y="251" on="0"/>
        <pt x="452" y="307" on="1"/>
        <pt x="452" y="368" on="0"/>
        <pt x="344" y="455" on="0"/>
        <pt x="268" y="455" on="1"/>
        <pt x="194" y="455" on="1"/>
        <pt x="233" y="441" on="0"/>
        <pt x="280" y="380" on="0"/>
        <pt x="280" y="344" on="1"/>
        <pt x="280" y="299" on="0"/>
        <pt x="215" y="234" on="0"/>
        <pt x="170" y="234" on="1"/>
        <pt x="125" y="234" on="0"/>
        <pt x="59" y="306" on="0"/>
        <pt x="59" y="356" on="1"/>
      </contour>
      <contour>
        <pt x="588" y="295" on="1"/>
        <pt x="588" y="381" on="0"/>
        <pt x="703" y="504" on="0"/>
        <pt x="784" y="504" on="1"/>
        <pt x="823" y="504" on="0"/>
        <pt x="895" y="472" on="0"/>
        <pt x="920" y="443" on="1"/>
        <pt x="920" y="492" on="1"/>
        <pt x="1276" y="492" on="1"/>
        <pt x="1276" y="443" on="1"/>
        <pt x="1153" y="443" on="1"/>
        <pt x="1153" y="98" on="1"/>
        <pt x="1092" y="98" on="1"/>
        <pt x="1092" y="443" on="1"/>
        <pt x="981" y="443" on="1"/>
        <pt x="981" y="98" on="1"/>
        <pt x="920" y="98" on="1"/>
        <pt x="920" y="295" on="1"/>
        <pt x="920" y="361" on="0"/>
        <pt x="841" y="455" on="0"/>
        <pt x="784" y="455" on="1"/>
        <pt x="723" y="455" on="0"/>
        <pt x="637" y="361" on="0"/>
        <pt x="637" y="295" on="1"/>
        <pt x="637" y="258" on="1"/>
        <pt x="662" y="288" on="0"/>
        <pt x="713" y="320" on="0"/>
        <pt x="735" y="320" on="1"/>
        <pt x="780" y="320" on="0"/>
        <pt x="846" y="254" on="0"/>
        <pt x="846" y="209" on="1"/>
        <pt x="846" y="164" on="0"/>
        <pt x="773" y="98" on="0"/>
        <pt x="723" y="98" on="1"/>
        <pt x="666" y="98" on="0"/>
        <pt x="588" y="214" on="0"/>
        <pt x="588" y="295" on="1"/>
      </contour>
    </TTGlyph>
    <TTGlyph name="u0B8E" xMin="54" yMin="-12" xMax="792" yMax="492">
      <contour>
        <pt x="214" y="135" on="1"/>
        <pt x="214" y="94" on="0"/>
        <pt x="257" y="37" on="0"/>
        <pt x="288" y="37" on="1"/>
        <pt x="319" y="37" on="0"/>
        <pt x="361" y="95" on="0"/>
        <pt x="361" y="135" on="1"/>
        <pt x="361" y="171" on="0"/>
        <pt x="318" y="221" on="0"/>
        <pt x="288" y="221" on="1"/>
        <pt x="257" y="221" on="0"/>
        <pt x="214" y="171" on="0"/>
        <pt x="214" y="135" on="1"/>
      </contour>
      <contour>
        <pt x="558" y="443" on="1"/>
        <pt x="312" y="443" on="1"/>
        <pt x="226" y="443" on="0"/>
        <pt x="103" y="313" on="0"/>
        <pt x="103" y="221" on="1"/>
        <pt x="103" y="167" on="0"/>
        <pt x="156" y="75" on="0"/>
        <pt x="202" y="49" on="1"/>
        <pt x="184" y="70" on="0"/>
        <pt x="165" y="114" on="0"/>
        <pt x="165" y="135" on="1"/>
        <pt x="165" y="192" on="0"/>
        <pt x="237" y="270" on="0"/>
        <pt x="288" y="270" on="1"/>
        <pt x="345" y="270" on="0"/>
        <pt x="423" y="192" on="0"/>
        <pt x="423" y="135" on="1"/>
        <pt x="423" y="74" on="0"/>
        <pt x="329" y="-12" on="0"/>
        <pt x="263" y="-12" on="1"/>
        <pt x="177" y="-12" on="0"/>
        <pt x="54" y="124" on="0"/>
        <pt x="54" y="221" on="1"/>
        <pt x="54" y="333" on="0"/>
        <pt x="205" y="492" on="0"/>
        <pt x="312" y="492" on="1"/>
        <pt x="792" y="492" on="1"/>
        <pt x="792" y="443" on="1"/>
        <pt x="620" y="443" on="1"/>
        <pt x="620" y="0" on="1"/>
        <pt x="558" y="0" on="1"/>
        <pt x="558" y="443" on="1"/>
      </contour>
    </TTGlyph>
    <TTGlyph name="u0B8F" xMin="53" yMin="-184" xMax="790" yMax="492">
      <contour>
        <pt x="213" y="135" on="1"/>
        <pt x="213" y="94" on="0"/>
        <pt x="256" y="37" on="0"/>
        <pt x="286" y="37" on="1"/>
        <pt x="317" y="37" on="0"/>
        <pt x="360" y="95" on="0"/>
        <pt x="360" y="135" on="1"/>
        <pt x="360" y="171" on="0"/>
        <pt x="317" y="221" on="0"/>
        <pt x="286" y="221" on="1"/>
        <pt x="255" y="221" on="0"/>
        <pt x="213" y="171" on="0"/>
        <pt x="213" y="135" on="1"/>
      </contour>
      <contour>
        <pt x="557" y="443" on="1"/>
        <pt x="311" y="443" on="1"/>
        <pt x="225" y="443" on="0"/>
        <pt x="102" y="313" on="0"/>
        <pt x="102" y="221" on="1"/>
        <pt x="102" y="173" on="0"/>
        <pt x="154" y="81" on="0"/>
        <pt x="200" y="49" on="1"/>
        <pt x="182" y="70" on="0"/>
        <pt x="163" y="114" on="0"/>
        <pt x="163" y="135" on="1"/>
        <pt x="163" y="192" on="0"/>
        <pt x="236" y="270" on="0"/>
        <pt x="286" y="270" on="1"/>
        <pt x="343" y="270" on="0"/>
        <pt x="422" y="192" on="0"/>
        <pt x="422" y="135" on="1"/>
        <pt x="422" y="69" on="0"/>
        <pt x="338" y="-12" on="0"/>
        <pt x="268" y="-12" on="1"/>
        <pt x="179" y="-12" on="0"/>
        <pt x="53" y="124" on="0"/>
        <pt x="53" y="221" on="1"/>
        <pt x="53" y="333" on="0"/>
        <pt x="204" y="492" on="0"/>
        <pt x="311" y="492" on="1"/>
        <pt x="790" y="492" on="1"/>
        <pt x="790" y="443" on="1"/>
        <pt x="618" y="443" on="1"/>
        <pt x="618" y="0" on="1"/>
        <pt x="555" y="-23" on="0"/>
        <pt x="447" y="-118" on="0"/>
        <pt x="409" y="-184" on="1"/>
        <pt x="354" y="-148" on="1"/>
        <pt x="393" y="-80" on="0"/>
        <pt x="498" y="15" on="0"/>
        <pt x="557" y="37" on="1"/>
        <pt x="557" y="443" on="1"/>
      </contour>
    </TTGlyph>
    <TTGlyph name="u0B90" xMin="41" yMin="-283" xMax="772" yMax="504">
      <contour>
        <pt x="41" y="-74" on="1"/>
        <pt x="41" y="7" on="0"/>
        <pt x="149" y="123" on="0"/>
        <pt x="225" y="123" on="1"/>
        <pt x="532" y="123" on="1"/>
        <pt x="608" y="123" on="0"/>
        <pt x="717" y="216" on="0"/>
        <pt x="717" y="283" on="1"/>
        <pt x="717" y="354" on="0"/>
        <pt x="644" y="455" on="0"/>
        <pt x="594" y="455" on="1"/>
        <pt x="537" y="455" on="0"/>
        <pt x="459" y="382" on="0"/>
        <pt x="459" y="332" on="1"/>
        <pt x="459" y="172" on="1"/>
        <pt x="397" y="172" on="1"/>
        <pt x="397" y="332" on="1"/>
        <pt x="397" y="382" on="0"/>
        <pt x="311" y="455" on="0"/>
        <pt x="250" y="455" on="1"/>
        <pt x="203" y="455" on="0"/>
        <pt x="128" y="408" on="0"/>
        <pt x="114" y="369" on="1"/>
        <pt x="131" y="384" on="0"/>
        <pt x="177" y="400" on="0"/>
        <pt x="200" y="400" on="1"/>
        <pt x="245" y="400" on="0"/>
        <pt x="311" y="338" on="0"/>
        <pt x="311" y="295" on="1"/>
        <pt x="311" y="245" on="0"/>
        <pt x="238" y="172" on="0"/>
        <pt x="188" y="172" on="1"/>
        <pt x="131" y="172" on="0"/>
        <pt x="53" y="251" on="0"/>
        <pt x="53" y="307" on="1"/>
        <pt x="53" y="388" on="0"/>
        <pt x="168" y="504" on="0"/>
        <pt x="250" y="504" on="1"/>
        <pt x="308" y="504" on="0"/>
        <pt x="403" y="455" on="0"/>
        <pt x="428" y="412" on="1"/>
        <pt x="453" y="455" on="0"/>
        <pt x="541" y="504" on="0"/>
        <pt x="594" y="504" on="1"/>
        <pt x="668" y="504" on="0"/>
        <pt x="772" y="375" on="0"/>
        <pt x="772" y="283" on="1"/>
        <pt x="772" y="197" on="0"/>
        <pt x="632" y="74" on="0"/>
        <pt x="532" y="74" on="1"/>
        <pt x="225" y="74" on="1"/>
        <pt x="175" y="74" on="0"/>
        <pt x="102" y="-12" on="0"/>
        <pt x="102" y="-74" on="1"/>
        <pt x="102" y="-140" on="0"/>
        <pt x="181" y="-234" on="0"/>
        <pt x="237" y="-234" on="1"/>
        <pt x="303" y="-234" on="0"/>
        <pt x="397" y="-140" on="0"/>
        <pt x="397" y="-74" on="1"/>
        <pt x="397" y="12" on="1"/>
        <pt x="459" y="12" on="1"/>
        <pt x="459" y="-74" on="1"/>
        <pt x="459" y="-140" on="0"/>
        <pt x="537" y="-234" on="0"/>
        <pt x="594" y="-234" on="1"/>
        <pt x="644" y="-234" on="0"/>
        <pt x="717" y="-168" on="0"/>
        <pt x="717" y="-123" on="1"/>
        <pt x="717" y="-89" on="0"/>
        <pt x="677" y="-26" on="0"/>
        <pt x="643" y="-6" on="1"/>
        <pt x="668" y="43" on="1"/>
        <pt x="715" y="26" on="0"/>
        <pt x="772" y="-65" on="0"/>
        <pt x="772" y="-123" on="1"/>
        <pt x="772" y="-189" on="0"/>
        <pt x="675" y="-283" on="0"/>
        <pt x="606" y="-283" on="1"/>
        <pt x="543" y="-283" on="0"/>
        <pt x="445" y="-236" on="0"/>
        <pt x="422" y="-197" on="1"/>
        <pt x="399" y="-236" on="0"/>
        <pt x="300" y="-283" on="0"/>
        <pt x="237" y="-283" on="1"/>
        <pt x="156" y="-283" on="0"/>
        <pt x="41" y="-160" on="0"/>
        <pt x="41" y="-74" on="1"/>
      </contour>
      <contour>
        <pt x="102" y="295" on="1"/>
        <pt x="102" y="264" on="0"/>
        <pt x="152" y="221" on="0"/>
        <pt x="188" y="221" on="1"/>
        <pt x="219" y="221" on="0"/>
        <pt x="262" y="264" on="0"/>
        <pt x="262" y="295" on="1"/>
        <pt x="262" y="321" on="0"/>
        <pt x="219" y="356" on="0"/>
        <pt x="188" y="356" on="1"/>
        <pt x="152" y="356" on="0"/>
        <pt x="102" y="321" on="0"/>
        <pt x="102" y="295" on="1"/>
      </contour>
    </TTGlyph>
    <TTGlyph name="u0B92" xMin="49" yMin="-307" xMax="811" yMax="516">
      <contour>
        <pt x="49" y="184" on="1"/>
        <pt x="49" y="322" on="0"/>
        <pt x="266" y="516" on="0"/>
        <pt x="418" y="516" on="1"/>
        <pt x="581" y="516" on="0"/>
        <pt x="811" y="322" on="0"/>
        <pt x="811" y="184" on="1"/>
        <pt x="811" y="123" on="0"/>
        <pt x="725" y="37" on="0"/>
        <pt x="664" y="37" on="1"/>
        <pt x="607" y="37" on="0"/>
        <pt x="529" y="109" on="0"/>
        <pt x="529" y="160" on="1"/>
        <pt x="529" y="170" on="0"/>
        <pt x="545" y="208" on="0"/>
        <pt x="559" y="234" on="1"/>
        <pt x="522" y="213" on="0"/>
        <pt x="479" y="146" on="0"/>
        <pt x="479" y="111" on="1"/>
        <pt x="479" y="54" on="0"/>
        <pt x="580" y="-25" on="0"/>
        <pt x="652" y="-25" on="1"/>
        <pt x="787" y="-25" on="1"/>
        <pt x="787" y="-74" on="1"/>
        <pt x="602" y="-74" on="1"/>
        <pt x="576" y="-74" on="0"/>
        <pt x="527" y="-129" on="0"/>
        <pt x="516" y="-172" on="1"/>
        <pt x="500" y="-232" on="0"/>
        <pt x="397" y="-307" on="0"/>
        <pt x="332" y="-307" on="1"/>
        <pt x="266" y="-307" on="0"/>
        <pt x="172" y="-229" on="0"/>
        <pt x="172" y="-172" on="1"/>
        <pt x="172" y="-122" on="0"/>
        <pt x="237" y="-49" on="0"/>
        <pt x="283" y="-49" on="1"/>
        <pt x="283" y="-98" on="1"/>
        <pt x="257" y="-98" on="0"/>
        <pt x="221" y="-141" on="0"/>
        <pt x="221" y="-172" on="1"/>
        <pt x="221" y="-208" on="0"/>
        <pt x="286" y="-258" on="0"/>
        <pt x="332" y="-258" on="1"/>
        <pt x="376" y="-258" on="0"/>
        <pt x="445" y="-210" on="0"/>
        <pt x="455" y="-172" on="1"/>
        <pt x="467" y="-127" on="0"/>
        <pt x="519" y="-61" on="0"/>
        <pt x="553" y="-49" on="1"/>
        <pt x="498" y="-29" on="0"/>
        <pt x="430" y="59" on="0"/>
        <pt x="430" y="111" on="1"/>
        <pt x="430" y="182" on="0"/>
        <pt x="546" y="283" on="0"/>
        <pt x="627" y="283" on="1"/>
        <pt x="604" y="255" on="0"/>
        <pt x="578" y="191" on="0"/>
        <pt x="578" y="160" on="1"/>
        <pt x="578" y="129" on="0"/>
        <pt x="628" y="86" on="0"/>
        <pt x="664" y="86" on="1"/>
        <pt x="700" y="86" on="0"/>
        <pt x="750" y="144" on="0"/>
        <pt x="750" y="184" on="1"/>
        <pt x="750" y="301" on="0"/>
        <pt x="556" y="467" on="0"/>
        <pt x="418" y="467" on="1"/>
        <pt x="288" y="467" on="0"/>
        <pt x="104" y="301" on="0"/>
        <pt x="104" y="184" on="1"/>
        <pt x="104" y="177" on="0"/>
        <pt x="112" y="152" on="0"/>
        <pt x="123" y="123" on="1"/>
        <pt x="123" y="187" on="0"/>
        <pt x="188" y="277" on="0"/>
        <pt x="234" y="277" on="1"/>
        <pt x="284" y="277" on="0"/>
        <pt x="356" y="200" on="0"/>
        <pt x="356" y="148" on="1"/>
        <pt x="356" y="91" on="0"/>
        <pt x="284" y="12" on="0"/>
        <pt x="234" y="12" on="1"/>
        <pt x="158" y="12" on="0"/>
        <pt x="49" y="113" on="0"/>
        <pt x="49" y="184" on="1"/>
      </contour>
      <contour>
        <pt x="172" y="148" on="1"/>
        <pt x="172" y="112" on="0"/>
        <pt x="208" y="61" on="0"/>
        <pt x="234" y="61" on="1"/>
        <pt x="260" y="61" on="0"/>
        <pt x="295" y="112" on="0"/>
        <pt x="295" y="148" on="1"/>
        <pt x="295" y="179" on="0"/>
        <pt x="259" y="221" on="0"/>
        <pt x="234" y="221" on="1"/>
        <pt x="208" y="221" on="0"/>
        <pt x="172" y="178" on="0"/>
        <pt x="172" y="148" on="1"/>
      </contour>
    </TTGlyph>
    <TTGlyph name="u0B93" xMin="50" yMin="-307" xMax="813" yMax="516">
      <contour>
        <pt x="50" y="209" on="1"/>
        <pt x="50" y="337" on="0"/>
        <pt x="267" y="516" on="0"/>
        <pt x="419" y="516" on="1"/>
        <pt x="582" y="516" on="0"/>
        <pt x="813" y="322" on="0"/>
        <pt x="813" y="184" on="1"/>
        <pt x="813" y="123" on="0"/>
        <pt x="727" y="37" on="0"/>
        <pt x="665" y="37" on="1"/>
        <pt x="608" y="37" on="0"/>
        <pt x="530" y="109" on="0"/>
        <pt x="530" y="160" on="1"/>
        <pt x="530" y="170" on="0"/>
        <pt x="546" y="208" on="0"/>
        <pt x="561" y="234" on="1"/>
        <pt x="524" y="213" on="0"/>
        <pt x="481" y="146" on="0"/>
        <pt x="481" y="111" on="1"/>
        <pt x="481" y="54" on="0"/>
        <pt x="581" y="-25" on="0"/>
        <pt x="653" y="-25" on="1"/>
        <pt x="788" y="-25" on="1"/>
        <pt x="788" y="-74" on="1"/>
        <pt x="604" y="-74" on="1"/>
        <pt x="578" y="-74" on="0"/>
        <pt x="529" y="-129" on="0"/>
        <pt x="518" y="-172" on="1"/>
        <pt x="502" y="-232" on="0"/>
        <pt x="412" y="-307" on="0"/>
        <pt x="358" y="-307" on="1"/>
        <pt x="282" y="-307" on="0"/>
        <pt x="173" y="-229" on="0"/>
        <pt x="173" y="-172" on="1"/>
        <pt x="173" y="-122" on="0"/>
        <pt x="238" y="-49" on="0"/>
        <pt x="284" y="-49" on="1"/>
        <pt x="325" y="-49" on="0"/>
        <pt x="382" y="-107" on="0"/>
        <pt x="382" y="-148" on="1"/>
        <pt x="382" y="-189" on="0"/>
        <pt x="332" y="-246" on="0"/>
        <pt x="296" y="-246" on="1"/>
        <pt x="313" y="-252" on="0"/>
        <pt x="344" y="-258" on="0"/>
        <pt x="358" y="-258" on="1"/>
        <pt x="391" y="-258" on="0"/>
        <pt x="446" y="-210" on="0"/>
        <pt x="456" y="-172" on="1"/>
        <pt x="468" y="-127" on="0"/>
        <pt x="520" y="-61" on="0"/>
        <pt x="554" y="-49" on="1"/>
        <pt x="499" y="-29" on="0"/>
        <pt x="431" y="59" on="0"/>
        <pt x="431" y="111" on="1"/>
        <pt x="431" y="182" on="0"/>
        <pt x="547" y="283" on="0"/>
        <pt x="628" y="283" on="1"/>
        <pt x="605" y="255" on="0"/>
        <pt x="579" y="191" on="0"/>
        <pt x="579" y="160" on="1"/>
        <pt x="579" y="129" on="0"/>
        <pt x="629" y="86" on="0"/>
        <pt x="665" y="86" on="1"/>
        <pt x="701" y="86" on="0"/>
        <pt x="751" y="144" on="0"/>
        <pt x="751" y="184" on="1"/>
        <pt x="751" y="301" on="0"/>
        <pt x="557" y="467" on="0"/>
        <pt x="419" y="467" on="1"/>
        <pt x="286" y="467" on="0"/>
        <pt x="100" y="316" on="0"/>
        <pt x="100" y="209" on="1"/>
        <pt x="100" y="189" on="0"/>
        <pt x="106" y="152" on="0"/>
        <pt x="112" y="135" on="1"/>
        <pt x="112" y="194" on="0"/>
        <pt x="184" y="277" on="0"/>
        <pt x="235" y="277" on="1"/>
        <pt x="285" y="277" on="0"/>
        <pt x="358" y="200" on="0"/>
        <pt x="358" y="148" on="1"/>
        <pt x="358" y="91" on="0"/>
        <pt x="285" y="12" on="0"/>
        <pt x="235" y="12" on="1"/>
        <pt x="159" y="12" on="0"/>
        <pt x="50" y="128" on="0"/>
        <pt x="50" y="209" on="1"/>
      </contour>
      <contour>
        <pt x="173" y="148" on="1"/>
        <pt x="173" y="112" on="0"/>
        <pt x="209" y="61" on="0"/>
        <pt x="235" y="61" on="1"/>
        <pt x="261" y="61" on="0"/>
        <pt x="296" y="112" on="0"/>
        <pt x="296" y="148" on="1"/>
        <pt x="296" y="179" on="0"/>
        <pt x="261" y="221" on="0"/>
        <pt x="235" y="221" on="1"/>
        <pt x="209" y="221" on="0"/>
        <pt x="173" y="178" on="0"/>
        <pt x="173" y="148" on="1"/>
      </contour>
      <contour>
        <pt x="223" y="-172" on="1"/>
        <pt x="223" y="-187" on="0"/>
        <pt x="258" y="-209" on="0"/>
        <pt x="284" y="-209" on="1"/>
        <pt x="305" y="-209" on="0"/>
        <pt x="333" y="-173" on="0"/>
        <pt x="333" y="-148" on="1"/>
        <pt x="333" y="-127" on="0"/>
        <pt x="305" y="-98" on="0"/>
        <pt x="284" y="-98" on="1"/>
        <pt x="258" y="-98" on="0"/>
        <pt x="223" y="-141" on="0"/>
        <pt x="223" y="-172" on="1"/>
      </contour>
    </TTGlyph>
    <TTGlyph name="u0B94" xMin="49" yMin="-307" xMax="1739" yMax="516">
      <contour>
        <pt x="49" y="184" on="1"/>
        <pt x="49" y="322" on="0"/>
        <pt x="266" y="516" on="0"/>
        <pt x="418" y="516" on="1"/>
        <pt x="581" y="516" on="0"/>
        <pt x="811" y="322" on="0"/>
        <pt x="811" y="184" on="1"/>
        <pt x="811" y="123" on="0"/>
        <pt x="725" y="37" on="0"/>
        <pt x="664" y="37" on="1"/>
        <pt x="607" y="37" on="0"/>
        <pt x="529" y="109" on="0"/>
        <pt x="529" y="160" on="1"/>
        <pt x="529" y="170" on="0"/>
        <pt x="545" y="208" on="0"/>
        <pt x="559" y="234" on="1"/>
        <pt x="522" y="213" on="0"/>
        <pt x="479" y="146" on="0"/>
        <pt x="479" y="111" on="1"/>
        <pt x="479" y="54" on="0"/>
        <pt x="580" y="-25" on="0"/>
        <pt x="652" y="-25" on="1"/>
        <pt x="787" y="-25" on="1"/>
        <pt x="787" y="-74" on="1"/>
        <pt x="602" y="-74" on="1"/>
        <pt x="576" y="-74" on="0"/>
        <pt x="527" y="-129" on="0"/>
        <pt x="516" y="-172" on="1"/>
        <pt x="500" y="-232" on="0"/>
        <pt x="397" y="-307" on="0"/>
        <pt x="332" y="-307" on="1"/>
        <pt x="266" y="-307" on="0"/>
        <pt x="172" y="-229" on="0"/>
        <pt x="172" y="-172" on="1"/>
        <pt x="172" y="-122" on="0"/>
        <pt x="237" y="-49" on="0"/>
        <pt x="283" y="-49" on="1"/>
        <pt x="283" y="-98" on="1"/>
        <pt x="257" y="-98" on="0"/>
        <pt x="221" y="-141" on="0"/>
        <pt x="221" y="-172" on="1"/>
        <pt x="221" y="-208" on="0"/>
        <pt x="286" y="-258" on="0"/>
        <pt x="332" y="-258" on="1"/>
        <pt x="376" y="-258" on="0"/>
        <pt x="445" y="-210" on="0"/>
        <pt x="455" y="-172" on="1"/>
        <pt x="467" y="-127" on="0"/>
        <pt x="519" y="-61" on="0"/>
        <pt x="553" y="-49" on="1"/>
        <pt x="498" y="-29" on="0"/>
        <pt x="430" y="59" on="0"/>
        <pt x="430" y="111" on="1"/>
        <pt x="430" y="182" on="0"/>
        <pt x="546" y="283" on="0"/>
        <pt x="627" y="283" on="1"/>
        <pt x="604" y="255" on="0"/>
        <pt x="578" y="191" on="0"/>
        <pt x="578" y="160" on="1"/>
        <pt x="578" y="129" on="0"/>
        <pt x="628" y="86" on="0"/>
        <pt x="664" y="86" on="1"/>
        <pt x="700" y="86" on="0"/>
        <pt x="750" y="144" on="0"/>
        <pt x="750" y="184" on="1"/>
        <pt x="750" y="301" on="0"/>
        <pt x="556" y="467" on="0"/>
        <pt x="418" y="467" on="1"/>
        <pt x="288" y="467" on="0"/>
        <pt x="104" y="301" on="0"/>
        <pt x="104" y="184" on="1"/>
        <pt x="104" y="177" on="0"/>
        <pt x="112" y="152" on="0"/>
        <pt x="123" y="123" on="1"/>
        <pt x="123" y="187" on="0"/>
        <pt x="188" y="277" on="0"/>
        <pt x="234" y="277" on="1"/>
        <pt x="284" y="277" on="0"/>
        <pt x="356" y="200" on="0"/>
        <pt x="356" y="148" on="1"/>
        <pt x="356" y="91" on="0"/>
        <pt x="284" y="12" on="0"/>
        <pt x="234" y="12" on="1"/>
        <pt x="158" y="12" on="0"/>
        <pt x="49" y="113" on="0"/>
        <pt x="49" y="184" on="1"/>
      </contour>
      <contour>
        <pt x="172" y="148" on="1"/>
        <pt x="172" y="112" on="0"/>
        <pt x="208" y="61" on="0"/>
        <pt x="234" y="61" on="1"/>
        <pt x="260" y="61" on="0"/>
        <pt x="295" y="112" on="0"/>
        <pt x="295" y="148" on="1"/>
        <pt x="295" y="179" on="0"/>
        <pt x="259" y="221" on="0"/>
        <pt x="234" y="221" on="1"/>
        <pt x="208" y="221" on="0"/>
        <pt x="172" y="178" on="0"/>
        <pt x="172" y="148" on="1"/>
      </contour>
      <contour>
        <pt x="1026" y="148" on="1"/>
        <pt x="1026" y="107" on="0"/>
        <pt x="1069" y="49" on="0"/>
        <pt x="1100" y="49" on="1"/>
        <pt x="1131" y="49" on="0"/>
        <pt x="1174" y="107" on="0"/>
        <pt x="1174" y="148" on="1"/>
        <pt x="1174" y="184" on="0"/>
        <pt x="1131" y="234" on="0"/>
        <pt x="1100" y="234" on="1"/>
        <pt x="1069" y="234" on="0"/>
        <pt x="1026" y="183" on="0"/>
        <pt x="1026" y="148" on="1"/>
      </contour>
      <contour>
        <pt x="1309" y="492" on="1"/>
        <pt x="1739" y="492" on="1"/>
        <pt x="1739" y="443" on="1"/>
        <pt x="1604" y="443" on="1"/>
        <pt x="1604" y="0" on="1"/>
        <pt x="1543" y="0" on="1"/>
        <pt x="1543" y="443" on="1"/>
        <pt x="1358" y="443" on="1"/>
        <pt x="1358" y="0" on="1"/>
        <pt x="1297" y="0" on="1"/>
        <pt x="1297" y="246" on="1"/>
        <pt x="1297" y="332" on="0"/>
        <pt x="1189" y="455" on="0"/>
        <pt x="1113" y="455" on="1"/>
        <pt x="1037" y="455" on="0"/>
        <pt x="928" y="326" on="0"/>
        <pt x="928" y="234" on="1"/>
        <pt x="928" y="187" on="0"/>
        <pt x="966" y="103" on="0"/>
        <pt x="1002" y="74" on="1"/>
        <pt x="990" y="95" on="0"/>
        <pt x="977" y="133" on="0"/>
        <pt x="977" y="148" on="1"/>
        <pt x="977" y="205" on="0"/>
        <pt x="1050" y="283" on="0"/>
        <pt x="1100" y="283" on="1"/>
        <pt x="1150" y="283" on="0"/>
        <pt x="1223" y="204" on="0"/>
        <pt x="1223" y="148" on="1"/>
        <pt x="1223" y="82" on="0"/>
        <pt x="1137" y="-12" on="0"/>
        <pt x="1076" y="-12" on="1"/>
        <pt x="995" y="-12" on="0"/>
        <pt x="879" y="132" on="0"/>
        <pt x="879" y="234" on="1"/>
        <pt x="879" y="346" on="0"/>
        <pt x="1015" y="504" on="0"/>
        <pt x="1113" y="504" on="1"/>
        <pt x="1178" y="504" on="0"/>
        <pt x="1283" y="451" on="0"/>
        <pt x="1309" y="406" on="1"/>
        <pt x="1309" y="492" on="1"/>
      </contour>
    </TTGlyph>
    <TTGlyph name="u0B95" xMin="34" yMin="-12" xMax="612" yMax="492">
      <contour>
        <pt x="219" y="270" on="1"/>
        <pt x="342" y="270" on="1"/>
        <pt x="342" y="443" on="1"/>
        <pt x="219" y="443" on="1"/>
        <pt x="219" y="270" on="1"/>
      </contour>
      <contour>
        <pt x="96" y="160" on="1"/>
        <pt x="96" y="110" on="0"/>
        <pt x="175" y="37" on="0"/>
        <pt x="231" y="37" on="1"/>
        <pt x="276" y="37" on="0"/>
        <pt x="342" y="95" on="0"/>
        <pt x="342" y="135" on="1"/>
        <pt x="342" y="221" on="1"/>
        <pt x="157" y="221" on="1"/>
        <pt x="131" y="221" on="0"/>
        <pt x="96" y="186" on="0"/>
        <pt x="96" y="160" on="1"/>
      </contour>
      <contour>
        <pt x="157" y="492" on="1"/>
        <pt x="588" y="492" on="1"/>
        <pt x="588" y="443" on="1"/>
        <pt x="403" y="443" on="1"/>
        <pt x="403" y="270" on="1"/>
        <pt x="477" y="270" on="1"/>
        <pt x="534" y="270" on="0"/>
        <pt x="612" y="192" on="0"/>
        <pt x="612" y="135" on="1"/>
        <pt x="612" y="74" on="0"/>
        <pt x="540" y="-12" on="0"/>
        <pt x="489" y="-12" on="1"/>
        <pt x="475" y="-12" on="0"/>
        <pt x="445" y="-6" on="0"/>
        <pt x="428" y="0" on="1"/>
        <pt x="440" y="49" on="1"/>
        <pt x="451" y="43" on="0"/>
        <pt x="476" y="37" on="0"/>
        <pt x="489" y="37" on="1"/>
        <pt x="515" y="37" on="0"/>
        <pt x="551" y="95" on="0"/>
        <pt x="551" y="135" on="1"/>
        <pt x="551" y="171" on="0"/>
        <pt x="508" y="221" on="0"/>
        <pt x="477" y="221" on="1"/>
        <pt x="403" y="221" on="1"/>
        <pt x="403" y="135" on="1"/>
        <pt x="403" y="74" on="0"/>
        <pt x="302" y="-12" on="0"/>
        <pt x="231" y="-12" on="1"/>
        <pt x="150" y="-12" on="0"/>
        <pt x="34" y="89" on="0"/>
        <pt x="34" y="160" on="1"/>
        <pt x="34" y="205" on="0"/>
        <pt x="107" y="270" on="0"/>
        <pt x="157" y="270" on="1"/>
        <pt x="157" y="492" on="1"/>
      </contour>
    </TTGlyph>
    <TTGlyph name="u0B95_u0BBF.abvs" xMin="34" yMin="-12" xMax="747" yMax="811">
      <contour>
        <pt x="219" y="270" on="1"/>
        <pt x="342" y="270" on="1"/>
        <pt x="342" y="443" on="1"/>
        <pt x="219" y="443" on="1"/>
        <pt x="219" y="270" on="1"/>
      </contour>
      <contour>
        <pt x="96" y="160" on="1"/>
        <pt x="96" y="110" on="0"/>
        <pt x="175" y="37" on="0"/>
        <pt x="231" y="37" on="1"/>
        <pt x="276" y="37" on="0"/>
        <pt x="342" y="95" on="0"/>
        <pt x="342" y="135" on="1"/>
        <pt x="342" y="221" on="1"/>
        <pt x="157" y="221" on="1"/>
        <pt x="131" y="221" on="0"/>
        <pt x="96" y="186" on="0"/>
        <pt x="96" y="160" on="1"/>
      </contour>
      <contour>
        <pt x="157" y="492" on="1"/>
        <pt x="354" y="492" on="1"/>
        <pt x="331" y="520" on="0"/>
        <pt x="305" y="590" on="0"/>
        <pt x="305" y="627" on="1"/>
        <pt x="305" y="703" on="0"/>
        <pt x="434" y="811" on="0"/>
        <pt x="526" y="811" on="1"/>
        <pt x="618" y="811" on="0"/>
        <pt x="747" y="675" on="0"/>
        <pt x="747" y="578" on="1"/>
        <pt x="747" y="0" on="1"/>
        <pt x="686" y="0" on="1"/>
        <pt x="686" y="578" on="1"/>
        <pt x="686" y="654" on="0"/>
        <pt x="593" y="762" on="0"/>
        <pt x="526" y="762" on="1"/>
        <pt x="460" y="762" on="0"/>
        <pt x="366" y="683" on="0"/>
        <pt x="366" y="627" on="1"/>
        <pt x="366" y="584" on="0"/>
        <pt x="406" y="511" on="0"/>
        <pt x="440" y="492" on="1"/>
        <pt x="588" y="492" on="1"/>
        <pt x="588" y="443" on="1"/>
        <pt x="403" y="443" on="1"/>
        <pt x="403" y="270" on="1"/>
        <pt x="477" y="270" on="1"/>
        <pt x="534" y="270" on="0"/>
        <pt x="612" y="192" on="0"/>
        <pt x="612" y="135" on="1"/>
        <pt x="612" y="74" on="0"/>
        <pt x="540" y="-12" on="0"/>
        <pt x="489" y="-12" on="1"/>
        <pt x="475" y="-12" on="0"/>
        <pt x="445" y="-6" on="0"/>
        <pt x="428" y="0" on="1"/>
        <pt x="440" y="49" on="1"/>
        <pt x="451" y="43" on="0"/>
        <pt x="476" y="37" on="0"/>
        <pt x="489" y="37" on="1"/>
        <pt x="515" y="37" on="0"/>
        <pt x="551" y="95" on="0"/>
        <pt x="551" y="135" on="1"/>
        <pt x="551" y="171" on="0"/>
        <pt x="508" y="221" on="0"/>
        <pt x="477" y="221" on="1"/>
        <pt x="403" y="221" on="1"/>
        <pt x="403" y="135" on="1"/>
        <pt x="403" y="74" on="0"/>
        <pt x="302" y="-12" on="0"/>
        <pt x="231" y="-12" on="1"/>
        <pt x="150" y="-12" on="0"/>
        <pt x="34" y="89" on="0"/>
        <pt x="34" y="160" on="1"/>
        <pt x="34" y="205" on="0"/>
        <pt x="107" y="270" on="0"/>
        <pt x="157" y="270" on="1"/>
        <pt x="157" y="492" on="1"/>
      </contour>
    </TTGlyph>
    <TTGlyph name="u0B95_u0BC0.abvs" xMin="34" yMin="-12" xMax="612" yMax="848">
      <contour>
        <pt x="219" y="270" on="1"/>
        <pt x="342" y="270" on="1"/>
        <pt x="342" y="443" on="1"/>
        <pt x="219" y="443" on="1"/>
        <pt x="219" y="270" on="1"/>
      </contour>
      <contour>
        <pt x="96" y="160" on="1"/>
        <pt x="96" y="110" on="0"/>
        <pt x="175" y="37" on="0"/>
        <pt x="231" y="37" on="1"/>
        <pt x="276" y="37" on="0"/>
        <pt x="342" y="95" on="0"/>
        <pt x="342" y="135" on="1"/>
        <pt x="342" y="221" on="1"/>
        <pt x="157" y="221" on="1"/>
        <pt x="131" y="221" on="0"/>
        <pt x="96" y="186" on="0"/>
        <pt x="96" y="160" on="1"/>
      </contour>
      <contour>
        <pt x="157" y="492" on="1"/>
        <pt x="329" y="492" on="1"/>
        <pt x="277" y="522" on="0"/>
        <pt x="219" y="621" on="0"/>
        <pt x="219" y="676" on="1"/>
        <pt x="219" y="747" on="0"/>
        <pt x="327" y="848" on="0"/>
        <pt x="403" y="848" on="1"/>
        <pt x="479" y="848" on="0"/>
        <pt x="588" y="770" on="0"/>
        <pt x="588" y="713" on="1"/>
        <pt x="588" y="663" on="0"/>
        <pt x="515" y="590" on="0"/>
        <pt x="465" y="590" on="1"/>
        <pt x="415" y="590" on="0"/>
        <pt x="342" y="663" on="0"/>
        <pt x="342" y="713" on="1"/>
        <pt x="342" y="740" on="0"/>
        <pt x="368" y="786" on="0"/>
        <pt x="391" y="799" on="1"/>
        <pt x="343" y="790" on="0"/>
        <pt x="280" y="720" on="0"/>
        <pt x="280" y="676" on="1"/>
        <pt x="280" y="627" on="0"/>
        <pt x="353" y="527" on="0"/>
        <pt x="416" y="492" on="1"/>
        <pt x="588" y="492" on="1"/>
        <pt x="588" y="443" on="1"/>
        <pt x="403" y="443" on="1"/>
        <pt x="403" y="270" on="1"/>
        <pt x="477" y="270" on="1"/>
        <pt x="534" y="270" on="0"/>
        <pt x="612" y="192" on="0"/>
        <pt x="612" y="135" on="1"/>
        <pt x="612" y="74" on="0"/>
        <pt x="540" y="-12" on="0"/>
        <pt x="489" y="-12" on="1"/>
        <pt x="475" y="-12" on="0"/>
        <pt x="445" y="-6" on="0"/>
        <pt x="428" y="0" on="1"/>
        <pt x="440" y="49" on="1"/>
        <pt x="451" y="43" on="0"/>
        <pt x="476" y="37" on="0"/>
        <pt x="489" y="37" on="1"/>
        <pt x="515" y="37" on="0"/>
        <pt x="551" y="95" on="0"/>
        <pt x="551" y="135" on="1"/>
        <pt x="551" y="171" on="0"/>
        <pt x="508" y="221" on="0"/>
        <pt x="477" y="221" on="1"/>
        <pt x="403" y="221" on="1"/>
        <pt x="403" y="135" on="1"/>
        <pt x="403" y="74" on="0"/>
        <pt x="302" y="-12" on="0"/>
        <pt x="231" y="-12" on="1"/>
        <pt x="150" y="-12" on="0"/>
        <pt x="34" y="89" on="0"/>
        <pt x="34" y="160" on="1"/>
        <pt x="34" y="205" on="0"/>
        <pt x="107" y="270" on="0"/>
        <pt x="157" y="270" on="1"/>
        <pt x="157" y="492" on="1"/>
      </contour>
      <contour>
        <pt x="403" y="713" on="1"/>
        <pt x="403" y="682" on="0"/>
        <pt x="439" y="639" on="0"/>
        <pt x="465" y="639" on="1"/>
        <pt x="491" y="639" on="0"/>
        <pt x="526" y="682" on="0"/>
        <pt x="526" y="713" on="1"/>
        <pt x="526" y="744" on="0"/>
        <pt x="490" y="787" on="0"/>
        <pt x="465" y="787" on="1"/>
        <pt x="439" y="787" on="0"/>
        <pt x="403" y="744" on="0"/>
        <pt x="403" y="713" on="1"/>
      </contour>
    </TTGlyph>
    <TTGlyph name="u0B95_u0BC1.blws" xMin="55" yMin="-320" xMax="867" yMax="504">
      <contour>
        <pt x="449" y="270" on="1"/>
        <pt x="572" y="270" on="1"/>
        <pt x="572" y="443" on="1"/>
        <pt x="449" y="443" on="1"/>
        <pt x="449" y="270" on="1"/>
      </contour>
      <contour>
        <pt x="326" y="160" on="1"/>
        <pt x="326" y="110" on="0"/>
        <pt x="404" y="37" on="0"/>
        <pt x="461" y="37" on="1"/>
        <pt x="506" y="37" on="0"/>
        <pt x="572" y="95" on="0"/>
        <pt x="572" y="135" on="1"/>
        <pt x="572" y="221" on="1"/>
        <pt x="387" y="221" on="1"/>
        <pt x="361" y="221" on="0"/>
        <pt x="326" y="186" on="0"/>
        <pt x="326" y="160" on="1"/>
      </contour>
      <contour>
        <pt x="55" y="98" on="1"/>
        <pt x="55" y="232" on="0"/>
        <pt x="186" y="452" on="0"/>
        <pt x="295" y="504" on="1"/>
        <pt x="326" y="455" on="1"/>
        <pt x="228" y="410" on="0"/>
        <pt x="111" y="215" on="0"/>
        <pt x="111" y="98" on="1"/>
        <pt x="111" y="-54" on="0"/>
        <pt x="316" y="-270" on="0"/>
        <pt x="461" y="-270" on="1"/>
        <pt x="604" y="-270" on="0"/>
        <pt x="805" y="-84" on="0"/>
        <pt x="805" y="49" on="1"/>
        <pt x="805" y="120" on="0"/>
        <pt x="727" y="221" on="0"/>
        <pt x="670" y="221" on="1"/>
        <pt x="633" y="221" on="1"/>
        <pt x="633" y="135" on="1"/>
        <pt x="633" y="74" on="0"/>
        <pt x="532" y="-12" on="0"/>
        <pt x="461" y="-12" on="1"/>
        <pt x="380" y="-12" on="0"/>
        <pt x="264" y="89" on="0"/>
        <pt x="264" y="160" on="1"/>
        <pt x="264" y="205" on="0"/>
        <pt x="337" y="270" on="0"/>
        <pt x="387" y="270" on="1"/>
        <pt x="387" y="492" on="1"/>
        <pt x="817" y="492" on="1"/>
        <pt x="817" y="443" on="1"/>
        <pt x="633" y="443" on="1"/>
        <pt x="633" y="270" on="1"/>
        <pt x="670" y="270" on="1"/>
        <pt x="751" y="270" on="0"/>
        <pt x="867" y="141" on="0"/>
        <pt x="867" y="49" on="1"/>
        <pt x="867" y="-103" on="0"/>
        <pt x="629" y="-320" on="0"/>
        <pt x="461" y="-320" on="1"/>
        <pt x="293" y="-320" on="0"/>
        <pt x="55" y="-75" on="0"/>
        <pt x="55" y="98" on="1"/>
      </contour>
    </TTGlyph>
    <TTGlyph name="u0B95_u0BC2.blws" xMin="34" yMin="-12" xMax="1018" yMax="492">
      <contour>
        <pt x="219" y="270" on="1"/>
        <pt x="342" y="270" on="1"/>
        <pt x="342" y="443" on="1"/>
        <pt x="219" y="443" on="1"/>
        <pt x="219" y="270" on="1"/>
      </contour>
      <contour>
        <pt x="96" y="160" on="1"/>
        <pt x="96" y="115" on="0"/>
        <pt x="175" y="49" on="0"/>
        <pt x="231" y="49" on="1"/>
        <pt x="276" y="49" on="0"/>
        <pt x="342" y="100" on="0"/>
        <pt x="342" y="135" on="1"/>
        <pt x="342" y="221" on="1"/>
        <pt x="157" y="221" on="1"/>
        <pt x="131" y="221" on="0"/>
        <pt x="96" y="186" on="0"/>
        <pt x="96" y="160" on="1"/>
      </contour>
      <contour>
        <pt x="526" y="123" on="1"/>
        <pt x="526" y="87" on="0"/>
        <pt x="554" y="37" on="0"/>
        <pt x="575" y="37" on="1"/>
        <pt x="596" y="37" on="0"/>
        <pt x="624" y="87" on="0"/>
        <pt x="624" y="123" on="1"/>
        <pt x="624" y="155" on="0"/>
        <pt x="584" y="209" on="0"/>
        <pt x="551" y="221" on="1"/>
        <pt x="539" y="200" on="0"/>
        <pt x="526" y="150" on="0"/>
        <pt x="526" y="123" on="1"/>
      </contour>
      <contour>
        <pt x="34" y="160" on="1"/>
        <pt x="34" y="205" on="0"/>
        <pt x="107" y="270" on="0"/>
        <pt x="157" y="270" on="1"/>
        <pt x="157" y="492" on="1"/>
        <pt x="600" y="492" on="1"/>
        <pt x="600" y="443" on="1"/>
        <pt x="403" y="443" on="1"/>
        <pt x="403" y="270" on="1"/>
        <pt x="526" y="270" on="1"/>
        <pt x="547" y="315" on="0"/>
        <pt x="634" y="369" on="0"/>
        <pt x="686" y="369" on="1"/>
        <pt x="757" y="369" on="0"/>
        <pt x="858" y="253" on="0"/>
        <pt x="858" y="172" on="1"/>
        <pt x="858" y="138" on="0"/>
        <pt x="836" y="74" on="0"/>
        <pt x="815" y="49" on="1"/>
        <pt x="1018" y="49" on="1"/>
        <pt x="1018" y="0" on="1"/>
        <pt x="747" y="0" on="1"/>
        <pt x="747" y="49" on="1"/>
        <pt x="770" y="77" on="0"/>
        <pt x="797" y="141" on="0"/>
        <pt x="797" y="172" on="1"/>
        <pt x="797" y="231" on="0"/>
        <pt x="731" y="313" on="0"/>
        <pt x="686" y="313" on="1"/>
        <pt x="649" y="313" on="0"/>
        <pt x="593" y="286" on="0"/>
        <pt x="581" y="264" on="1"/>
        <pt x="623" y="249" on="0"/>
        <pt x="674" y="171" on="0"/>
        <pt x="674" y="123" on="1"/>
        <pt x="674" y="66" on="0"/>
        <pt x="616" y="-12" on="0"/>
        <pt x="575" y="-12" on="1"/>
        <pt x="534" y="-12" on="0"/>
        <pt x="477" y="66" on="0"/>
        <pt x="477" y="123" on="1"/>
        <pt x="477" y="150" on="0"/>
        <pt x="489" y="200" on="0"/>
        <pt x="502" y="221" on="1"/>
        <pt x="403" y="221" on="1"/>
        <pt x="403" y="135" on="1"/>
        <pt x="403" y="74" on="0"/>
        <pt x="302" y="-12" on="0"/>
        <pt x="231" y="-12" on="1"/>
        <pt x="150" y="-12" on="0"/>
        <pt x="34" y="89" on="0"/>
        <pt x="34" y="160" on="1"/>
      </contour>
    </TTGlyph>
    <TTGlyph name="u0B95_u0BCD.half" xMin="34" yMin="-12" xMax="612" yMax="750">
      <contour>
        <pt x="219" y="270" on="1"/>
        <pt x="342" y="270" on="1"/>
        <pt x="342" y="443" on="1"/>
        <pt x="219" y="443" on="1"/>
        <pt x="219" y="270" on="1"/>
      </contour>
      <contour>
        <pt x="96" y="160" on="1"/>
        <pt x="96" y="110" on="0"/>
        <pt x="175" y="37" on="0"/>
        <pt x="231" y="37" on="1"/>
        <pt x="276" y="37" on="0"/>
        <pt x="342" y="95" on="0"/>
        <pt x="342" y="135" on="1"/>
        <pt x="342" y="221" on="1"/>
        <pt x="157" y="221" on="1"/>
        <pt x="131" y="221" on="0"/>
        <pt x="96" y="186" on="0"/>
        <pt x="96" y="160" on="1"/>
      </contour>
      <contour>
        <pt x="157" y="492" on="1"/>
        <pt x="588" y="492" on="1"/>
        <pt x="588" y="443" on="1"/>
        <pt x="403" y="443" on="1"/>
        <pt x="403" y="270" on="1"/>
        <pt x="477" y="270" on="1"/>
        <pt x="534" y="270" on="0"/>
        <pt x="612" y="192" on="0"/>
        <pt x="612" y="135" on="1"/>
        <pt x="612" y="74" on="0"/>
        <pt x="540" y="-12" on="0"/>
        <pt x="489" y="-12" on="1"/>
        <pt x="475" y="-12" on="0"/>
        <pt x="445" y="-6" on="0"/>
        <pt x="428" y="0" on="1"/>
        <pt x="440" y="49" on="1"/>
        <pt x="451" y="43" on="0"/>
        <pt x="476" y="37" on="0"/>
        <pt x="489" y="37" on="1"/>
        <pt x="515" y="37" on="0"/>
        <pt x="551" y="95" on="0"/>
        <pt x="551" y="135" on="1"/>
        <pt x="551" y="171" on="0"/>
        <pt x="508" y="221" on="0"/>
        <pt x="477" y="221" on="1"/>
        <pt x="403" y="221" on="1"/>
        <pt x="403" y="135" on="1"/>
        <pt x="403" y="74" on="0"/>
        <pt x="302" y="-12" on="0"/>
        <pt x="231" y="-12" on="1"/>
        <pt x="150" y="-12" on="0"/>
        <pt x="34" y="89" on="0"/>
        <pt x="34" y="160" on="1"/>
        <pt x="34" y="205" on="0"/>
        <pt x="107" y="270" on="0"/>
        <pt x="157" y="270" on="1"/>
        <pt x="157" y="492" on="1"/>
      </contour>
      <contour>
        <pt x="267" y="688" on="1"/>
        <pt x="267" y="714" on="0"/>
        <pt x="302" y="750" on="0"/>
        <pt x="328" y="750" on="1"/>
        <pt x="354" y="750" on="0"/>
        <pt x="390" y="714" on="0"/>
        <pt x="390" y="688" on="1"/>
        <pt x="390" y="662" on="0"/>
        <pt x="354" y="627" on="0"/>
        <pt x="328" y="627" on="1"/>
        <pt x="302" y="627" on="0"/>
        <pt x="267" y="663" on="0"/>
        <pt x="267" y="688" on="1"/>
      </contour>
    </TTGlyph>
    <TTGlyph name="u0B95_u0BCD_u0BB7.akhn" xMin="34" yMin="-295" xMax="1362" yMax="492">
      <contour>
        <pt x="219" y="270" on="1"/>
        <pt x="342" y="270" on="1"/>
        <pt x="342" y="443" on="1"/>
        <pt x="219" y="443" on="1"/>
        <pt x="219" y="270" on="1"/>
      </contour>
      <contour>
        <pt x="157" y="221" on="1"/>
        <pt x="131" y="221" on="0"/>
        <pt x="96" y="186" on="0"/>
        <pt x="96" y="160" on="1"/>
        <pt x="96" y="110" on="0"/>
        <pt x="175" y="37" on="0"/>
        <pt x="231" y="37" on="1"/>
        <pt x="276" y="37" on="0"/>
        <pt x="342" y="95" on="0"/>
        <pt x="342" y="135" on="1"/>
        <pt x="342" y="221" on="1"/>
        <pt x="157" y="221" on="1"/>
      </contour>
      <contour>
        <pt x="526" y="148" on="1"/>
        <pt x="526" y="103" on="0"/>
        <pt x="554" y="37" on="0"/>
        <pt x="575" y="37" on="1"/>
        <pt x="596" y="37" on="0"/>
        <pt x="624" y="80" on="0"/>
        <pt x="624" y="111" on="1"/>
        <pt x="624" y="153" on="0"/>
        <pt x="575" y="215" on="0"/>
        <pt x="538" y="221" on="1"/>
        <pt x="532" y="204" on="0"/>
        <pt x="526" y="167" on="0"/>
        <pt x="526" y="148" on="1"/>
      </contour>
      <contour>
        <pt x="969" y="320" on="1"/>
        <pt x="969" y="263" on="0"/>
        <pt x="1047" y="184" on="0"/>
        <pt x="1104" y="184" on="1"/>
        <pt x="1114" y="184" on="0"/>
        <pt x="1132" y="188" on="0"/>
        <pt x="1141" y="191" on="1"/>
        <pt x="1141" y="369" on="1"/>
        <pt x="1141" y="400" on="0"/>
        <pt x="1105" y="443" on="0"/>
        <pt x="1079" y="443" on="1"/>
        <pt x="1034" y="443" on="0"/>
        <pt x="969" y="370" on="0"/>
        <pt x="969" y="320" on="1"/>
      </contour>
      <contour>
        <pt x="1202" y="49" on="1"/>
        <pt x="1301" y="49" on="1"/>
        <pt x="1301" y="209" on="1"/>
        <pt x="1286" y="191" on="0"/>
        <pt x="1235" y="160" on="0"/>
        <pt x="1202" y="148" on="1"/>
        <pt x="1202" y="49" on="1"/>
      </contour>
      <contour>
        <pt x="34" y="160" on="1"/>
        <pt x="34" y="205" on="0"/>
        <pt x="107" y="270" on="0"/>
        <pt x="157" y="270" on="1"/>
        <pt x="157" y="492" on="1"/>
        <pt x="575" y="492" on="1"/>
        <pt x="575" y="443" on="1"/>
        <pt x="403" y="443" on="1"/>
        <pt x="403" y="270" on="1"/>
        <pt x="495" y="270" on="1"/>
        <pt x="518" y="309" on="0"/>
        <pt x="617" y="356" on="0"/>
        <pt x="680" y="356" on="1"/>
        <pt x="764" y="356" on="0"/>
        <pt x="883" y="241" on="0"/>
        <pt x="883" y="160" on="1"/>
        <pt x="883" y="139" on="0"/>
        <pt x="870" y="82" on="0"/>
        <pt x="858" y="49" on="1"/>
        <pt x="1141" y="49" on="1"/>
        <pt x="1141" y="135" on="1"/>
        <pt x="1137" y="134" on="0"/>
        <pt x="1114" y="135" on="0"/>
        <pt x="1104" y="135" on="1"/>
        <pt x="1023" y="135" on="0"/>
        <pt x="907" y="243" on="0"/>
        <pt x="907" y="320" on="1"/>
        <pt x="907" y="391" on="0"/>
        <pt x="1008" y="492" on="0"/>
        <pt x="1079" y="492" on="1"/>
        <pt x="1129" y="492" on="0"/>
        <pt x="1202" y="419" on="0"/>
        <pt x="1202" y="369" on="1"/>
        <pt x="1202" y="209" on="1"/>
        <pt x="1234" y="221" on="0"/>
        <pt x="1294" y="278" on="0"/>
        <pt x="1319" y="320" on="1"/>
        <pt x="1362" y="320" on="1"/>
        <pt x="1362" y="0" on="1"/>
        <pt x="1202" y="0" on="1"/>
        <pt x="1202" y="-295" on="1"/>
        <pt x="1141" y="-295" on="1"/>
        <pt x="1141" y="0" on="1"/>
        <pt x="772" y="0" on="1"/>
        <pt x="772" y="37" on="1"/>
        <pt x="795" y="65" on="0"/>
        <pt x="821" y="129" on="0"/>
        <pt x="821" y="160" on="1"/>
        <pt x="821" y="221" on="0"/>
        <pt x="735" y="307" on="0"/>
        <pt x="674" y="307" on="1"/>
        <pt x="648" y="307" on="0"/>
        <pt x="596" y="289" on="0"/>
        <pt x="575" y="270" on="1"/>
        <pt x="625" y="252" on="0"/>
        <pt x="686" y="165" on="0"/>
        <pt x="686" y="111" on="1"/>
        <pt x="686" y="61" on="0"/>
        <pt x="621" y="-12" on="0"/>
        <pt x="575" y="-12" on="1"/>
        <pt x="530" y="-12" on="0"/>
        <pt x="465" y="81" on="0"/>
        <pt x="465" y="148" on="1"/>
        <pt x="465" y="168" on="0"/>
        <pt x="471" y="204" on="0"/>
        <pt x="477" y="221" on="1"/>
        <pt x="403" y="221" on="1"/>
        <pt x="403" y="135" on="1"/>
        <pt x="403" y="74" on="0"/>
        <pt x="302" y="-12" on="0"/>
        <pt x="231" y="-12" on="1"/>
        <pt x="150" y="-12" on="0"/>
        <pt x="34" y="89" on="0"/>
        <pt x="34" y="160" on="1"/>
      </contour>
    </TTGlyph>
    <TTGlyph name="u0B95_u0BCD_u0BB7.akhn_u0BBF.abvs" xMin="34" yMin="-295" xMax="1522" yMax="799">
      <contour>
        <pt x="219" y="270" on="1"/>
        <pt x="342" y="270" on="1"/>
        <pt x="342" y="443" on="1"/>
        <pt x="219" y="443" on="1"/>
        <pt x="219" y="270" on="1"/>
      </contour>
      <contour>
        <pt x="157" y="221" on="1"/>
        <pt x="131" y="221" on="0"/>
        <pt x="96" y="186" on="0"/>
        <pt x="96" y="160" on="1"/>
        <pt x="96" y="110" on="0"/>
        <pt x="175" y="37" on="0"/>
        <pt x="231" y="37" on="1"/>
        <pt x="276" y="37" on="0"/>
        <pt x="342" y="95" on="0"/>
        <pt x="342" y="135" on="1"/>
        <pt x="342" y="221" on="1"/>
        <pt x="157" y="221" on="1"/>
      </contour>
      <contour>
        <pt x="526" y="148" on="1"/>
        <pt x="526" y="103" on="0"/>
        <pt x="554" y="37" on="0"/>
        <pt x="575" y="37" on="1"/>
        <pt x="596" y="37" on="0"/>
        <pt x="624" y="84" on="0"/>
        <pt x="624" y="117" on="1"/>
        <pt x="624" y="156" on="0"/>
        <pt x="575" y="215" on="0"/>
        <pt x="538" y="221" on="1"/>
        <pt x="532" y="204" on="0"/>
        <pt x="526" y="167" on="0"/>
        <pt x="526" y="148" on="1"/>
      </contour>
      <contour>
        <pt x="969" y="320" on="1"/>
        <pt x="969" y="263" on="0"/>
        <pt x="1047" y="184" on="0"/>
        <pt x="1104" y="184" on="1"/>
        <pt x="1114" y="184" on="0"/>
        <pt x="1132" y="188" on="0"/>
        <pt x="1141" y="191" on="1"/>
        <pt x="1141" y="369" on="1"/>
        <pt x="1141" y="400" on="0"/>
        <pt x="1105" y="443" on="0"/>
        <pt x="1079" y="443" on="1"/>
        <pt x="1034" y="443" on="0"/>
        <pt x="969" y="370" on="0"/>
        <pt x="969" y="320" on="1"/>
      </contour>
      <contour>
        <pt x="1202" y="49" on="1"/>
        <pt x="1301" y="49" on="1"/>
        <pt x="1301" y="209" on="1"/>
        <pt x="1286" y="191" on="0"/>
        <pt x="1235" y="160" on="0"/>
        <pt x="1202" y="148" on="1"/>
        <pt x="1202" y="49" on="1"/>
      </contour>
      <contour>
        <pt x="1092" y="498" on="1"/>
        <pt x="1062" y="523" on="0"/>
        <pt x="1030" y="584" on="0"/>
        <pt x="1030" y="615" on="1"/>
        <pt x="1030" y="691" on="0"/>
        <pt x="1167" y="799" on="0"/>
        <pt x="1264" y="799" on="1"/>
        <pt x="1371" y="799" on="0"/>
        <pt x="1522" y="663" on="0"/>
        <pt x="1522" y="565" on="1"/>
        <pt x="1522" y="0" on="1"/>
        <pt x="1460" y="0" on="1"/>
        <pt x="1460" y="565" on="1"/>
        <pt x="1460" y="646" on="0"/>
        <pt x="1345" y="762" on="0"/>
        <pt x="1264" y="762" on="1"/>
        <pt x="1193" y="762" on="0"/>
        <pt x="1092" y="676" on="0"/>
        <pt x="1092" y="615" on="1"/>
        <pt x="1092" y="568" on="0"/>
        <pt x="1202" y="416" on="0"/>
        <pt x="1202" y="369" on="1"/>
        <pt x="1202" y="209" on="1"/>
        <pt x="1234" y="221" on="0"/>
        <pt x="1294" y="278" on="0"/>
        <pt x="1319" y="320" on="1"/>
        <pt x="1362" y="320" on="1"/>
        <pt x="1362" y="0" on="1"/>
        <pt x="1202" y="0" on="1"/>
        <pt x="1202" y="-295" on="1"/>
        <pt x="1141" y="-295" on="1"/>
        <pt x="1141" y="0" on="1"/>
        <pt x="772" y="0" on="1"/>
        <pt x="772" y="37" on="1"/>
        <pt x="795" y="65" on="0"/>
        <pt x="821" y="129" on="0"/>
        <pt x="821" y="160" on="1"/>
        <pt x="821" y="221" on="0"/>
        <pt x="735" y="307" on="0"/>
        <pt x="674" y="307" on="1"/>
        <pt x="648" y="307" on="0"/>
        <pt x="596" y="289" on="0"/>
        <pt x="575" y="270" on="1"/>
        <pt x="625" y="252" on="0"/>
        <pt x="686" y="168" on="0"/>
        <pt x="686" y="117" on="1"/>
        <pt x="686" y="64" on="0"/>
        <pt x="621" y="-12" on="0"/>
        <pt x="575" y="-12" on="1"/>
        <pt x="530" y="-12" on="0"/>
        <pt x="465" y="81" on="0"/>
        <pt x="465" y="148" on="1"/>
        <pt x="465" y="168" on="0"/>
        <pt x="471" y="204" on="0"/>
        <pt x="477" y="221" on="1"/>
        <pt x="403" y="221" on="1"/>
        <pt x="403" y="135" on="1"/>
        <pt x="403" y="74" on="0"/>
        <pt x="302" y="-12" on="0"/>
        <pt x="231" y="-12" on="1"/>
        <pt x="150" y="-12" on="0"/>
        <pt x="34" y="89" on="0"/>
        <pt x="34" y="160" on="1"/>
        <pt x="34" y="205" on="0"/>
        <pt x="107" y="270" on="0"/>
        <pt x="157" y="270" on="1"/>
        <pt x="157" y="492" on="1"/>
        <pt x="575" y="492" on="1"/>
        <pt x="575" y="443" on="1"/>
        <pt x="403" y="443" on="1"/>
        <pt x="403" y="270" on="1"/>
        <pt x="495" y="270" on="1"/>
        <pt x="518" y="309" on="0"/>
        <pt x="617" y="356" on="0"/>
        <pt x="680" y="356" on="1"/>
        <pt x="764" y="356" on="0"/>
        <pt x="883" y="241" on="0"/>
        <pt x="883" y="160" on="1"/>
        <pt x="883" y="139" on="0"/>
        <pt x="870" y="82" on="0"/>
        <pt x="858" y="49" on="1"/>
        <pt x="1141" y="49" on="1"/>
        <pt x="1141" y="135" on="1"/>
        <pt x="1137" y="134" on="0"/>
        <pt x="1114" y="135" on="0"/>
        <pt x="1104" y="135" on="1"/>
        <pt x="1023" y="135" on="0"/>
        <pt x="907" y="243" on="0"/>
        <pt x="907" y="320" on="1"/>
        <pt x="907" y="394" on="0"/>
        <pt x="1015" y="498" on="0"/>
        <pt x="1092" y="498" on="1"/>
      </contour>
    </TTGlyph>
    <TTGlyph name="u0B95_u0BCD_u0BB7.akhn_u0BC0.abvs" xMin="34" yMin="-295" xMax="1362" yMax="861">
      <contour>
        <pt x="219" y="270" on="1"/>
        <pt x="342" y="270" on="1"/>
        <pt x="342" y="443" on="1"/>
        <pt x="219" y="443" on="1"/>
        <pt x="219" y="270" on="1"/>
      </contour>
      <contour>
        <pt x="157" y="221" on="1"/>
        <pt x="131" y="221" on="0"/>
        <pt x="96" y="186" on="0"/>
        <pt x="96" y="160" on="1"/>
        <pt x="96" y="110" on="0"/>
        <pt x="175" y="37" on="0"/>
        <pt x="231" y="37" on="1"/>
        <pt x="276" y="37" on="0"/>
        <pt x="342" y="95" on="0"/>
        <pt x="342" y="135" on="1"/>
        <pt x="342" y="221" on="1"/>
        <pt x="157" y="221" on="1"/>
      </contour>
      <contour>
        <pt x="526" y="148" on="1"/>
        <pt x="526" y="103" on="0"/>
        <pt x="554" y="37" on="0"/>
        <pt x="575" y="37" on="1"/>
        <pt x="596" y="37" on="0"/>
        <pt x="624" y="87" on="0"/>
        <pt x="624" y="123" on="1"/>
        <pt x="624" y="159" on="0"/>
        <pt x="575" y="215" on="0"/>
        <pt x="538" y="221" on="1"/>
        <pt x="532" y="204" on="0"/>
        <pt x="526" y="167" on="0"/>
        <pt x="526" y="148" on="1"/>
      </contour>
      <contour>
        <pt x="969" y="320" on="1"/>
        <pt x="969" y="263" on="0"/>
        <pt x="1047" y="184" on="0"/>
        <pt x="1104" y="184" on="1"/>
        <pt x="1114" y="184" on="0"/>
        <pt x="1132" y="188" on="0"/>
        <pt x="1141" y="191" on="1"/>
        <pt x="1141" y="369" on="1"/>
        <pt x="1141" y="400" on="0"/>
        <pt x="1105" y="443" on="0"/>
        <pt x="1079" y="443" on="1"/>
        <pt x="1034" y="443" on="0"/>
        <pt x="969" y="370" on="0"/>
        <pt x="969" y="320" on="1"/>
      </contour>
      <contour>
        <pt x="1202" y="49" on="1"/>
        <pt x="1301" y="49" on="1"/>
        <pt x="1301" y="209" on="1"/>
        <pt x="1286" y="191" on="0"/>
        <pt x="1235" y="160" on="0"/>
        <pt x="1202" y="148" on="1"/>
        <pt x="1202" y="49" on="1"/>
      </contour>
      <contour>
        <pt x="1042" y="492" on="1"/>
        <pt x="990" y="522" on="0"/>
        <pt x="932" y="621" on="0"/>
        <pt x="932" y="676" on="1"/>
        <pt x="932" y="752" on="0"/>
        <pt x="1040" y="861" on="0"/>
        <pt x="1116" y="861" on="1"/>
        <pt x="1192" y="861" on="0"/>
        <pt x="1301" y="774" on="0"/>
        <pt x="1301" y="713" on="1"/>
        <pt x="1301" y="663" on="0"/>
        <pt x="1228" y="590" on="0"/>
        <pt x="1178" y="590" on="1"/>
        <pt x="1128" y="590" on="0"/>
        <pt x="1055" y="663" on="0"/>
        <pt x="1055" y="713" on="1"/>
        <pt x="1055" y="743" on="0"/>
        <pt x="1074" y="789" on="0"/>
        <pt x="1092" y="799" on="1"/>
        <pt x="1049" y="792" on="0"/>
        <pt x="993" y="722" on="0"/>
        <pt x="993" y="676" on="1"/>
        <pt x="993" y="623" on="0"/>
        <pt x="1060" y="525" on="0"/>
        <pt x="1116" y="492" on="1"/>
        <pt x="1153" y="486" on="0"/>
        <pt x="1202" y="416" on="0"/>
        <pt x="1202" y="369" on="1"/>
        <pt x="1202" y="209" on="1"/>
        <pt x="1234" y="221" on="0"/>
        <pt x="1294" y="278" on="0"/>
        <pt x="1319" y="320" on="1"/>
        <pt x="1362" y="320" on="1"/>
        <pt x="1362" y="0" on="1"/>
        <pt x="1202" y="0" on="1"/>
        <pt x="1202" y="-295" on="1"/>
        <pt x="1141" y="-295" on="1"/>
        <pt x="1141" y="0" on="1"/>
        <pt x="772" y="0" on="1"/>
        <pt x="772" y="37" on="1"/>
        <pt x="795" y="65" on="0"/>
        <pt x="821" y="129" on="0"/>
        <pt x="821" y="160" on="1"/>
        <pt x="821" y="221" on="0"/>
        <pt x="735" y="307" on="0"/>
        <pt x="674" y="307" on="1"/>
        <pt x="648" y="307" on="0"/>
        <pt x="596" y="289" on="0"/>
        <pt x="575" y="270" on="1"/>
        <pt x="625" y="252" on="0"/>
        <pt x="686" y="171" on="0"/>
        <pt x="686" y="123" on="1"/>
        <pt x="686" y="66" on="0"/>
        <pt x="621" y="-12" on="0"/>
        <pt x="575" y="-12" on="1"/>
        <pt x="530" y="-12" on="0"/>
        <pt x="465" y="81" on="0"/>
        <pt x="465" y="148" on="1"/>
        <pt x="465" y="168" on="0"/>
        <pt x="471" y="204" on="0"/>
        <pt x="477" y="221" on="1"/>
        <pt x="403" y="221" on="1"/>
        <pt x="403" y="135" on="1"/>
        <pt x="403" y="74" on="0"/>
        <pt x="302" y="-12" on="0"/>
        <pt x="231" y="-12" on="1"/>
        <pt x="150" y="-12" on="0"/>
        <pt x="34" y="89" on="0"/>
        <pt x="34" y="160" on="1"/>
        <pt x="34" y="205" on="0"/>
        <pt x="107" y="270" on="0"/>
        <pt x="157" y="270" on="1"/>
        <pt x="157" y="492" on="1"/>
        <pt x="575" y="492" on="1"/>
        <pt x="575" y="443" on="1"/>
        <pt x="403" y="443" on="1"/>
        <pt x="403" y="270" on="1"/>
        <pt x="495" y="270" on="1"/>
        <pt x="518" y="309" on="0"/>
        <pt x="617" y="356" on="0"/>
        <pt x="680" y="356" on="1"/>
        <pt x="764" y="356" on="0"/>
        <pt x="883" y="241" on="0"/>
        <pt x="883" y="160" on="1"/>
        <pt x="883" y="139" on="0"/>
        <pt x="870" y="82" on="0"/>
        <pt x="858" y="49" on="1"/>
        <pt x="1141" y="49" on="1"/>
        <pt x="1141" y="135" on="1"/>
        <pt x="1137" y="134" on="0"/>
        <pt x="1114" y="135" on="0"/>
        <pt x="1104" y="135" on="1"/>
        <pt x="1023" y="135" on="0"/>
        <pt x="907" y="243" on="0"/>
        <pt x="907" y="320" on="1"/>
        <pt x="907" y="384" on="0"/>
        <pt x="983" y="482" on="0"/>
        <pt x="1042" y="492" on="1"/>
      </contour>
      <contour>
        <pt x="1116" y="713" on="1"/>
        <pt x="1116" y="682" on="0"/>
        <pt x="1152" y="639" on="0"/>
        <pt x="1178" y="639" on="1"/>
        <pt x="1204" y="639" on="0"/>
        <pt x="1239" y="682" on="0"/>
        <pt x="1239" y="713" on="1"/>
        <pt x="1239" y="744" on="0"/>
        <pt x="1203" y="787" on="0"/>
        <pt x="1178" y="787" on="1"/>
        <pt x="1152" y="787" on="0"/>
        <pt x="1116" y="744" on="0"/>
        <pt x="1116" y="713" on="1"/>
      </contour>
    </TTGlyph>
    <TTGlyph name="u0B95_u0BCD_u0BB7.akhn_u0BCD.half" xMin="34" yMin="-295" xMax="1362" yMax="750">
      <contour>
        <pt x="219" y="270" on="1"/>
        <pt x="342" y="270" on="1"/>
        <pt x="342" y="443" on="1"/>
        <pt x="219" y="443" on="1"/>
        <pt x="219" y="270" on="1"/>
      </contour>
      <contour>
        <pt x="157" y="221" on="1"/>
        <pt x="131" y="221" on="0"/>
        <pt x="96" y="186" on="0"/>
        <pt x="96" y="160" on="1"/>
        <pt x="96" y="110" on="0"/>
        <pt x="175" y="37" on="0"/>
        <pt x="231" y="37" on="1"/>
        <pt x="276" y="37" on="0"/>
        <pt x="342" y="95" on="0"/>
        <pt x="342" y="135" on="1"/>
        <pt x="342" y="221" on="1"/>
        <pt x="157" y="221" on="1"/>
      </contour>
      <contour>
        <pt x="526" y="148" on="1"/>
        <pt x="526" y="103" on="0"/>
        <pt x="554" y="37" on="0"/>
        <pt x="575" y="37" on="1"/>
        <pt x="596" y="37" on="0"/>
        <pt x="624" y="80" on="0"/>
        <pt x="624" y="111" on="1"/>
        <pt x="624" y="153" on="0"/>
        <pt x="575" y="215" on="0"/>
        <pt x="538" y="221" on="1"/>
        <pt x="532" y="204" on="0"/>
        <pt x="526" y="167" on="0"/>
        <pt x="526" y="148" on="1"/>
      </contour>
      <contour>
        <pt x="969" y="320" on="1"/>
        <pt x="969" y="263" on="0"/>
        <pt x="1047" y="184" on="0"/>
        <pt x="1104" y="184" on="1"/>
        <pt x="1114" y="184" on="0"/>
        <pt x="1132" y="188" on="0"/>
        <pt x="1141" y="191" on="1"/>
        <pt x="1141" y="369" on="1"/>
        <pt x="1141" y="400" on="0"/>
        <pt x="1105" y="443" on="0"/>
        <pt x="1079" y="443" on="1"/>
        <pt x="1034" y="443" on="0"/>
        <pt x="969" y="370" on="0"/>
        <pt x="969" y="320" on="1"/>
      </contour>
      <contour>
        <pt x="1202" y="49" on="1"/>
        <pt x="1301" y="49" on="1"/>
        <pt x="1301" y="209" on="1"/>
        <pt x="1286" y="191" on="0"/>
        <pt x="1235" y="160" on="0"/>
        <pt x="1202" y="148" on="1"/>
        <pt x="1202" y="49" on="1"/>
      </contour>
      <contour>
        <pt x="34" y="160" on="1"/>
        <pt x="34" y="205" on="0"/>
        <pt x="107" y="270" on="0"/>
        <pt x="157" y="270" on="1"/>
        <pt x="157" y="492" on="1"/>
        <pt x="575" y="492" on="1"/>
        <pt x="575" y="443" on="1"/>
        <pt x="403" y="443" on="1"/>
        <pt x="403" y="270" on="1"/>
        <pt x="495" y="270" on="1"/>
        <pt x="518" y="309" on="0"/>
        <pt x="617" y="356" on="0"/>
        <pt x="680" y="356" on="1"/>
        <pt x="764" y="356" on="0"/>
        <pt x="883" y="241" on="0"/>
        <pt x="883" y="160" on="1"/>
        <pt x="883" y="139" on="0"/>
        <pt x="870" y="82" on="0"/>
        <pt x="858" y="49" on="1"/>
        <pt x="1141" y="49" on="1"/>
        <pt x="1141" y="135" on="1"/>
        <pt x="1137" y="134" on="0"/>
        <pt x="1114" y="135" on="0"/>
        <pt x="1104" y="135" on="1"/>
        <pt x="1023" y="135" on="0"/>
        <pt x="907" y="243" on="0"/>
        <pt x="907" y="320" on="1"/>
        <pt x="907" y="391" on="0"/>
        <pt x="1008" y="492" on="0"/>
        <pt x="1079" y="492" on="1"/>
        <pt x="1129" y="492" on="0"/>
        <pt x="1202" y="419" on="0"/>
        <pt x="1202" y="369" on="1"/>
        <pt x="1202" y="209" on="1"/>
        <pt x="1234" y="221" on="0"/>
        <pt x="1294" y="278" on="0"/>
        <pt x="1319" y="320" on="1"/>
        <pt x="1362" y="320" on="1"/>
        <pt x="1362" y="0" on="1"/>
        <pt x="1202" y="0" on="1"/>
        <pt x="1202" y="-295" on="1"/>
        <pt x="1141" y="-295" on="1"/>
        <pt x="1141" y="0" on="1"/>
        <pt x="772" y="0" on="1"/>
        <pt x="772" y="37" on="1"/>
        <pt x="795" y="65" on="0"/>
        <pt x="821" y="129" on="0"/>
        <pt x="821" y="160" on="1"/>
        <pt x="821" y="221" on="0"/>
        <pt x="735" y="307" on="0"/>
        <pt x="674" y="307" on="1"/>
        <pt x="648" y="307" on="0"/>
        <pt x="596" y="289" on="0"/>
        <pt x="575" y="270" on="1"/>
        <pt x="625" y="252" on="0"/>
        <pt x="686" y="165" on="0"/>
        <pt x="686" y="111" on="1"/>
        <pt x="686" y="61" on="0"/>
        <pt x="621" y="-12" on="0"/>
        <pt x="575" y="-12" on="1"/>
        <pt x="530" y="-12" on="0"/>
        <pt x="465" y="81" on="0"/>
        <pt x="465" y="148" on="1"/>
        <pt x="465" y="168" on="0"/>
        <pt x="471" y="204" on="0"/>
        <pt x="477" y="221" on="1"/>
        <pt x="403" y="221" on="1"/>
        <pt x="403" y="135" on="1"/>
        <pt x="403" y="74" on="0"/>
        <pt x="302" y="-12" on="0"/>
        <pt x="231" y="-12" on="1"/>
        <pt x="150" y="-12" on="0"/>
        <pt x="34" y="89" on="0"/>
        <pt x="34" y="160" on="1"/>
      </contour>
      <contour>
        <pt x="652" y="688" on="1"/>
        <pt x="652" y="714" on="0"/>
        <pt x="687" y="750" on="0"/>
        <pt x="713" y="750" on="1"/>
        <pt x="739" y="750" on="0"/>
        <pt x="774" y="714" on="0"/>
        <pt x="774" y="688" on="1"/>
        <pt x="774" y="662" on="0"/>
        <pt x="739" y="627" on="0"/>
        <pt x="713" y="627" on="1"/>
        <pt x="687" y="627" on="0"/>
        <pt x="652" y="663" on="0"/>
        <pt x="652" y="688" on="1"/>
      </contour>
    </TTGlyph>
    <TTGlyph name="u0B99" xMin="92" yMin="0" xMax="805" yMax="492">
      <contour>
        <pt x="301" y="49" on="1"/>
        <pt x="436" y="49" on="1"/>
        <pt x="481" y="49" on="0"/>
        <pt x="547" y="114" on="0"/>
        <pt x="547" y="160" on="1"/>
        <pt x="547" y="196" on="0"/>
        <pt x="489" y="246" on="0"/>
        <pt x="449" y="246" on="1"/>
        <pt x="428" y="246" on="0"/>
        <pt x="382" y="220" on="0"/>
        <pt x="363" y="197" on="1"/>
        <pt x="363" y="98" on="1"/>
        <pt x="301" y="98" on="1"/>
        <pt x="301" y="443" on="1"/>
        <pt x="154" y="443" on="1"/>
        <pt x="154" y="0" on="1"/>
        <pt x="92" y="0" on="1"/>
        <pt x="92" y="492" on="1"/>
        <pt x="535" y="492" on="1"/>
        <pt x="535" y="443" on="1"/>
        <pt x="363" y="443" on="1"/>
        <pt x="363" y="264" on="1"/>
        <pt x="388" y="285" on="0"/>
        <pt x="438" y="307" on="0"/>
        <pt x="461" y="307" on="1"/>
        <pt x="522" y="307" on="0"/>
        <pt x="608" y="221" on="0"/>
        <pt x="608" y="160" on="1"/>
        <pt x="608" y="127" on="0"/>
        <pt x="583" y="69" on="0"/>
        <pt x="559" y="49" on="1"/>
        <pt x="744" y="49" on="1"/>
        <pt x="744" y="492" on="1"/>
        <pt x="805" y="492" on="1"/>
        <pt x="805" y="0" on="1"/>
        <pt x="301" y="0" on="1"/>
        <pt x="301" y="49" on="1"/>
      </contour>
    </TTGlyph>
    <TTGlyph name="u0B99_u0BBF.abvs" xMin="92" yMin="0" xMax="977" yMax="824">
      <contour>
        <pt x="92" y="492" on="1"/>
        <pt x="467" y="492" on="1"/>
        <pt x="467" y="443" on="1"/>
        <pt x="363" y="443" on="1"/>
        <pt x="363" y="264" on="1"/>
        <pt x="388" y="285" on="0"/>
        <pt x="438" y="307" on="0"/>
        <pt x="461" y="307" on="1"/>
        <pt x="522" y="307" on="0"/>
        <pt x="608" y="221" on="0"/>
        <pt x="608" y="160" on="1"/>
        <pt x="608" y="129" on="0"/>
        <pt x="579" y="71" on="0"/>
        <pt x="553" y="49" on="1"/>
        <pt x="744" y="49" on="1"/>
        <pt x="744" y="320" on="1"/>
        <pt x="727" y="308" on="0"/>
        <pt x="688" y="295" on="0"/>
        <pt x="670" y="295" on="1"/>
        <pt x="599" y="295" on="0"/>
        <pt x="498" y="424" on="0"/>
        <pt x="498" y="516" on="1"/>
        <pt x="498" y="644" on="0"/>
        <pt x="638" y="824" on="0"/>
        <pt x="738" y="824" on="1"/>
        <pt x="838" y="824" on="0"/>
        <pt x="977" y="672" on="0"/>
        <pt x="977" y="565" on="1"/>
        <pt x="977" y="0" on="1"/>
        <pt x="916" y="0" on="1"/>
        <pt x="916" y="572" on="1"/>
        <pt x="916" y="651" on="0"/>
        <pt x="808" y="762" on="0"/>
        <pt x="731" y="762" on="1"/>
        <pt x="660" y="762" on="0"/>
        <pt x="559" y="618" on="0"/>
        <pt x="559" y="516" on="1"/>
        <pt x="559" y="447" on="0"/>
        <pt x="624" y="350" on="0"/>
        <pt x="670" y="350" on="1"/>
        <pt x="691" y="350" on="0"/>
        <pt x="729" y="370" on="0"/>
        <pt x="744" y="387" on="1"/>
        <pt x="744" y="492" on="1"/>
        <pt x="805" y="492" on="1"/>
        <pt x="805" y="0" on="1"/>
        <pt x="301" y="0" on="1"/>
        <pt x="301" y="49" on="1"/>
        <pt x="436" y="49" on="1"/>
        <pt x="481" y="49" on="0"/>
        <pt x="547" y="114" on="0"/>
        <pt x="547" y="160" on="1"/>
        <pt x="547" y="196" on="0"/>
        <pt x="489" y="246" on="0"/>
        <pt x="449" y="246" on="1"/>
        <pt x="428" y="246" on="0"/>
        <pt x="382" y="220" on="0"/>
        <pt x="363" y="197" on="1"/>
        <pt x="363" y="98" on="1"/>
        <pt x="301" y="98" on="1"/>
        <pt x="301" y="443" on="1"/>
        <pt x="154" y="443" on="1"/>
        <pt x="154" y="0" on="1"/>
        <pt x="92" y="0" on="1"/>
        <pt x="92" y="492" on="1"/>
      </contour>
    </TTGlyph>
    <TTGlyph name="u0B99_u0BC0.abvs" xMin="92" yMin="0" xMax="867" yMax="848">
      <contour>
        <pt x="92" y="492" on="1"/>
        <pt x="473" y="492" on="1"/>
        <pt x="473" y="443" on="1"/>
        <pt x="363" y="443" on="1"/>
        <pt x="363" y="264" on="1"/>
        <pt x="388" y="285" on="0"/>
        <pt x="438" y="307" on="0"/>
        <pt x="461" y="307" on="1"/>
        <pt x="522" y="307" on="0"/>
        <pt x="608" y="221" on="0"/>
        <pt x="608" y="160" on="1"/>
        <pt x="608" y="132" on="0"/>
        <pt x="577" y="74" on="0"/>
        <pt x="547" y="49" on="1"/>
        <pt x="744" y="49" on="1"/>
        <pt x="744" y="369" on="1"/>
        <pt x="642" y="369" on="0"/>
        <pt x="498" y="513" on="0"/>
        <pt x="498" y="615" on="1"/>
        <pt x="498" y="712" on="0"/>
        <pt x="627" y="848" on="0"/>
        <pt x="719" y="848" on="1"/>
        <pt x="780" y="848" on="0"/>
        <pt x="867" y="770" on="0"/>
        <pt x="867" y="713" on="1"/>
        <pt x="867" y="663" on="0"/>
        <pt x="794" y="590" on="0"/>
        <pt x="744" y="590" on="1"/>
        <pt x="694" y="590" on="0"/>
        <pt x="621" y="663" on="0"/>
        <pt x="621" y="713" on="1"/>
        <pt x="621" y="735" on="0"/>
        <pt x="633" y="772" on="0"/>
        <pt x="645" y="787" on="1"/>
        <pt x="602" y="762" on="0"/>
        <pt x="553" y="670" on="0"/>
        <pt x="553" y="615" on="1"/>
        <pt x="553" y="534" on="0"/>
        <pt x="665" y="418" on="0"/>
        <pt x="744" y="418" on="1"/>
        <pt x="744" y="492" on="1"/>
        <pt x="805" y="492" on="1"/>
        <pt x="805" y="0" on="1"/>
        <pt x="301" y="0" on="1"/>
        <pt x="301" y="49" on="1"/>
        <pt x="436" y="49" on="1"/>
        <pt x="481" y="49" on="0"/>
        <pt x="547" y="114" on="0"/>
        <pt x="547" y="160" on="1"/>
        <pt x="547" y="196" on="0"/>
        <pt x="489" y="246" on="0"/>
        <pt x="449" y="246" on="1"/>
        <pt x="428" y="246" on="0"/>
        <pt x="382" y="220" on="0"/>
        <pt x="363" y="197" on="1"/>
        <pt x="363" y="98" on="1"/>
        <pt x="301" y="98" on="1"/>
        <pt x="301" y="443" on="1"/>
        <pt x="154" y="443" on="1"/>
        <pt x="154" y="0" on="1"/>
        <pt x="92" y="0" on="1"/>
        <pt x="92" y="492" on="1"/>
      </contour>
      <contour>
        <pt x="682" y="713" on="1"/>
        <pt x="682" y="682" on="0"/>
        <pt x="718" y="639" on="0"/>
        <pt x="744" y="639" on="1"/>
        <pt x="770" y="639" on="0"/>
        <pt x="805" y="682" on="0"/>
        <pt x="805" y="713" on="1"/>
        <pt x="805" y="744" on="0"/>
        <pt x="770" y="787" on="0"/>
        <pt x="744" y="787" on="1"/>
        <pt x="718" y="787" on="0"/>
        <pt x="682" y="744" on="0"/>
        <pt x="682" y="713" on="1"/>
      </contour>
    </TTGlyph>
    <TTGlyph name="u0B99_u0BC1.blws" xMin="92" yMin="-221" xMax="805" yMax="492">
      <contour>
        <pt x="92" y="492" on="1"/>
        <pt x="535" y="492" on="1"/>
        <pt x="535" y="443" on="1"/>
        <pt x="363" y="443" on="1"/>
        <pt x="363" y="264" on="1"/>
        <pt x="384" y="282" on="0"/>
        <pt x="428" y="301" on="0"/>
        <pt x="449" y="301" on="1"/>
        <pt x="515" y="301" on="0"/>
        <pt x="608" y="219" on="0"/>
        <pt x="608" y="160" on="1"/>
        <pt x="608" y="129" on="0"/>
        <pt x="579" y="71" on="0"/>
        <pt x="553" y="49" on="1"/>
        <pt x="744" y="49" on="1"/>
        <pt x="744" y="492" on="1"/>
        <pt x="805" y="492" on="1"/>
        <pt x="805" y="-221" on="1"/>
        <pt x="744" y="-221" on="1"/>
        <pt x="744" y="0" on="1"/>
        <pt x="301" y="0" on="1"/>
        <pt x="301" y="49" on="1"/>
        <pt x="436" y="49" on="1"/>
        <pt x="481" y="49" on="0"/>
        <pt x="547" y="114" on="0"/>
        <pt x="547" y="160" on="1"/>
        <pt x="547" y="196" on="0"/>
        <pt x="489" y="246" on="0"/>
        <pt x="449" y="246" on="1"/>
        <pt x="428" y="246" on="0"/>
        <pt x="382" y="220" on="0"/>
        <pt x="363" y="197" on="1"/>
        <pt x="363" y="98" on="1"/>
        <pt x="301" y="98" on="1"/>
        <pt x="301" y="443" on="1"/>
        <pt x="154" y="443" on="1"/>
        <pt x="154" y="0" on="1"/>
        <pt x="92" y="0" on="1"/>
        <pt x="92" y="492" on="1"/>
      </contour>
    </TTGlyph>
    <TTGlyph name="u0B99_u0BC2.blws" xMin="92" yMin="-320" xMax="1020" yMax="492">
      <contour>
        <pt x="92" y="492" on="1"/>
        <pt x="535" y="492" on="1"/>
        <pt x="535" y="443" on="1"/>
        <pt x="363" y="443" on="1"/>
        <pt x="363" y="264" on="1"/>
        <pt x="380" y="285" on="0"/>
        <pt x="425" y="307" on="0"/>
        <pt x="449" y="307" on="1"/>
        <pt x="515" y="307" on="0"/>
        <pt x="608" y="221" on="0"/>
        <pt x="608" y="160" on="1"/>
        <pt x="608" y="127" on="0"/>
        <pt x="583" y="69" on="0"/>
        <pt x="559" y="49" on="1"/>
        <pt x="744" y="49" on="1"/>
        <pt x="744" y="492" on="1"/>
        <pt x="805" y="492" on="1"/>
        <pt x="805" y="61" on="1"/>
        <pt x="820" y="78" on="0"/>
        <pt x="865" y="98" on="0"/>
        <pt x="891" y="98" on="1"/>
        <pt x="944" y="98" on="0"/>
        <pt x="1020" y="20" on="0"/>
        <pt x="1020" y="-37" on="1"/>
        <pt x="1020" y="-154" on="0"/>
        <pt x="722" y="-320" on="0"/>
        <pt x="510" y="-320" on="1"/>
        <pt x="347" y="-320" on="0"/>
        <pt x="117" y="-226" on="0"/>
        <pt x="117" y="-160" on="1"/>
        <pt x="117" y="-115" on="0"/>
        <pt x="261" y="-49" on="0"/>
        <pt x="363" y="-49" on="1"/>
        <pt x="444" y="-49" on="0"/>
        <pt x="580" y="-80" on="0"/>
        <pt x="633" y="-111" on="1"/>
        <pt x="615" y="-166" on="1"/>
        <pt x="557" y="-133" on="0"/>
        <pt x="429" y="-98" on="0"/>
        <pt x="363" y="-98" on="1"/>
        <pt x="287" y="-98" on="0"/>
        <pt x="178" y="-134" on="0"/>
        <pt x="178" y="-160" on="1"/>
        <pt x="178" y="-205" on="0"/>
        <pt x="372" y="-270" on="0"/>
        <pt x="510" y="-270" on="1"/>
        <pt x="698" y="-270" on="0"/>
        <pt x="965" y="-134" on="0"/>
        <pt x="965" y="-37" on="1"/>
        <pt x="965" y="-4" on="0"/>
        <pt x="922" y="43" on="0"/>
        <pt x="891" y="43" on="1"/>
        <pt x="873" y="43" on="0"/>
        <pt x="827" y="14" on="0"/>
        <pt x="805" y="-12" on="1"/>
        <pt x="805" y="-172" on="1"/>
        <pt x="744" y="-172" on="1"/>
        <pt x="744" y="0" on="1"/>
        <pt x="301" y="0" on="1"/>
        <pt x="301" y="49" on="1"/>
        <pt x="436" y="49" on="1"/>
        <pt x="481" y="49" on="0"/>
        <pt x="547" y="114" on="0"/>
        <pt x="547" y="160" on="1"/>
        <pt x="547" y="196" on="0"/>
        <pt x="489" y="246" on="0"/>
        <pt x="449" y="246" on="1"/>
        <pt x="428" y="246" on="0"/>
        <pt x="382" y="220" on="0"/>
        <pt x="363" y="197" on="1"/>
        <pt x="363" y="98" on="1"/>
        <pt x="301" y="98" on="1"/>
        <pt x="301" y="443" on="1"/>
        <pt x="154" y="443" on="1"/>
        <pt x="154" y="0" on="1"/>
        <pt x="92" y="0" on="1"/>
        <pt x="92" y="492" on="1"/>
      </contour>
    </TTGlyph>
    <TTGlyph name="u0B99_u0BCD.half" xMin="92" yMin="0" xMax="805" yMax="750">
      <contour>
        <pt x="301" y="49" on="1"/>
        <pt x="436" y="49" on="1"/>
        <pt x="481" y="49" on="0"/>
        <pt x="547" y="114" on="0"/>
        <pt x="547" y="160" on="1"/>
        <pt x="547" y="196" on="0"/>
        <pt x="489" y="246" on="0"/>
        <pt x="449" y="246" on="1"/>
        <pt x="428" y="246" on="0"/>
        <pt x="382" y="220" on="0"/>
        <pt x="363" y="197" on="1"/>
        <pt x="363" y="98" on="1"/>
        <pt x="301" y="98" on="1"/>
        <pt x="301" y="443" on="1"/>
        <pt x="154" y="443" on="1"/>
        <pt x="154" y="0" on="1"/>
        <pt x="92" y="0" on="1"/>
        <pt x="92" y="492" on="1"/>
        <pt x="535" y="492" on="1"/>
        <pt x="535" y="443" on="1"/>
        <pt x="363" y="443" on="1"/>
        <pt x="363" y="264" on="1"/>
        <pt x="388" y="285" on="0"/>
        <pt x="438" y="307" on="0"/>
        <pt x="461" y="307" on="1"/>
        <pt x="522" y="307" on="0"/>
        <pt x="608" y="221" on="0"/>
        <pt x="608" y="160" on="1"/>
        <pt x="608" y="127" on="0"/>
        <pt x="583" y="69" on="0"/>
        <pt x="559" y="49" on="1"/>
        <pt x="744" y="49" on="1"/>
        <pt x="744" y="492" on="1"/>
        <pt x="805" y="492" on="1"/>
        <pt x="805" y="0" on="1"/>
        <pt x="301" y="0" on="1"/>
        <pt x="301" y="49" on="1"/>
      </contour>
      <contour>
        <pt x="388" y="688" on="1"/>
        <pt x="388" y="714" on="0"/>
        <pt x="424" y="750" on="0"/>
        <pt x="450" y="750" on="1"/>
        <pt x="476" y="750" on="0"/>
        <pt x="511" y="714" on="0"/>
        <pt x="511" y="688" on="1"/>
        <pt x="511" y="662" on="0"/>
        <pt x="476" y="627" on="0"/>
        <pt x="450" y="627" on="1"/>
        <pt x="424" y="627" on="0"/>
        <pt x="388" y="663" on="0"/>
        <pt x="388" y="688" on="1"/>
      </contour>
    </TTGlyph>
    <TTGlyph name="u0B9A" xMin="34" yMin="-12" xMax="551" yMax="492">
      <contour>
        <pt x="219" y="270" on="1"/>
        <pt x="342" y="270" on="1"/>
        <pt x="342" y="443" on="1"/>
        <pt x="219" y="443" on="1"/>
        <pt x="219" y="270" on="1"/>
      </contour>
      <contour>
        <pt x="96" y="160" on="1"/>
        <pt x="96" y="110" on="0"/>
        <pt x="175" y="37" on="0"/>
        <pt x="231" y="37" on="1"/>
        <pt x="276" y="37" on="0"/>
        <pt x="342" y="95" on="0"/>
        <pt x="342" y="135" on="1"/>
        <pt x="342" y="221" on="1"/>
        <pt x="157" y="221" on="1"/>
        <pt x="131" y="221" on="0"/>
        <pt x="96" y="186" on="0"/>
        <pt x="96" y="160" on="1"/>
      </contour>
      <contour>
        <pt x="157" y="492" on="1"/>
        <pt x="551" y="492" on="1"/>
        <pt x="551" y="443" on="1"/>
        <pt x="403" y="443" on="1"/>
        <pt x="403" y="270" on="1"/>
        <pt x="551" y="270" on="1"/>
        <pt x="551" y="221" on="1"/>
        <pt x="403" y="221" on="1"/>
        <pt x="403" y="135" on="1"/>
        <pt x="403" y="74" on="0"/>
        <pt x="302" y="-12" on="0"/>
        <pt x="231" y="-12" on="1"/>
        <pt x="150" y="-12" on="0"/>
        <pt x="34" y="89" on="0"/>
        <pt x="34" y="160" on="1"/>
        <pt x="34" y="205" on="0"/>
        <pt x="107" y="270" on="0"/>
        <pt x="157" y="270" on="1"/>
        <pt x="157" y="492" on="1"/>
      </contour>
    </TTGlyph>
    <TTGlyph name="u0B9A_u0BBF.abvs" xMin="34" yMin="-12" xMax="711" yMax="811">
      <contour>
        <pt x="219" y="270" on="1"/>
        <pt x="342" y="270" on="1"/>
        <pt x="342" y="443" on="1"/>
        <pt x="219" y="443" on="1"/>
        <pt x="219" y="270" on="1"/>
      </contour>
      <contour>
        <pt x="96" y="160" on="1"/>
        <pt x="96" y="110" on="0"/>
        <pt x="175" y="37" on="0"/>
        <pt x="231" y="37" on="1"/>
        <pt x="276" y="37" on="0"/>
        <pt x="342" y="95" on="0"/>
        <pt x="342" y="135" on="1"/>
        <pt x="342" y="221" on="1"/>
        <pt x="157" y="221" on="1"/>
        <pt x="131" y="221" on="0"/>
        <pt x="96" y="186" on="0"/>
        <pt x="96" y="160" on="1"/>
      </contour>
      <contour>
        <pt x="157" y="492" on="1"/>
        <pt x="329" y="492" on="1"/>
        <pt x="299" y="517" on="0"/>
        <pt x="268" y="588" on="0"/>
        <pt x="268" y="627" on="1"/>
        <pt x="268" y="703" on="0"/>
        <pt x="391" y="811" on="0"/>
        <pt x="477" y="811" on="1"/>
        <pt x="574" y="811" on="0"/>
        <pt x="711" y="668" on="0"/>
        <pt x="711" y="565" on="1"/>
        <pt x="711" y="0" on="1"/>
        <pt x="649" y="0" on="1"/>
        <pt x="649" y="565" on="1"/>
        <pt x="649" y="646" on="0"/>
        <pt x="548" y="762" on="0"/>
        <pt x="477" y="762" on="1"/>
        <pt x="416" y="762" on="0"/>
        <pt x="329" y="683" on="0"/>
        <pt x="329" y="627" on="1"/>
        <pt x="329" y="584" on="0"/>
        <pt x="369" y="511" on="0"/>
        <pt x="403" y="492" on="1"/>
        <pt x="551" y="492" on="1"/>
        <pt x="551" y="443" on="1"/>
        <pt x="403" y="443" on="1"/>
        <pt x="403" y="270" on="1"/>
        <pt x="551" y="270" on="1"/>
        <pt x="551" y="221" on="1"/>
        <pt x="403" y="221" on="1"/>
        <pt x="403" y="135" on="1"/>
        <pt x="403" y="74" on="0"/>
        <pt x="302" y="-12" on="0"/>
        <pt x="231" y="-12" on="1"/>
        <pt x="150" y="-12" on="0"/>
        <pt x="34" y="89" on="0"/>
        <pt x="34" y="160" on="1"/>
        <pt x="34" y="205" on="0"/>
        <pt x="107" y="270" on="0"/>
        <pt x="157" y="270" on="1"/>
        <pt x="157" y="492" on="1"/>
      </contour>
    </TTGlyph>
    <TTGlyph name="u0B9A_u0BC0.abvs" xMin="34" yMin="-12" xMax="588" yMax="848">
      <contour>
        <pt x="219" y="270" on="1"/>
        <pt x="342" y="270" on="1"/>
        <pt x="342" y="443" on="1"/>
        <pt x="219" y="443" on="1"/>
        <pt x="219" y="270" on="1"/>
      </contour>
      <contour>
        <pt x="96" y="160" on="1"/>
        <pt x="96" y="110" on="0"/>
        <pt x="175" y="37" on="0"/>
        <pt x="231" y="37" on="1"/>
        <pt x="276" y="37" on="0"/>
        <pt x="342" y="95" on="0"/>
        <pt x="342" y="135" on="1"/>
        <pt x="342" y="221" on="1"/>
        <pt x="157" y="221" on="1"/>
        <pt x="131" y="221" on="0"/>
        <pt x="96" y="186" on="0"/>
        <pt x="96" y="160" on="1"/>
      </contour>
      <contour>
        <pt x="157" y="492" on="1"/>
        <pt x="329" y="492" on="1"/>
        <pt x="277" y="522" on="0"/>
        <pt x="219" y="621" on="0"/>
        <pt x="219" y="676" on="1"/>
        <pt x="219" y="747" on="0"/>
        <pt x="327" y="848" on="0"/>
        <pt x="403" y="848" on="1"/>
        <pt x="479" y="848" on="0"/>
        <pt x="588" y="770" on="0"/>
        <pt x="588" y="713" on="1"/>
        <pt x="588" y="663" on="0"/>
        <pt x="515" y="590" on="0"/>
        <pt x="465" y="590" on="1"/>
        <pt x="415" y="590" on="0"/>
        <pt x="342" y="663" on="0"/>
        <pt x="342" y="713" on="1"/>
        <pt x="342" y="740" on="0"/>
        <pt x="368" y="786" on="0"/>
        <pt x="391" y="799" on="1"/>
        <pt x="343" y="790" on="0"/>
        <pt x="280" y="720" on="0"/>
        <pt x="280" y="676" on="1"/>
        <pt x="280" y="627" on="0"/>
        <pt x="353" y="527" on="0"/>
        <pt x="416" y="492" on="1"/>
        <pt x="551" y="492" on="1"/>
        <pt x="551" y="443" on="1"/>
        <pt x="403" y="443" on="1"/>
        <pt x="403" y="270" on="1"/>
        <pt x="551" y="270" on="1"/>
        <pt x="551" y="221" on="1"/>
        <pt x="403" y="221" on="1"/>
        <pt x="403" y="135" on="1"/>
        <pt x="403" y="74" on="0"/>
        <pt x="302" y="-12" on="0"/>
        <pt x="231" y="-12" on="1"/>
        <pt x="150" y="-12" on="0"/>
        <pt x="34" y="89" on="0"/>
        <pt x="34" y="160" on="1"/>
        <pt x="34" y="205" on="0"/>
        <pt x="107" y="270" on="0"/>
        <pt x="157" y="270" on="1"/>
        <pt x="157" y="492" on="1"/>
      </contour>
      <contour>
        <pt x="403" y="713" on="1"/>
        <pt x="403" y="682" on="0"/>
        <pt x="439" y="639" on="0"/>
        <pt x="465" y="639" on="1"/>
        <pt x="491" y="639" on="0"/>
        <pt x="526" y="682" on="0"/>
        <pt x="526" y="713" on="1"/>
        <pt x="526" y="744" on="0"/>
        <pt x="490" y="787" on="0"/>
        <pt x="465" y="787" on="1"/>
        <pt x="439" y="787" on="0"/>
        <pt x="403" y="744" on="0"/>
        <pt x="403" y="713" on="1"/>
      </contour>
    </TTGlyph>
    <TTGlyph name="u0B9A_u0BC1.blws" xMin="34" yMin="-12" xMax="649" yMax="492">
      <contour>
        <pt x="219" y="443" on="1"/>
        <pt x="219" y="270" on="1"/>
        <pt x="342" y="270" on="1"/>
        <pt x="342" y="443" on="1"/>
        <pt x="219" y="443" on="1"/>
      </contour>
      <contour>
        <pt x="96" y="160" on="1"/>
        <pt x="96" y="110" on="0"/>
        <pt x="175" y="37" on="0"/>
        <pt x="231" y="37" on="1"/>
        <pt x="276" y="37" on="0"/>
        <pt x="342" y="95" on="0"/>
        <pt x="342" y="135" on="1"/>
        <pt x="342" y="221" on="1"/>
        <pt x="157" y="221" on="1"/>
        <pt x="131" y="221" on="0"/>
        <pt x="96" y="186" on="0"/>
        <pt x="96" y="160" on="1"/>
      </contour>
      <contour>
        <pt x="34" y="160" on="1"/>
        <pt x="34" y="205" on="0"/>
        <pt x="107" y="270" on="0"/>
        <pt x="157" y="270" on="1"/>
        <pt x="157" y="492" on="1"/>
        <pt x="575" y="492" on="1"/>
        <pt x="575" y="443" on="1"/>
        <pt x="403" y="443" on="1"/>
        <pt x="403" y="270" on="1"/>
        <pt x="649" y="270" on="1"/>
        <pt x="649" y="221" on="1"/>
        <pt x="575" y="221" on="1"/>
        <pt x="575" y="0" on="1"/>
        <pt x="514" y="0" on="1"/>
        <pt x="514" y="221" on="1"/>
        <pt x="403" y="221" on="1"/>
        <pt x="403" y="135" on="1"/>
        <pt x="403" y="74" on="0"/>
        <pt x="302" y="-12" on="0"/>
        <pt x="231" y="-12" on="1"/>
        <pt x="150" y="-12" on="0"/>
        <pt x="34" y="89" on="0"/>
        <pt x="34" y="160" on="1"/>
      </contour>
    </TTGlyph>
    <TTGlyph name="u0B9A_u0BC2.blws" xMin="60" yMin="-332" xMax="958" yMax="492">
      <contour>
        <pt x="417" y="443" on="1"/>
        <pt x="417" y="270" on="1"/>
        <pt x="540" y="270" on="1"/>
        <pt x="540" y="443" on="1"/>
        <pt x="417" y="443" on="1"/>
      </contour>
      <contour>
        <pt x="294" y="160" on="1"/>
        <pt x="294" y="110" on="0"/>
        <pt x="372" y="37" on="0"/>
        <pt x="429" y="37" on="1"/>
        <pt x="474" y="37" on="0"/>
        <pt x="540" y="95" on="0"/>
        <pt x="540" y="135" on="1"/>
        <pt x="540" y="221" on="1"/>
        <pt x="355" y="221" on="1"/>
        <pt x="329" y="221" on="0"/>
        <pt x="294" y="186" on="0"/>
        <pt x="294" y="160" on="1"/>
      </contour>
      <contour>
        <pt x="60" y="98" on="1"/>
        <pt x="60" y="233" on="0"/>
        <pt x="156" y="444" on="0"/>
        <pt x="238" y="492" on="1"/>
        <pt x="275" y="455" on="1"/>
        <pt x="201" y="412" on="0"/>
        <pt x="116" y="221" on="0"/>
        <pt x="116" y="98" on="1"/>
        <pt x="116" y="-59" on="0"/>
        <pt x="371" y="-283" on="0"/>
        <pt x="552" y="-283" on="1"/>
        <pt x="695" y="-283" on="0"/>
        <pt x="896" y="-109" on="0"/>
        <pt x="896" y="12" on="1"/>
        <pt x="896" y="57" on="0"/>
        <pt x="846" y="123" on="0"/>
        <pt x="810" y="123" on="1"/>
        <pt x="793" y="123" on="0"/>
        <pt x="752" y="90" on="0"/>
        <pt x="736" y="61" on="1"/>
        <pt x="736" y="0" on="1"/>
        <pt x="675" y="0" on="1"/>
        <pt x="675" y="221" on="1"/>
        <pt x="601" y="221" on="1"/>
        <pt x="601" y="135" on="1"/>
        <pt x="601" y="74" on="0"/>
        <pt x="500" y="-12" on="0"/>
        <pt x="429" y="-12" on="1"/>
        <pt x="348" y="-12" on="0"/>
        <pt x="232" y="89" on="0"/>
        <pt x="232" y="160" on="1"/>
        <pt x="232" y="205" on="0"/>
        <pt x="305" y="270" on="0"/>
        <pt x="355" y="270" on="1"/>
        <pt x="355" y="492" on="1"/>
        <pt x="773" y="492" on="1"/>
        <pt x="773" y="443" on="1"/>
        <pt x="601" y="443" on="1"/>
        <pt x="601" y="270" on="1"/>
        <pt x="847" y="270" on="1"/>
        <pt x="847" y="221" on="1"/>
        <pt x="736" y="221" on="1"/>
        <pt x="736" y="135" on="1"/>
        <pt x="751" y="152" on="0"/>
        <pt x="789" y="172" on="0"/>
        <pt x="810" y="172" on="1"/>
        <pt x="871" y="172" on="0"/>
        <pt x="958" y="79" on="0"/>
        <pt x="958" y="12" on="1"/>
        <pt x="958" y="-131" on="0"/>
        <pt x="720" y="-332" on="0"/>
        <pt x="552" y="-332" on="1"/>
        <pt x="348" y="-332" on="0"/>
        <pt x="60" y="-80" on="0"/>
        <pt x="60" y="98" on="1"/>
      </contour>
    </TTGlyph>
    <TTGlyph name="u0B9A_u0BCD.half" xMin="34" yMin="-12" xMax="551" yMax="750">
      <contour>
        <pt x="219" y="270" on="1"/>
        <pt x="342" y="270" on="1"/>
        <pt x="342" y="443" on="1"/>
        <pt x="219" y="443" on="1"/>
        <pt x="219" y="270" on="1"/>
      </contour>
      <contour>
        <pt x="96" y="160" on="1"/>
        <pt x="96" y="110" on="0"/>
        <pt x="175" y="37" on="0"/>
        <pt x="231" y="37" on="1"/>
        <pt x="276" y="37" on="0"/>
        <pt x="342" y="95" on="0"/>
        <pt x="342" y="135" on="1"/>
        <pt x="342" y="221" on="1"/>
        <pt x="157" y="221" on="1"/>
        <pt x="131" y="221" on="0"/>
        <pt x="96" y="186" on="0"/>
        <pt x="96" y="160" on="1"/>
      </contour>
      <contour>
        <pt x="157" y="492" on="1"/>
        <pt x="551" y="492" on="1"/>
        <pt x="551" y="443" on="1"/>
        <pt x="403" y="443" on="1"/>
        <pt x="403" y="270" on="1"/>
        <pt x="551" y="270" on="1"/>
        <pt x="551" y="221" on="1"/>
        <pt x="403" y="221" on="1"/>
        <pt x="403" y="135" on="1"/>
        <pt x="403" y="74" on="0"/>
        <pt x="302" y="-12" on="0"/>
        <pt x="231" y="-12" on="1"/>
        <pt x="150" y="-12" on="0"/>
        <pt x="34" y="89" on="0"/>
        <pt x="34" y="160" on="1"/>
        <pt x="34" y="205" on="0"/>
        <pt x="107" y="270" on="0"/>
        <pt x="157" y="270" on="1"/>
        <pt x="157" y="492" on="1"/>
      </contour>
      <contour>
        <pt x="224" y="688" on="1"/>
        <pt x="224" y="714" on="0"/>
        <pt x="259" y="750" on="0"/>
        <pt x="285" y="750" on="1"/>
        <pt x="311" y="750" on="0"/>
        <pt x="347" y="714" on="0"/>
        <pt x="347" y="688" on="1"/>
        <pt x="347" y="662" on="0"/>
        <pt x="311" y="627" on="0"/>
        <pt x="285" y="627" on="1"/>
        <pt x="259" y="627" on="0"/>
        <pt x="224" y="663" on="0"/>
        <pt x="224" y="688" on="1"/>
      </contour>
    </TTGlyph>
    <TTGlyph name="u0B9C" xMin="52" yMin="-350" xMax="801" yMax="504">
      <contour>
        <pt x="101" y="246" on="1"/>
        <pt x="101" y="215" on="0"/>
        <pt x="151" y="172" on="0"/>
        <pt x="187" y="172" on="1"/>
        <pt x="218" y="172" on="0"/>
        <pt x="261" y="215" on="0"/>
        <pt x="261" y="246" on="1"/>
        <pt x="261" y="277" on="0"/>
        <pt x="218" y="320" on="0"/>
        <pt x="187" y="320" on="1"/>
        <pt x="151" y="320" on="0"/>
        <pt x="101" y="277" on="0"/>
        <pt x="101" y="246" on="1"/>
      </contour>
      <contour>
        <pt x="439" y="393" on="1"/>
        <pt x="457" y="443" on="0"/>
        <pt x="548" y="504" on="0"/>
        <pt x="605" y="504" on="1"/>
        <pt x="686" y="504" on="0"/>
        <pt x="801" y="368" on="0"/>
        <pt x="801" y="270" on="1"/>
        <pt x="801" y="173" on="0"/>
        <pt x="672" y="37" on="0"/>
        <pt x="580" y="37" on="1"/>
        <pt x="236" y="37" on="1"/>
        <pt x="186" y="37" on="0"/>
        <pt x="113" y="-57" on="0"/>
        <pt x="113" y="-123" on="1"/>
        <pt x="113" y="-194" on="0"/>
        <pt x="186" y="-295" on="0"/>
        <pt x="236" y="-295" on="1"/>
        <pt x="278" y="-295" on="0"/>
        <pt x="363" y="-229" on="0"/>
        <pt x="396" y="-172" on="1"/>
        <pt x="443" y="-92" on="0"/>
        <pt x="574" y="0" on="0"/>
        <pt x="642" y="0" on="1"/>
        <pt x="703" y="0" on="0"/>
        <pt x="789" y="-108" on="0"/>
        <pt x="789" y="-184" on="1"/>
        <pt x="789" y="-253" on="0"/>
        <pt x="717" y="-350" on="0"/>
        <pt x="666" y="-350" on="1"/>
        <pt x="605" y="-350" on="0"/>
        <pt x="519" y="-246" on="0"/>
        <pt x="519" y="-172" on="1"/>
        <pt x="568" y="-172" on="1"/>
        <pt x="578" y="-225" on="0"/>
        <pt x="629" y="-295" on="0"/>
        <pt x="660" y="-295" on="1"/>
        <pt x="688" y="-295" on="0"/>
        <pt x="728" y="-230" on="0"/>
        <pt x="728" y="-184" on="1"/>
        <pt x="728" y="-127" on="0"/>
        <pt x="677" y="-49" on="0"/>
        <pt x="642" y="-49" on="1"/>
        <pt x="590" y="-49" on="0"/>
        <pt x="487" y="-122" on="0"/>
        <pt x="451" y="-184" on="1"/>
        <pt x="408" y="-258" on="0"/>
        <pt x="293" y="-344" on="0"/>
        <pt x="236" y="-344" on="1"/>
        <pt x="160" y="-344" on="0"/>
        <pt x="52" y="-215" on="0"/>
        <pt x="52" y="-123" on="1"/>
        <pt x="52" y="-37" on="0"/>
        <pt x="160" y="86" on="0"/>
        <pt x="236" y="86" on="1"/>
        <pt x="580" y="86" on="1"/>
        <pt x="646" y="86" on="0"/>
        <pt x="740" y="194" on="0"/>
        <pt x="740" y="270" on="1"/>
        <pt x="740" y="346" on="0"/>
        <pt x="661" y="455" on="0"/>
        <pt x="605" y="455" on="1"/>
        <pt x="548" y="455" on="0"/>
        <pt x="470" y="376" on="0"/>
        <pt x="470" y="320" on="1"/>
        <pt x="470" y="135" on="1"/>
        <pt x="408" y="135" on="1"/>
        <pt x="408" y="320" on="1"/>
        <pt x="408" y="377" on="0"/>
        <pt x="322" y="455" on="0"/>
        <pt x="261" y="455" on="1"/>
        <pt x="207" y="455" on="0"/>
        <pt x="119" y="395" on="0"/>
        <pt x="101" y="344" on="1"/>
        <pt x="122" y="356" on="0"/>
        <pt x="166" y="369" on="0"/>
        <pt x="187" y="369" on="1"/>
        <pt x="237" y="369" on="0"/>
        <pt x="310" y="296" on="0"/>
        <pt x="310" y="246" on="1"/>
        <pt x="310" y="196" on="0"/>
        <pt x="237" y="123" on="0"/>
        <pt x="187" y="123" on="1"/>
        <pt x="126" y="123" on="0"/>
        <pt x="52" y="216" on="0"/>
        <pt x="52" y="295" on="1"/>
        <pt x="52" y="381" on="0"/>
        <pt x="175" y="504" on="0"/>
        <pt x="261" y="504" on="1"/>
        <pt x="314" y="504" on="0"/>
        <pt x="409" y="445" on="0"/>
        <pt x="439" y="393" on="1"/>
      </contour>
    </TTGlyph>
    <TTGlyph name="u0B9C_u0BBF.abvs" xMin="52" yMin="-350" xMax="949" yMax="811">
      <contour>
        <pt x="101" y="246" on="1"/>
        <pt x="101" y="215" on="0"/>
        <pt x="151" y="172" on="0"/>
        <pt x="187" y="172" on="1"/>
        <pt x="218" y="172" on="0"/>
        <pt x="261" y="215" on="0"/>
        <pt x="261" y="246" on="1"/>
        <pt x="261" y="277" on="0"/>
        <pt x="218" y="320" on="0"/>
        <pt x="187" y="320" on="1"/>
        <pt x="151" y="320" on="0"/>
        <pt x="101" y="277" on="0"/>
        <pt x="101" y="246" on="1"/>
      </contour>
      <contour>
        <pt x="439" y="406" on="1"/>
        <pt x="467" y="447" on="0"/>
        <pt x="538" y="494" on="0"/>
        <pt x="574" y="498" on="1"/>
        <pt x="535" y="521" on="0"/>
        <pt x="488" y="606" on="0"/>
        <pt x="488" y="658" on="1"/>
        <pt x="488" y="722" on="0"/>
        <pt x="611" y="811" on="0"/>
        <pt x="697" y="811" on="1"/>
        <pt x="801" y="811" on="0"/>
        <pt x="949" y="675" on="0"/>
        <pt x="949" y="578" on="1"/>
        <pt x="949" y="0" on="1"/>
        <pt x="888" y="0" on="1"/>
        <pt x="888" y="572" on="1"/>
        <pt x="888" y="651" on="0"/>
        <pt x="776" y="762" on="0"/>
        <pt x="697" y="762" on="1"/>
        <pt x="633" y="762" on="0"/>
        <pt x="543" y="697" on="0"/>
        <pt x="543" y="652" on="1"/>
        <pt x="543" y="604" on="0"/>
        <pt x="604" y="522" on="0"/>
        <pt x="654" y="504" on="1"/>
        <pt x="720" y="479" on="0"/>
        <pt x="801" y="352" on="0"/>
        <pt x="801" y="270" on="1"/>
        <pt x="801" y="173" on="0"/>
        <pt x="672" y="37" on="0"/>
        <pt x="580" y="37" on="1"/>
        <pt x="236" y="37" on="1"/>
        <pt x="186" y="37" on="0"/>
        <pt x="113" y="-57" on="0"/>
        <pt x="113" y="-123" on="1"/>
        <pt x="113" y="-194" on="0"/>
        <pt x="186" y="-295" on="0"/>
        <pt x="236" y="-295" on="1"/>
        <pt x="278" y="-295" on="0"/>
        <pt x="363" y="-229" on="0"/>
        <pt x="396" y="-172" on="1"/>
        <pt x="443" y="-92" on="0"/>
        <pt x="586" y="0" on="0"/>
        <pt x="666" y="0" on="1"/>
        <pt x="716" y="0" on="0"/>
        <pt x="789" y="-108" on="0"/>
        <pt x="789" y="-184" on="1"/>
        <pt x="789" y="-253" on="0"/>
        <pt x="717" y="-350" on="0"/>
        <pt x="666" y="-350" on="1"/>
        <pt x="605" y="-350" on="0"/>
        <pt x="519" y="-246" on="0"/>
        <pt x="519" y="-172" on="1"/>
        <pt x="549" y="-172" on="1"/>
        <pt x="559" y="-225" on="0"/>
        <pt x="604" y="-295" on="0"/>
        <pt x="629" y="-295" on="1"/>
        <pt x="670" y="-295" on="0"/>
        <pt x="728" y="-230" on="0"/>
        <pt x="728" y="-184" on="1"/>
        <pt x="728" y="-127" on="0"/>
        <pt x="677" y="-49" on="0"/>
        <pt x="642" y="-49" on="1"/>
        <pt x="590" y="-49" on="0"/>
        <pt x="487" y="-122" on="0"/>
        <pt x="451" y="-184" on="1"/>
        <pt x="408" y="-258" on="0"/>
        <pt x="293" y="-344" on="0"/>
        <pt x="236" y="-344" on="1"/>
        <pt x="160" y="-344" on="0"/>
        <pt x="52" y="-215" on="0"/>
        <pt x="52" y="-123" on="1"/>
        <pt x="52" y="-37" on="0"/>
        <pt x="160" y="86" on="0"/>
        <pt x="236" y="86" on="1"/>
        <pt x="580" y="86" on="1"/>
        <pt x="646" y="86" on="0"/>
        <pt x="740" y="194" on="0"/>
        <pt x="740" y="270" on="1"/>
        <pt x="740" y="346" on="0"/>
        <pt x="661" y="455" on="0"/>
        <pt x="605" y="455" on="1"/>
        <pt x="548" y="455" on="0"/>
        <pt x="470" y="376" on="0"/>
        <pt x="470" y="320" on="1"/>
        <pt x="470" y="135" on="1"/>
        <pt x="408" y="135" on="1"/>
        <pt x="408" y="320" on="1"/>
        <pt x="408" y="377" on="0"/>
        <pt x="322" y="455" on="0"/>
        <pt x="261" y="455" on="1"/>
        <pt x="201" y="455" on="0"/>
        <pt x="111" y="385" on="0"/>
        <pt x="101" y="332" on="1"/>
        <pt x="116" y="349" on="0"/>
        <pt x="161" y="369" on="0"/>
        <pt x="187" y="369" on="1"/>
        <pt x="237" y="369" on="0"/>
        <pt x="310" y="296" on="0"/>
        <pt x="310" y="246" on="1"/>
        <pt x="310" y="196" on="0"/>
        <pt x="237" y="123" on="0"/>
        <pt x="187" y="123" on="1"/>
        <pt x="126" y="123" on="0"/>
        <pt x="52" y="200" on="0"/>
        <pt x="52" y="264" on="1"/>
        <pt x="52" y="372" on="0"/>
        <pt x="166" y="504" on="0"/>
        <pt x="261" y="504" on="1"/>
        <pt x="318" y="504" on="0"/>
        <pt x="413" y="451" on="0"/>
        <pt x="439" y="406" on="1"/>
      </contour>
    </TTGlyph>
    <TTGlyph name="u0B9C_u0BC0.abvs" xMin="53" yMin="-350" xMax="852" yMax="848">
      <contour>
        <pt x="102" y="246" on="1"/>
        <pt x="102" y="215" on="0"/>
        <pt x="152" y="172" on="0"/>
        <pt x="188" y="172" on="1"/>
        <pt x="219" y="172" on="0"/>
        <pt x="262" y="215" on="0"/>
        <pt x="262" y="246" on="1"/>
        <pt x="262" y="277" on="0"/>
        <pt x="219" y="320" on="0"/>
        <pt x="188" y="320" on="1"/>
        <pt x="152" y="320" on="0"/>
        <pt x="102" y="277" on="0"/>
        <pt x="102" y="246" on="1"/>
      </contour>
      <contour>
        <pt x="440" y="412" on="1"/>
        <pt x="472" y="450" on="0"/>
        <pt x="545" y="498" on="0"/>
        <pt x="581" y="504" on="1"/>
        <pt x="536" y="530" on="0"/>
        <pt x="483" y="622" on="0"/>
        <pt x="483" y="676" on="1"/>
        <pt x="483" y="747" on="0"/>
        <pt x="591" y="848" on="0"/>
        <pt x="668" y="848" on="1"/>
        <pt x="744" y="848" on="0"/>
        <pt x="852" y="770" on="0"/>
        <pt x="852" y="713" on="1"/>
        <pt x="852" y="663" on="0"/>
        <pt x="779" y="590" on="0"/>
        <pt x="729" y="590" on="1"/>
        <pt x="679" y="590" on="0"/>
        <pt x="606" y="663" on="0"/>
        <pt x="606" y="713" on="1"/>
        <pt x="606" y="743" on="0"/>
        <pt x="626" y="789" on="0"/>
        <pt x="643" y="799" on="1"/>
        <pt x="600" y="792" on="0"/>
        <pt x="545" y="722" on="0"/>
        <pt x="545" y="676" on="1"/>
        <pt x="545" y="629" on="0"/>
        <pt x="611" y="537" on="0"/>
        <pt x="668" y="504" on="1"/>
        <pt x="729" y="482" on="0"/>
        <pt x="803" y="354" on="0"/>
        <pt x="803" y="270" on="1"/>
        <pt x="803" y="173" on="0"/>
        <pt x="674" y="37" on="0"/>
        <pt x="581" y="37" on="1"/>
        <pt x="237" y="37" on="1"/>
        <pt x="187" y="37" on="0"/>
        <pt x="114" y="-57" on="0"/>
        <pt x="114" y="-123" on="1"/>
        <pt x="114" y="-194" on="0"/>
        <pt x="187" y="-295" on="0"/>
        <pt x="237" y="-295" on="1"/>
        <pt x="279" y="-295" on="0"/>
        <pt x="364" y="-229" on="0"/>
        <pt x="397" y="-172" on="1"/>
        <pt x="444" y="-92" on="0"/>
        <pt x="588" y="0" on="0"/>
        <pt x="668" y="0" on="1"/>
        <pt x="718" y="0" on="0"/>
        <pt x="790" y="-108" on="0"/>
        <pt x="790" y="-184" on="1"/>
        <pt x="790" y="-253" on="0"/>
        <pt x="718" y="-350" on="0"/>
        <pt x="668" y="-350" on="1"/>
        <pt x="607" y="-350" on="0"/>
        <pt x="520" y="-246" on="0"/>
        <pt x="520" y="-172" on="1"/>
        <pt x="551" y="-172" on="1"/>
        <pt x="561" y="-225" on="0"/>
        <pt x="605" y="-295" on="0"/>
        <pt x="631" y="-295" on="1"/>
        <pt x="672" y="-295" on="0"/>
        <pt x="729" y="-230" on="0"/>
        <pt x="729" y="-184" on="1"/>
        <pt x="729" y="-127" on="0"/>
        <pt x="679" y="-49" on="0"/>
        <pt x="643" y="-49" on="1"/>
        <pt x="591" y="-49" on="0"/>
        <pt x="488" y="-122" on="0"/>
        <pt x="452" y="-184" on="1"/>
        <pt x="409" y="-258" on="0"/>
        <pt x="294" y="-344" on="0"/>
        <pt x="237" y="-344" on="1"/>
        <pt x="161" y="-344" on="0"/>
        <pt x="53" y="-215" on="0"/>
        <pt x="53" y="-123" on="1"/>
        <pt x="53" y="-37" on="0"/>
        <pt x="161" y="86" on="0"/>
        <pt x="237" y="86" on="1"/>
        <pt x="581" y="86" on="1"/>
        <pt x="647" y="86" on="0"/>
        <pt x="741" y="194" on="0"/>
        <pt x="741" y="270" on="1"/>
        <pt x="741" y="346" on="0"/>
        <pt x="663" y="455" on="0"/>
        <pt x="606" y="455" on="1"/>
        <pt x="549" y="455" on="0"/>
        <pt x="471" y="376" on="0"/>
        <pt x="471" y="320" on="1"/>
        <pt x="471" y="135" on="1"/>
        <pt x="409" y="135" on="1"/>
        <pt x="409" y="320" on="1"/>
        <pt x="409" y="377" on="0"/>
        <pt x="323" y="455" on="0"/>
        <pt x="262" y="455" on="1"/>
        <pt x="204" y="455" on="0"/>
        <pt x="117" y="388" on="0"/>
        <pt x="108" y="338" on="1"/>
        <pt x="125" y="353" on="0"/>
        <pt x="167" y="369" on="0"/>
        <pt x="188" y="369" on="1"/>
        <pt x="238" y="369" on="0"/>
        <pt x="311" y="296" on="0"/>
        <pt x="311" y="246" on="1"/>
        <pt x="311" y="196" on="0"/>
        <pt x="238" y="123" on="0"/>
        <pt x="188" y="123" on="1"/>
        <pt x="127" y="123" on="0"/>
        <pt x="53" y="204" on="0"/>
        <pt x="53" y="270" on="1"/>
        <pt x="53" y="376" on="0"/>
        <pt x="167" y="504" on="0"/>
        <pt x="262" y="504" on="1"/>
        <pt x="320" y="504" on="0"/>
        <pt x="416" y="455" on="0"/>
        <pt x="440" y="412" on="1"/>
      </contour>
      <contour>
        <pt x="668" y="713" on="1"/>
        <pt x="668" y="682" on="0"/>
        <pt x="703" y="639" on="0"/>
        <pt x="729" y="639" on="1"/>
        <pt x="755" y="639" on="0"/>
        <pt x="790" y="682" on="0"/>
        <pt x="790" y="713" on="1"/>
        <pt x="790" y="744" on="0"/>
        <pt x="755" y="787" on="0"/>
        <pt x="729" y="787" on="1"/>
        <pt x="703" y="787" on="0"/>
        <pt x="668" y="744" on="0"/>
        <pt x="668" y="713" on="1"/>
      </contour>
    </TTGlyph>
    <TTGlyph name="u0B9C_u0BCD.half" xMin="52" yMin="-350" xMax="801" yMax="750">
      <contour>
        <pt x="101" y="246" on="1"/>
        <pt x="101" y="215" on="0"/>
        <pt x="151" y="172" on="0"/>
        <pt x="187" y="172" on="1"/>
        <pt x="218" y="172" on="0"/>
        <pt x="261" y="215" on="0"/>
        <pt x="261" y="246" on="1"/>
        <pt x="261" y="277" on="0"/>
        <pt x="218" y="320" on="0"/>
        <pt x="187" y="320" on="1"/>
        <pt x="151" y="320" on="0"/>
        <pt x="101" y="277" on="0"/>
        <pt x="101" y="246" on="1"/>
      </contour>
      <contour>
        <pt x="439" y="393" on="1"/>
        <pt x="457" y="443" on="0"/>
        <pt x="548" y="504" on="0"/>
        <pt x="605" y="504" on="1"/>
        <pt x="686" y="504" on="0"/>
        <pt x="801" y="368" on="0"/>
        <pt x="801" y="270" on="1"/>
        <pt x="801" y="173" on="0"/>
        <pt x="672" y="37" on="0"/>
        <pt x="580" y="37" on="1"/>
        <pt x="236" y="37" on="1"/>
        <pt x="186" y="37" on="0"/>
        <pt x="113" y="-57" on="0"/>
        <pt x="113" y="-123" on="1"/>
        <pt x="113" y="-194" on="0"/>
        <pt x="186" y="-295" on="0"/>
        <pt x="236" y="-295" on="1"/>
        <pt x="278" y="-295" on="0"/>
        <pt x="363" y="-229" on="0"/>
        <pt x="396" y="-172" on="1"/>
        <pt x="443" y="-92" on="0"/>
        <pt x="574" y="0" on="0"/>
        <pt x="642" y="0" on="1"/>
        <pt x="703" y="0" on="0"/>
        <pt x="789" y="-108" on="0"/>
        <pt x="789" y="-184" on="1"/>
        <pt x="789" y="-253" on="0"/>
        <pt x="717" y="-350" on="0"/>
        <pt x="666" y="-350" on="1"/>
        <pt x="605" y="-350" on="0"/>
        <pt x="519" y="-246" on="0"/>
        <pt x="519" y="-172" on="1"/>
        <pt x="568" y="-172" on="1"/>
        <pt x="578" y="-225" on="0"/>
        <pt x="629" y="-295" on="0"/>
        <pt x="660" y="-295" on="1"/>
        <pt x="688" y="-295" on="0"/>
        <pt x="728" y="-230" on="0"/>
        <pt x="728" y="-184" on="1"/>
        <pt x="728" y="-127" on="0"/>
        <pt x="677" y="-49" on="0"/>
        <pt x="642" y="-49" on="1"/>
        <pt x="590" y="-49" on="0"/>
        <pt x="487" y="-122" on="0"/>
        <pt x="451" y="-184" on="1"/>
        <pt x="408" y="-258" on="0"/>
        <pt x="293" y="-344" on="0"/>
        <pt x="236" y="-344" on="1"/>
        <pt x="160" y="-344" on="0"/>
        <pt x="52" y="-215" on="0"/>
        <pt x="52" y="-123" on="1"/>
        <pt x="52" y="-37" on="0"/>
        <pt x="160" y="86" on="0"/>
        <pt x="236" y="86" on="1"/>
        <pt x="580" y="86" on="1"/>
        <pt x="646" y="86" on="0"/>
        <pt x="740" y="194" on="0"/>
        <pt x="740" y="270" on="1"/>
        <pt x="740" y="346" on="0"/>
        <pt x="661" y="455" on="0"/>
        <pt x="605" y="455" on="1"/>
        <pt x="548" y="455" on="0"/>
        <pt x="470" y="376" on="0"/>
        <pt x="470" y="320" on="1"/>
        <pt x="470" y="135" on="1"/>
        <pt x="408" y="135" on="1"/>
        <pt x="408" y="320" on="1"/>
        <pt x="408" y="377" on="0"/>
        <pt x="322" y="455" on="0"/>
        <pt x="261" y="455" on="1"/>
        <pt x="207" y="455" on="0"/>
        <pt x="119" y="395" on="0"/>
        <pt x="101" y="344" on="1"/>
        <pt x="122" y="356" on="0"/>
        <pt x="166" y="369" on="0"/>
        <pt x="187" y="369" on="1"/>
        <pt x="237" y="369" on="0"/>
        <pt x="310" y="296" on="0"/>
        <pt x="310" y="246" on="1"/>
        <pt x="310" y="196" on="0"/>
        <pt x="237" y="123" on="0"/>
        <pt x="187" y="123" on="1"/>
        <pt x="126" y="123" on="0"/>
        <pt x="52" y="216" on="0"/>
        <pt x="52" y="295" on="1"/>
        <pt x="52" y="381" on="0"/>
        <pt x="175" y="504" on="0"/>
        <pt x="261" y="504" on="1"/>
        <pt x="314" y="504" on="0"/>
        <pt x="409" y="445" on="0"/>
        <pt x="439" y="393" on="1"/>
      </contour>
      <contour>
        <pt x="366" y="688" on="1"/>
        <pt x="366" y="714" on="0"/>
        <pt x="402" y="750" on="0"/>
        <pt x="428" y="750" on="1"/>
        <pt x="454" y="750" on="0"/>
        <pt x="489" y="714" on="0"/>
        <pt x="489" y="688" on="1"/>
        <pt x="489" y="662" on="0"/>
        <pt x="454" y="627" on="0"/>
        <pt x="428" y="627" on="1"/>
        <pt x="402" y="627" on="0"/>
        <pt x="366" y="663" on="0"/>
        <pt x="366" y="688" on="1"/>
      </contour>
    </TTGlyph>
    <TTGlyph name="u0B9E" xMin="73" yMin="-320" xMax="1056" yMax="492">
      <contour>
        <pt x="380" y="135" on="1"/>
        <pt x="380" y="94" on="0"/>
        <pt x="430" y="37" on="0"/>
        <pt x="466" y="37" on="1"/>
        <pt x="502" y="37" on="0"/>
        <pt x="552" y="95" on="0"/>
        <pt x="552" y="135" on="1"/>
        <pt x="552" y="176" on="0"/>
        <pt x="502" y="234" on="0"/>
        <pt x="466" y="234" on="1"/>
        <pt x="430" y="234" on="0"/>
        <pt x="380" y="176" on="0"/>
        <pt x="380" y="135" on="1"/>
      </contour>
      <contour>
        <pt x="73" y="197" on="1"/>
        <pt x="73" y="287" on="0"/>
        <pt x="120" y="439" on="0"/>
        <pt x="165" y="492" on="1"/>
        <pt x="208" y="461" on="1"/>
        <pt x="170" y="414" on="0"/>
        <pt x="128" y="279" on="0"/>
        <pt x="128" y="197" on="1"/>
        <pt x="128" y="4" on="0"/>
        <pt x="412" y="-270" on="0"/>
        <pt x="613" y="-270" on="1"/>
        <pt x="770" y="-270" on="0"/>
        <pt x="994" y="-54" on="0"/>
        <pt x="994" y="98" on="1"/>
        <pt x="994" y="155" on="0"/>
        <pt x="929" y="234" on="0"/>
        <pt x="884" y="234" on="1"/>
        <pt x="864" y="234" on="0"/>
        <pt x="825" y="204" on="0"/>
        <pt x="810" y="178" on="1"/>
        <pt x="810" y="0" on="1"/>
        <pt x="749" y="0" on="1"/>
        <pt x="749" y="443" on="1"/>
        <pt x="527" y="443" on="1"/>
        <pt x="423" y="443" on="0"/>
        <pt x="275" y="306" on="0"/>
        <pt x="275" y="209" on="1"/>
        <pt x="275" y="168" on="0"/>
        <pt x="313" y="91" on="0"/>
        <pt x="349" y="61" on="1"/>
        <pt x="340" y="77" on="0"/>
        <pt x="331" y="114" on="0"/>
        <pt x="331" y="135" on="1"/>
        <pt x="331" y="196" on="0"/>
        <pt x="409" y="283" on="0"/>
        <pt x="466" y="283" on="1"/>
        <pt x="523" y="283" on="0"/>
        <pt x="601" y="197" on="0"/>
        <pt x="601" y="135" on="1"/>
        <pt x="601" y="74" on="0"/>
        <pt x="522" y="-12" on="0"/>
        <pt x="466" y="-12" on="1"/>
        <pt x="364" y="-12" on="0"/>
        <pt x="220" y="117" on="0"/>
        <pt x="220" y="209" on="1"/>
        <pt x="220" y="326" on="0"/>
        <pt x="400" y="492" on="0"/>
        <pt x="527" y="492" on="1"/>
        <pt x="1007" y="492" on="1"/>
        <pt x="1007" y="443" on="1"/>
        <pt x="810" y="443" on="1"/>
        <pt x="810" y="246" on="1"/>
        <pt x="825" y="263" on="0"/>
        <pt x="863" y="283" on="0"/>
        <pt x="884" y="283" on="1"/>
        <pt x="955" y="283" on="0"/>
        <pt x="1056" y="175" on="0"/>
        <pt x="1056" y="98" on="1"/>
        <pt x="1056" y="-75" on="0"/>
        <pt x="797" y="-320" on="0"/>
        <pt x="613" y="-320" on="1"/>
        <pt x="389" y="-320" on="0"/>
        <pt x="73" y="-17" on="0"/>
        <pt x="73" y="197" on="1"/>
      </contour>
    </TTGlyph>
    <TTGlyph name="u0B9E_u0BBF.abvs" xMin="74" yMin="-320" xMax="1199" yMax="811">
      <contour>
        <pt x="381" y="135" on="1"/>
        <pt x="381" y="94" on="0"/>
        <pt x="431" y="37" on="0"/>
        <pt x="467" y="37" on="1"/>
        <pt x="503" y="37" on="0"/>
        <pt x="553" y="95" on="0"/>
        <pt x="553" y="135" on="1"/>
        <pt x="553" y="176" on="0"/>
        <pt x="503" y="234" on="0"/>
        <pt x="467" y="234" on="1"/>
        <pt x="431" y="234" on="0"/>
        <pt x="381" y="176" on="0"/>
        <pt x="381" y="135" on="1"/>
      </contour>
      <contour>
        <pt x="74" y="197" on="1"/>
        <pt x="74" y="290" on="0"/>
        <pt x="118" y="443" on="0"/>
        <pt x="160" y="492" on="1"/>
        <pt x="209" y="467" on="1"/>
        <pt x="171" y="429" on="0"/>
        <pt x="129" y="288" on="0"/>
        <pt x="129" y="197" on="1"/>
        <pt x="129" y="4" on="0"/>
        <pt x="413" y="-270" on="0"/>
        <pt x="615" y="-270" on="1"/>
        <pt x="772" y="-270" on="0"/>
        <pt x="996" y="-54" on="0"/>
        <pt x="996" y="98" on="1"/>
        <pt x="996" y="151" on="0"/>
        <pt x="931" y="227" on="0"/>
        <pt x="885" y="227" on="1"/>
        <pt x="864" y="227" on="0"/>
        <pt x="825" y="202" on="0"/>
        <pt x="811" y="178" on="1"/>
        <pt x="811" y="0" on="1"/>
        <pt x="750" y="0" on="1"/>
        <pt x="750" y="443" on="1"/>
        <pt x="529" y="443" on="1"/>
        <pt x="425" y="443" on="0"/>
        <pt x="277" y="306" on="0"/>
        <pt x="277" y="209" on="1"/>
        <pt x="277" y="168" on="0"/>
        <pt x="315" y="91" on="0"/>
        <pt x="350" y="61" on="1"/>
        <pt x="341" y="77" on="0"/>
        <pt x="332" y="114" on="0"/>
        <pt x="332" y="135" on="1"/>
        <pt x="332" y="196" on="0"/>
        <pt x="411" y="283" on="0"/>
        <pt x="467" y="283" on="1"/>
        <pt x="524" y="283" on="0"/>
        <pt x="602" y="197" on="0"/>
        <pt x="602" y="135" on="1"/>
        <pt x="602" y="74" on="0"/>
        <pt x="524" y="-12" on="0"/>
        <pt x="467" y="-12" on="1"/>
        <pt x="355" y="-12" on="0"/>
        <pt x="221" y="108" on="0"/>
        <pt x="221" y="209" on="1"/>
        <pt x="221" y="326" on="0"/>
        <pt x="401" y="492" on="0"/>
        <pt x="529" y="492" on="1"/>
        <pt x="762" y="492" on="1"/>
        <pt x="741" y="513" on="0"/>
        <pt x="719" y="570" on="0"/>
        <pt x="719" y="602" on="1"/>
        <pt x="719" y="688" on="0"/>
        <pt x="863" y="811" on="0"/>
        <pt x="965" y="811" on="1"/>
        <pt x="1062" y="811" on="0"/>
        <pt x="1199" y="696" on="0"/>
        <pt x="1199" y="615" on="1"/>
        <pt x="1199" y="0" on="1"/>
        <pt x="1137" y="0" on="1"/>
        <pt x="1137" y="615" on="1"/>
        <pt x="1137" y="676" on="0"/>
        <pt x="1036" y="762" on="0"/>
        <pt x="965" y="762" on="1"/>
        <pt x="889" y="762" on="0"/>
        <pt x="781" y="669" on="0"/>
        <pt x="781" y="602" on="1"/>
        <pt x="781" y="566" on="0"/>
        <pt x="806" y="508" on="0"/>
        <pt x="830" y="492" on="1"/>
        <pt x="1008" y="492" on="1"/>
        <pt x="1008" y="443" on="1"/>
        <pt x="811" y="443" on="1"/>
        <pt x="811" y="246" on="1"/>
        <pt x="826" y="263" on="0"/>
        <pt x="864" y="283" on="0"/>
        <pt x="885" y="283" on="1"/>
        <pt x="956" y="283" on="0"/>
        <pt x="1057" y="175" on="0"/>
        <pt x="1057" y="98" on="1"/>
        <pt x="1057" y="-75" on="0"/>
        <pt x="798" y="-320" on="0"/>
        <pt x="615" y="-320" on="1"/>
        <pt x="391" y="-320" on="0"/>
        <pt x="74" y="-17" on="0"/>
        <pt x="74" y="197" on="1"/>
      </contour>
    </TTGlyph>
    <TTGlyph name="u0B9E_u0BC0.abvs" xMin="74" yMin="-320" xMax="1057" yMax="848">
      <contour>
        <pt x="381" y="135" on="1"/>
        <pt x="381" y="94" on="0"/>
        <pt x="431" y="37" on="0"/>
        <pt x="467" y="37" on="1"/>
        <pt x="503" y="37" on="0"/>
        <pt x="553" y="95" on="0"/>
        <pt x="553" y="135" on="1"/>
        <pt x="553" y="176" on="0"/>
        <pt x="503" y="234" on="0"/>
        <pt x="467" y="234" on="1"/>
        <pt x="431" y="234" on="0"/>
        <pt x="381" y="176" on="0"/>
        <pt x="381" y="135" on="1"/>
      </contour>
      <contour>
        <pt x="74" y="197" on="1"/>
        <pt x="74" y="290" on="0"/>
        <pt x="118" y="443" on="0"/>
        <pt x="160" y="492" on="1"/>
        <pt x="209" y="467" on="1"/>
        <pt x="171" y="420" on="0"/>
        <pt x="129" y="282" on="0"/>
        <pt x="129" y="197" on="1"/>
        <pt x="129" y="4" on="0"/>
        <pt x="413" y="-270" on="0"/>
        <pt x="615" y="-270" on="1"/>
        <pt x="772" y="-270" on="0"/>
        <pt x="996" y="-61" on="0"/>
        <pt x="996" y="86" on="1"/>
        <pt x="996" y="147" on="0"/>
        <pt x="931" y="234" on="0"/>
        <pt x="885" y="234" on="1"/>
        <pt x="864" y="234" on="0"/>
        <pt x="825" y="208" on="0"/>
        <pt x="811" y="184" on="1"/>
        <pt x="811" y="0" on="1"/>
        <pt x="750" y="0" on="1"/>
        <pt x="750" y="443" on="1"/>
        <pt x="529" y="443" on="1"/>
        <pt x="425" y="443" on="0"/>
        <pt x="277" y="306" on="0"/>
        <pt x="277" y="209" on="1"/>
        <pt x="277" y="166" on="0"/>
        <pt x="312" y="89" on="0"/>
        <pt x="344" y="61" on="1"/>
        <pt x="338" y="72" on="0"/>
        <pt x="332" y="109" on="0"/>
        <pt x="332" y="135" on="1"/>
        <pt x="332" y="196" on="0"/>
        <pt x="411" y="283" on="0"/>
        <pt x="467" y="283" on="1"/>
        <pt x="524" y="283" on="0"/>
        <pt x="602" y="197" on="0"/>
        <pt x="602" y="135" on="1"/>
        <pt x="602" y="74" on="0"/>
        <pt x="524" y="-12" on="0"/>
        <pt x="467" y="-12" on="1"/>
        <pt x="355" y="-12" on="0"/>
        <pt x="221" y="108" on="0"/>
        <pt x="221" y="209" on="1"/>
        <pt x="221" y="326" on="0"/>
        <pt x="401" y="492" on="0"/>
        <pt x="529" y="492" on="1"/>
        <pt x="750" y="492" on="1"/>
        <pt x="705" y="518" on="0"/>
        <pt x="652" y="617" on="0"/>
        <pt x="652" y="676" on="1"/>
        <pt x="652" y="747" on="0"/>
        <pt x="771" y="848" on="0"/>
        <pt x="854" y="848" on="1"/>
        <pt x="925" y="848" on="0"/>
        <pt x="1026" y="770" on="0"/>
        <pt x="1026" y="713" on="1"/>
        <pt x="1026" y="656" on="0"/>
        <pt x="954" y="578" on="0"/>
        <pt x="904" y="578" on="1"/>
        <pt x="847" y="578" on="0"/>
        <pt x="768" y="656" on="0"/>
        <pt x="768" y="713" on="1"/>
        <pt x="768" y="738" on="0"/>
        <pt x="798" y="784" on="0"/>
        <pt x="824" y="799" on="1"/>
        <pt x="776" y="790" on="0"/>
        <pt x="713" y="720" on="0"/>
        <pt x="713" y="676" on="1"/>
        <pt x="713" y="611" on="0"/>
        <pt x="788" y="508" on="0"/>
        <pt x="848" y="492" on="1"/>
        <pt x="1008" y="492" on="1"/>
        <pt x="1008" y="443" on="1"/>
        <pt x="811" y="443" on="1"/>
        <pt x="811" y="252" on="1"/>
        <pt x="826" y="269" on="0"/>
        <pt x="864" y="289" on="0"/>
        <pt x="885" y="289" on="1"/>
        <pt x="956" y="289" on="0"/>
        <pt x="1057" y="170" on="0"/>
        <pt x="1057" y="86" on="1"/>
        <pt x="1057" y="-82" on="0"/>
        <pt x="798" y="-320" on="0"/>
        <pt x="615" y="-320" on="1"/>
        <pt x="391" y="-320" on="0"/>
        <pt x="74" y="-17" on="0"/>
        <pt x="74" y="197" on="1"/>
      </contour>
      <contour>
        <pt x="817" y="713" on="1"/>
        <pt x="817" y="677" on="0"/>
        <pt x="868" y="627" on="0"/>
        <pt x="904" y="627" on="1"/>
        <pt x="935" y="627" on="0"/>
        <pt x="977" y="677" on="0"/>
        <pt x="977" y="713" on="1"/>
        <pt x="977" y="746" on="0"/>
        <pt x="931" y="793" on="0"/>
        <pt x="897" y="793" on="1"/>
        <pt x="864" y="793" on="0"/>
        <pt x="817" y="746" on="0"/>
        <pt x="817" y="713" on="1"/>
      </contour>
    </TTGlyph>
</ttFont>
